<?xml version="1.0" standalone="no"?>
<!DOCTYPE svg PUBLIC "-//W3C//DTD SVG 20010904//EN"
 "http://www.w3.org/TR/2001/REC-SVG-20010904/DTD/svg10.dtd">
<svg version="1.0" xmlns="http://www.w3.org/2000/svg"
 width="1280.000000pt" height="1280.000000pt" viewBox="0 0 1280.000000 1280.000000"
 preserveAspectRatio="xMidYMid meet">
<metadata>
Created by potrace 1.15, written by Peter Selinger 2001-2017
</metadata>
<g transform="translate(0.000000,1280.000000) scale(0.100000,-0.100000)"
fill="#000000" stroke="none">
<path d="M5900 9174 c-36 -2 -168 -8 -295 -14 -788 -36 -1733 -135 -2450 -256
-553 -94 -1069 -221 -1235 -304 -263 -133 -427 -555 -446 -1145 l-6 -170 50
-231 c57 -263 76 -310 161 -394 93 -91 209 -140 336 -140 34 0 470 75 1015
175 525 96 956 173 958 171 2 -2 -44 -29 -101 -59 -58 -31 -216 -120 -353
-198 -991 -565 -1580 -1008 -1704 -1282 -19 -41 -20 -80 -20 -1369 l0 -1328
4580 0 4580 0 0 1324 0 1323 -37 74 c-30 62 -59 96 -177 214 -78 77 -189 177
-247 222 -323 250 -852 587 -1434 913 -121 68 -238 134 -260 147 -38 23 -39
24 -10 19 17 -3 452 -82 967 -176 516 -94 963 -170 995 -170 170 0 345 105
419 253 15 29 44 137 74 280 55 255 60 322 40 547 -32 357 -119 649 -245 825
-91 128 -181 184 -400 250 -746 225 -2007 402 -3455 486 -176 10 -1162 20
-1300 13z m990 -115 c1392 -49 3069 -275 3792 -513 129 -42 168 -66 241 -146
149 -165 245 -508 263 -946 l6 -149 -46 -213 c-26 -118 -56 -236 -67 -263 -23
-54 -95 -126 -155 -157 -54 -27 -147 -45 -197 -37 -23 4 -473 85 -999 181
-760 138 -968 179 -1005 198 -61 30 -127 97 -155 156 -40 82 -37 144 26 449
32 150 55 275 53 277 -5 6 -641 83 -646 78 -4 -3 43 -686 55 -805 l6 -56 132
-68 c1012 -526 1904 -1069 2331 -1420 132 -109 267 -250 299 -314 l26 -50 0
-1261 0 -1260 -4460 0 -4460 0 0 1263 0 1263 26 53 c36 71 181 221 330 341
432 347 1206 818 2154 1310 151 78 276 143 277 144 4 3 65 857 61 861 -4 4
-640 -74 -646 -79 -2 -3 21 -126 52 -276 31 -149 56 -297 56 -328 0 -111 -86
-235 -197 -284 -38 -17 -1664 -322 -1965 -369 -116 -18 -217 13 -305 94 -68
62 -86 109 -138 357 l-48 225 7 150 c17 411 112 759 252 927 80 95 139 125
394 197 700 198 2008 380 3235 451 454 27 989 34 1415 19z m-2240 -1221 c0
-27 -41 -575 -46 -615 l-5 -43 -182 -92 c-99 -51 -186 -95 -191 -97 -6 -2 8
17 32 44 67 76 95 145 100 245 3 72 -3 118 -41 300 -25 118 -44 217 -42 219 2
2 84 14 182 26 98 12 181 23 186 24 4 0 7 -5 7 -11z m3660 -13 c69 -8 141 -18
161 -21 l36 -5 -38 -187 c-21 -103 -43 -214 -49 -247 -20 -120 24 -259 107
-342 l44 -44 -188 97 c-103 53 -192 101 -197 105 -8 7 -54 543 -56 641 0 25 3
27 28 23 15 -3 83 -12 152 -20z"/>
<path d="M6115 8084 c-274 -12 -815 -49 -820 -57 -1 -1 13 -184 31 -407 18
-223 33 -415 34 -427 l0 -23 1014 0 c799 0 1016 3 1024 13 21 25 30 104 88
775 4 46 3 72 -4 72 -5 0 -54 4 -108 10 -265 26 -1038 54 -1259 44z m696 -124
c258 -13 543 -31 547 -35 2 -2 -9 -146 -25 -322 l-28 -318 -913 -3 c-725 -2
-913 0 -917 10 -3 11 -13 137 -48 603 l-2 30 151 12 c410 33 864 41 1235 23z"/>
<path d="M6210 6059 c-314 -36 -605 -170 -824 -379 -421 -403 -482 -990 -149
-1451 66 -92 199 -224 293 -291 158 -112 388 -207 590 -244 133 -25 411 -25
540 0 449 86 811 347 986 711 212 438 114 926 -254 1277 -303 288 -741 428
-1182 377z m410 -124 c132 -22 255 -61 376 -120 334 -162 565 -450 625 -778
14 -80 14 -254 0 -334 -82 -450 -480 -808 -1000 -898 -109 -19 -353 -19 -462
0 -284 49 -540 180 -723 369 -390 404 -387 997 6 1398 295 299 735 435 1178
363z"/>
</g>
</svg>
