<?xml version="1.0" standalone="no"?>
<!DOCTYPE svg PUBLIC "-//W3C//DTD SVG 20010904//EN"
 "http://www.w3.org/TR/2001/REC-SVG-20010904/DTD/svg10.dtd">
<svg version="1.0" xmlns="http://www.w3.org/2000/svg"
 width="1280.000000pt" height="1280.000000pt" viewBox="0 0 1280.000000 1280.000000"
 preserveAspectRatio="xMidYMid meet">
<metadata>
Created by potrace 1.15, written by Peter Selinger 2001-2017
</metadata>
<g transform="translate(0.000000,1280.000000) scale(0.100000,-0.100000)"
fill="#000000" stroke="none">
<path d="M6245 9571 l-50 -5 53 -5 54 -6 -128 -55 -128 -55 -136 -3 -135 -3
38 28 c50 36 30 42 -28 8 -36 -21 -52 -25 -82 -19 -31 6 -35 4 -30 -9 5 -13 1
-15 -21 -11 -35 7 -292 -85 -407 -145 -44 -23 -71 -39 -61 -36 61 18 228 32
211 17 -13 -11 -251 -62 -288 -62 -16 0 -49 -12 -75 -27 -71 -41 -234 -144
-262 -166 l-25 -19 65 7 c36 3 76 3 89 -2 18 -7 -3 -12 -89 -23 -114 -13 -118
-15 -186 -75 -7 -5 -32 -26 -58 -45 -48 -37 -57 -50 -28 -45 9 2 53 6 97 9
l80 5 -100 -51 c-74 -37 -114 -52 -157 -56 -61 -5 -89 -21 -41 -23 20 -1 22
-3 8 -6 -11 -2 -30 -6 -42 -9 -13 -2 -23 -11 -23 -19 0 -8 -6 -15 -13 -15 -14
0 -57 -41 -57 -53 0 -4 13 -1 30 8 22 11 62 15 167 14 131 -1 136 -1 104 -16
-22 -9 -84 -16 -177 -20 l-143 -6 -32 -34 -33 -33 30 -1 c28 -1 27 -2 -9 -11
-34 -9 -107 -77 -107 -100 0 -4 158 -8 351 -8 l351 0 60 50 60 50 -287 0
c-188 0 -284 3 -280 10 4 6 115 10 299 10 277 0 295 1 317 20 l24 19 -240 1
c-266 1 -287 13 -40 24 253 10 346 18 359 31 6 6 23 18 36 26 22 13 7 15 -150
19 l-175 6 188 2 c183 2 190 3 233 28 24 14 44 29 44 32 0 4 -59 6 -131 4 -80
-2 -129 1 -125 6 3 5 52 26 108 46 106 37 216 56 318 56 46 0 77 8 139 35 43
19 83 35 88 35 4 0 37 11 73 25 l65 25 -120 -5 -120 -5 90 36 90 37 220 8
c121 4 281 15 355 23 134 16 561 21 510 7 -17 -5 17 -11 99 -20 68 -7 134 -17
148 -22 13 -5 66 -9 116 -9 88 -1 220 -19 234 -33 3 -4 -20 -7 -52 -7 -71 0
-64 -8 37 -43 74 -26 84 -27 335 -29 l258 -2 -240 -6 -240 -5 52 -22 c35 -16
74 -24 120 -25 66 -1 66 -1 19 -7 l-49 -6 36 -17 c31 -15 48 -16 119 -8 100
12 539 32 546 26 8 -9 -40 -15 -293 -37 -137 -11 -257 -23 -265 -26 -13 -4
-13 -6 1 -13 11 -6 112 -1 275 15 143 14 262 25 267 25 13 0 8 -37 -7 -49 -10
-8 -69 -12 -188 -11 -95 0 -202 1 -238 0 l-65 0 25 -20 c19 -15 42 -20 95 -21
39 -1 61 -3 50 -6 -11 -2 -31 -6 -45 -9 l-25 -6 24 -19 c21 -17 40 -19 182
-19 137 0 158 -2 153 -15 -5 -11 -22 -15 -64 -15 -31 0 -85 -3 -119 -6 -57 -6
-60 -8 -41 -21 15 -11 44 -14 110 -11 67 2 90 0 90 -9 0 -9 -22 -13 -76 -13
-94 0 -91 -19 4 -22 57 -1 60 -2 19 -5 -58 -5 -59 -25 -1 -34 21 -3 31 -7 22
-8 -28 -2 -22 -15 25 -55 l42 -36 290 -1 c273 -1 286 -2 215 -15 -44 -7 -158
-13 -274 -13 -160 -1 -198 -4 -188 -13 7 -7 48 -16 90 -19 l77 -6 -70 -1 -69
-2 49 -50 49 -50 326 -2 325 -3 -317 -2 c-175 -2 -318 -7 -318 -11 1 -4 20
-27 43 -52 l42 -45 316 5 316 5 -44 68 -45 67 -206 2 -207 1 135 8 c74 3 163
7 198 8 l63 1 -31 45 c-30 43 -33 45 -83 46 l-52 1 42 11 42 10 -20 28 -20 29
-212 2 -212 3 203 2 c156 3 203 6 199 16 -2 7 -33 14 -83 18 l-79 5 69 2 c55
2 67 5 58 14 -9 9 -102 14 -324 18 l-313 6 303 2 c193 1 302 6 302 12 0 6
-105 10 -296 10 -232 0 -295 3 -292 13 4 9 72 13 278 17 233 4 271 7 257 19
-14 11 -49 12 -184 6 -93 -4 -165 -4 -162 0 10 9 186 35 247 35 52 0 68 12 35
25 -10 3 -114 6 -230 5 -187 -1 -212 1 -207 15 5 13 36 15 208 15 l201 1 -24
19 c-14 13 -38 20 -63 20 -23 0 -37 4 -33 10 3 6 16 10 28 10 16 0 18 3 10 11
-9 9 -41 8 -130 -5 -117 -16 -173 -20 -173 -12 0 3 4 16 9 29 9 24 15 25 120
32 61 4 111 9 111 12 0 8 -124 113 -134 113 -3 0 -14 7 -24 16 -16 13 -63 16
-353 16 -184 0 -325 2 -314 4 11 2 141 15 289 29 148 13 271 26 273 28 2 3
-29 25 -68 51 l-73 46 -210 2 c-170 1 -195 3 -126 9 47 4 132 8 190 8 l105 1
-25 20 c-21 17 -43 20 -155 22 l-130 2 114 5 115 6 -51 28 c-28 15 -58 27 -67
27 -9 0 -16 4 -16 8 0 21 -72 42 -128 37 -44 -4 -50 -3 -24 4 63 17 65 16
-165 102 -117 44 -141 49 -215 50 -63 1 -75 3 -50 9 58 14 49 23 -16 17 -36
-3 -60 -1 -56 4 3 5 13 9 22 10 9 0 4 5 -12 9 -20 6 -93 0 -235 -20 -190 -27
-421 -43 -421 -29 0 6 247 85 298 95 114 22 -104 44 -416 42 -136 -1 -269 -4
-297 -7z m285 -20 c-8 -5 -42 -14 -75 -21 -33 -7 -66 -14 -75 -17 -8 -2 5 7
30 21 29 16 61 25 90 25 30 0 40 -2 30 -8z m175 -27 c-141 -48 -135 -47 -135
-32 0 7 4 19 9 27 10 16 115 39 181 39 43 0 39 -1 -55 -34z m70 -14 c-82 -27
-151 -47 -153 -45 -5 5 261 93 283 94 11 0 -47 -22 -130 -49z m-465 6 c-59
-30 -144 -58 -129 -42 8 9 172 76 184 75 6 0 -19 -15 -55 -33z m236 -12 c-3
-9 -6 -20 -6 -24 0 -5 -9 -14 -20 -20 -24 -13 -110 -30 -110 -21 0 7 121 80
134 81 4 0 5 -7 2 -16z m-141 -30 c-32 -15 -68 -24 -99 -24 -64 0 -54 9 36 30
101 25 122 23 63 -6z m851 -19 c-11 -8 -41 -15 -67 -15 -25 0 -61 -3 -78 -6
-18 -4 -31 -2 -31 3 0 8 104 27 175 31 20 1 20 1 1 -13z m-1678 -72 c-10 -2
-26 -2 -35 0 -10 3 -2 5 17 5 19 0 27 -2 18 -5z m304 0 c-40 -2 -103 -2 -140
0 -37 2 -4 3 73 3 77 0 107 -2 67 -3z m-364 -80 c-15 -2 -42 -2 -60 0 -18 2
-6 4 27 4 33 0 48 -2 33 -4z m350 0 c-26 -2 -71 -2 -100 0 -29 2 -8 3 47 3 55
0 79 -1 53 -3z m155 0 c-7 -2 -21 -2 -30 0 -10 3 -4 5 12 5 17 0 24 -2 18 -5z
m1487 -8 c-85 -15 -221 -27 -204 -19 27 12 163 32 219 32 l60 -1 -75 -12z
m-1855 -25 c-27 -5 -68 -8 -90 -8 -38 0 -39 1 -10 8 17 4 57 8 90 7 l60 0 -50
-7z m445 1 c0 -6 -10 -17 -22 -25 -17 -12 -49 -16 -133 -16 -108 1 -109 1 -80
18 18 10 65 19 120 22 50 4 96 7 103 8 6 1 12 -2 12 -7z m210 5 c0 -2 -36 -9
-81 -16 -45 -6 -88 -14 -97 -17 -14 -5 -14 -3 2 15 17 19 30 22 98 22 43 0 78
-2 78 -4z m795 -17 c-40 -12 -172 -24 -163 -14 8 9 98 22 153 23 39 0 39 0 10
-9z m-340 -9 c-11 -5 -33 -8 -50 -8 -29 0 -29 0 -5 8 14 4 36 8 50 8 23 1 23
0 5 -8z m-990 -14 c-20 -9 -106 -15 -260 -19 -169 -4 -223 -2 -205 6 21 9 129
15 460 24 l35 1 -30 -12z m780 -27 c-53 -11 -199 -10 -165 1 14 4 66 8 115 8
73 0 83 -2 50 -9z m268 4 c-13 -2 -33 -2 -45 0 -13 2 -3 4 22 4 25 0 35 -2 23
-4z m1052 -3 c-80 -10 -379 -10 -340 0 17 4 113 8 215 7 129 0 167 -2 125 -7z
m-2350 -31 c-22 -4 -128 -7 -235 -7 -145 1 -173 3 -110 8 132 10 393 9 345 -1z
m788 -6 c-29 -2 -78 -2 -110 0 -32 2 -8 3 52 3 61 0 87 -1 58 -3z m1130 0
c-62 -2 -165 -2 -230 0 -65 1 -14 3 112 3 127 0 180 -2 118 -3z m-2301 -60
c-40 -2 -103 -2 -140 0 -37 2 -4 3 73 3 77 0 107 -2 67 -3z m576 0 c-26 -2
-71 -2 -100 0 -29 2 -8 3 47 3 55 0 79 -1 53 -3z m940 0 c-10 -2 -26 -2 -35 0
-10 3 -2 5 17 5 19 0 27 -2 18 -5z m230 0 c-32 -2 -84 -2 -115 0 -32 2 -6 3
57 3 63 0 89 -1 58 -3z m600 0 c-21 -2 -57 -2 -80 0 -24 2 -7 4 37 4 44 0 63
-2 43 -4z m294 -60 c-112 -2 -292 -2 -400 0 -108 1 -17 2 203 2 220 0 309 -1
197 -2z m406 -29 c-7 -7 -316 -36 -331 -31 -6 2 36 9 94 16 57 7 109 14 114
16 18 6 129 5 123 -1z m-3140 -11 c-10 -2 -28 -2 -40 0 -13 2 -5 4 17 4 22 1
32 -1 23 -4z m2652 -15 c-120 -18 -205 -18 -268 -1 -31 9 112 19 288 20 l105
1 -125 -20z m-2125 -23 c-32 -15 -69 -24 -103 -24 -74 -1 -57 15 31 29 39 6
79 13 87 15 36 7 32 2 -15 -20z m-407 -30 c-7 -7 -171 -36 -176 -31 -4 5 52
21 98 29 38 7 84 8 78 2z m247 -16 c41 -3 -63 -17 -160 -23 l-100 -6 85 19
c47 11 101 18 120 15 19 -2 44 -4 55 -5z m2324 -5 c2 -2 -63 -3 -145 -2 -109
1 -134 3 -94 8 52 7 230 2 239 -6z m-2867 -25 c-32 -15 -59 -19 -115 -17 l-72
3 105 16 c134 21 133 21 82 -2z m3485 -16 c-20 -2 -52 -2 -70 0 -17 2 0 4 38
4 39 0 53 -2 32 -4z m-3307 -78 c-317 -58 -470 -82 -458 -70 3 3 45 25 94 49
l89 45 200 -1 200 0 -125 -23z m-1 -29 c-16 -16 -126 -48 -184 -53 -102 -8
-72 8 58 33 126 25 132 26 126 20z m3281 -111 c0 -13 -20 -15 -122 -14 l-123
2 80 12 c118 18 165 18 165 0z m-3672 -12 c-42 -2 -114 -2 -160 0 -46 1 -11 3
77 3 88 0 125 -2 83 -3z m292 -43 c-152 -11 -289 -10 -265 0 11 5 99 8 195 8
166 -1 169 -2 70 -8z m3510 -1 c-64 -11 -120 -11 -120 1 0 6 33 9 83 9 74 -1
77 -2 37 -10z m93 -146 c-45 -2 -122 -2 -170 0 -48 1 -11 3 82 3 94 0 133 -2
88 -3z m225 -160 c-10 -2 -26 -2 -35 0 -10 3 -2 5 17 5 19 0 27 -2 18 -5z"/>
<path d="M4058 8323 c-38 -44 -47 -43 309 -43 l338 1 35 29 34 30 -350 0
c-322 0 -352 -1 -366 -17z"/>
<path d="M4000 8242 c-5 -2 -10 -8 -10 -13 0 -13 672 -7 677 6 3 9 -640 16
-667 7z"/>
<path d="M4147 8203 l-178 -3 -40 -63 -40 -62 78 -5 78 -5 -85 -9 c-81 -8 -87
-10 -103 -38 -10 -17 -16 -32 -14 -34 2 -3 137 -7 300 -11 278 -6 298 -5 317
12 11 10 20 22 20 26 0 5 -125 10 -277 12 l-278 2 286 3 287 2 15 24 c9 13 41
53 72 90 l56 66 -158 -2 c-87 -1 -238 -4 -336 -5z"/>
<path d="M8610 8062 c0 -5 10 -18 23 -30 22 -21 32 -22 243 -23 238 -1 235 -9
-11 -29 -182 -14 -179 -13 -163 -40 16 -25 42 -25 178 0 58 11 170 27 250 35
80 9 147 18 149 20 2 2 -7 20 -19 39 l-22 36 -314 0 c-173 0 -314 -4 -314 -8z"/>
<path d="M5435 7974 c-16 -8 -22 -12 -12 -9 10 3 82 6 160 7 118 1 131 2 77 8
-108 12 -193 10 -225 -6z"/>
<path d="M9174 7964 c-44 -7 -142 -27 -217 -44 -75 -16 -149 -30 -164 -30 -43
0 -56 -12 -39 -36 14 -18 27 -19 308 -15 161 2 295 5 296 6 2 2 0 11 -5 20 -9
15 -34 16 -214 16 -122 -1 -198 3 -189 8 8 5 80 21 160 36 80 15 155 29 168
31 26 5 20 25 -6 23 -9 -1 -53 -7 -98 -15z"/>
<path d="M5600 7925 c-85 -7 -182 -14 -216 -14 -54 -1 -63 -4 -90 -32 l-29
-31 90 5 c55 4 80 3 65 -2 -14 -5 -56 -10 -95 -10 -65 -2 -72 -4 -101 -34 -39
-41 -74 -87 -74 -98 0 -5 48 -10 108 -11 l107 -3 -123 -14 c-99 -12 -125 -18
-133 -33 -9 -17 4 -18 268 -19 153 -1 265 -5 248 -9 -16 -4 -144 -8 -282 -9
l-253 -1 -15 -36 c-8 -20 -15 -38 -15 -40 0 -1 15 -5 33 -7 l32 -4 -35 -1
c-31 -2 -38 -7 -48 -35 -18 -51 -15 -75 11 -80 19 -4 19 -4 -5 -6 -23 -1 -27
-7 -33 -42 -4 -22 -5 -42 -3 -45 3 -2 27 1 54 7 30 7 223 13 507 16 251 3 457
9 457 13 0 5 -4 11 -8 14 -9 5 -180 21 -412 36 -91 6 -176 14 -190 16 -24 5
-24 6 -5 17 14 8 109 13 298 15 242 3 278 6 273 19 -3 8 -6 19 -6 24 0 5 -33
10 -72 11 l-73 1 63 6 c34 3 63 8 65 11 1 3 -4 24 -12 48 -13 38 -17 42 -50
44 l-36 1 33 4 c36 5 36 6 22 34 -10 18 -24 19 -263 20 -244 1 -249 2 -172 14
44 8 155 14 248 14 92 1 167 3 167 6 0 3 -7 21 -14 40 l-15 35 -307 0 c-169 0
-304 3 -301 7 20 20 160 32 370 33 150 0 226 3 222 10 -3 6 -58 11 -123 12
l-117 1 110 10 c61 5 111 11 113 12 1 1 0 10 -4 19 -5 12 -21 16 -73 18 l-66
2 58 3 c40 3 57 8 54 16 -5 16 -27 16 -207 2z m-177 -422 c-23 -2 -64 -2 -90
0 -26 2 -7 3 42 3 50 0 71 -1 48 -3z m-215 -60 c-27 -2 -69 -2 -95 0 -27 2 -5
3 47 3 52 0 74 -1 48 -3z m199 -60 c-20 -2 -52 -2 -70 0 -17 2 0 4 38 4 39 0
53 -2 32 -4z"/>
<path d="M4327 7914 c-4 -4 -127 -9 -273 -13 -196 -4 -268 -9 -271 -18 -3 -9
20 -13 84 -16 l88 -3 -92 -2 -93 -2 -30 -66 c-16 -37 -30 -68 -30 -70 0 -2
130 -4 289 -4 l289 0 16 25 c9 13 16 27 16 30 0 3 -109 5 -242 5 -133 0 -239
3 -235 6 14 14 222 34 359 34 l148 0 23 38 c13 20 27 43 31 50 5 9 -3 12 -32
12 -21 0 -42 -3 -45 -6z"/>
<path d="M8818 7750 l17 -30 210 -2 210 -3 -120 -12 c-74 -7 -124 -8 -129 -2
-10 9 -156 13 -156 4 0 -2 7 -23 16 -45 l16 -40 96 0 c52 0 93 -2 91 -4 -2 -2
-37 -9 -77 -14 -41 -6 -76 -13 -78 -15 -3 -2 1 -16 7 -31 10 -21 20 -26 48
-27 20 -1 27 -3 16 -6 -40 -9 -48 -14 -39 -23 5 -5 71 1 164 16 85 13 205 27
266 30 102 6 111 9 107 25 -5 17 -14 19 -107 14 l-101 -5 87 18 c47 9 89 20
93 24 4 3 4 16 0 27 -5 16 -15 21 -43 22 -30 2 -32 3 -9 6 32 5 32 5 11 60
l-17 43 -298 0 -298 0 17 -30z m250 -217 c-10 -2 -28 -2 -40 0 -13 2 -5 4 17
4 22 1 32 -1 23 -4z"/>
<path d="M3676 7654 c-3 -9 -6 -18 -6 -20 0 -2 130 -4 289 -4 254 0 290 2 295
16 3 9 6 18 6 20 0 2 -130 4 -289 4 -254 0 -290 -2 -295 -16z"/>
<path d="M3649 7583 c-22 -58 -79 -227 -79 -235 0 -4 55 -8 122 -8 67 0 119
-2 117 -5 -3 -2 -50 -9 -105 -15 -156 -16 -153 -14 -169 -104 l-7 -36 193 -3
194 -2 -196 -3 c-209 -2 -209 -2 -209 -52 0 -17 15 -17 268 -12 147 2 268 6
270 7 3 3 32 114 32 125 0 6 -83 11 -202 12 l-203 2 210 6 c133 3 209 9 207
15 -1 6 -31 9 -70 8 -80 -3 -59 12 30 22 52 6 57 9 67 37 6 17 11 33 11 34 0
2 -98 5 -217 6 l-218 1 223 11 222 11 45 100 c25 55 45 101 45 102 0 2 -128 3
-285 3 l-285 0 -11 -27z m449 -60 c-27 -2 -69 -2 -95 0 -27 2 -5 3 47 3 52 0
74 -1 48 -3z m-35 -190 c-7 -2 -19 -2 -25 0 -7 3 -2 5 12 5 14 0 19 -2 13 -5z
m-60 -10 c-13 -2 -33 -2 -45 0 -13 2 -3 4 22 4 25 0 35 -2 23 -4z m-108 -14
c-22 -4 -53 -7 -70 -7 -26 1 -24 2 10 8 22 4 54 7 70 7 25 1 23 -1 -10 -8z
m-127 -16 c-10 -2 -28 -2 -40 0 -13 2 -5 4 17 4 22 1 32 -1 23 -4z"/>
<path d="M8960 7465 c0 -9 10 -16 28 -16 22 -1 23 -2 5 -6 -14 -3 -20 -9 -16
-19 8 -22 553 -21 553 1 0 13 -35 15 -242 17 l-243 3 238 2 c201 3 237 6 237
18 0 13 -39 15 -280 15 -242 0 -280 -2 -280 -15z"/>
<path d="M9265 7348 c-132 -16 -241 -31 -243 -33 -2 -2 3 -23 11 -47 l15 -43
271 -3 c237 -2 271 0 271 13 0 13 -28 15 -187 17 l-188 3 183 2 c186 4 196 6
173 42 -7 11 -46 12 -207 7 -229 -6 -222 4 20 31 104 12 161 23 164 31 5 16 3
16 -283 -20z"/>
<path d="M5083 7282 c-40 -1 -73 -7 -73 -12 0 -6 157 -11 408 -12 l407 -3
-410 -5 -410 -5 -2 -50 c-2 -27 5 -88 15 -135 l17 -85 220 -5 220 -5 -130 -8
c-283 -17 -304 -19 -298 -33 3 -10 26 -15 72 -16 l66 -2 -62 -3 c-49 -3 -63
-7 -63 -20 0 -13 10 -15 62 -10 68 6 60 -6 -10 -18 -35 -6 -42 -10 -37 -23 4
-10 12 -29 17 -44 9 -24 16 -28 51 -29 l42 -1 -38 -12 c-34 -11 -36 -13 -24
-30 13 -18 25 -19 153 -13 85 4 131 3 119 -3 -11 -5 -73 -9 -138 -9 -136 -1
-132 5 -73 -99 l32 -57 342 -3 c188 -1 342 0 342 3 0 3 -19 39 -42 80 l-43 75
-55 1 c-30 1 -41 4 -25 6 62 7 75 13 75 33 0 17 -9 20 -77 23 l-78 3 76 2 76
2 43 51 43 51 -114 -6 c-302 -15 -374 -17 -368 -12 13 14 250 36 376 36 77 0
134 4 138 10 4 6 -8 11 -27 11 -30 1 -29 2 10 8 23 4 48 13 54 19 9 9 -1 12
-42 13 l-55 1 60 10 c55 9 105 37 105 60 0 4 -217 9 -482 11 l-483 2 487 3
487 2 15 22 c9 12 16 26 16 30 0 5 -48 9 -107 10 l-108 2 115 5 115 6 3 40 c2
22 -5 64 -14 93 l-18 53 -451 -3 c-247 -1 -483 -4 -522 -6z m880 -69 c-29 -2
-78 -2 -110 0 -32 2 -8 3 52 3 61 0 87 -1 58 -3z m-245 -40 c-21 -2 -57 -2
-80 0 -24 2 -7 4 37 4 44 0 63 -2 43 -4z m-110 -270 c-21 -2 -57 -2 -80 0 -24
2 -7 4 37 4 44 0 63 -2 43 -4z m-253 -33 c-16 -4 -43 -8 -60 -8 l-30 0 30 8
c17 4 44 8 60 8 l30 0 -30 -8z m80 -130 c39 -6 23 -7 -70 -7 -79 0 -106 2 -80
7 54 10 90 10 150 0z m167 -87 c-40 -2 -103 -2 -140 0 -37 2 -4 3 73 3 77 0
107 -2 67 -3z"/>
<path d="M9056 7195 c5 -12 32 -15 153 -16 162 -1 146 -13 -36 -25 -57 -4
-103 -10 -103 -13 1 -23 33 -26 278 -23 216 3 262 6 262 17 0 11 -21 15 -87
17 -90 3 -83 9 30 23 31 4 47 11 47 21 0 12 -42 14 -275 14 -240 0 -274 -2
-269 -15z"/>
<path d="M9520 7103 c-19 -2 -99 -10 -178 -18 -78 -8 -167 -15 -198 -15 -54 0
-56 -1 -50 -22 3 -13 11 -49 17 -81 10 -48 15 -57 28 -51 9 5 126 10 261 13
l245 6 -2 30 c-1 17 -7 56 -14 88 -13 63 -8 60 -109 50z"/>
<path d="M3830 7090 c-107 -4 -225 -8 -262 -9 -53 -1 -68 -4 -68 -16 0 -13 33
-15 228 -17 196 -1 212 -2 117 -8 -60 -4 -159 -8 -220 -9 -118 -1 -131 -5
-137 -36 -3 -19 4 -20 147 -25 l150 -6 -152 -2 -153 -2 0 -25 0 -25 263 2
c254 3 262 4 264 23 1 11 7 38 12 60 21 94 23 105 15 103 -5 -1 -97 -5 -204
-8z"/>
<path d="M3470 6890 c0 -6 76 -10 208 -11 119 -1 196 -4 182 -9 -14 -4 -107
-8 -207 -9 -208 -1 -187 9 -197 -98 l-4 -53 56 1 c31 0 149 6 262 12 l204 12
7 25 c12 43 10 90 -3 90 -7 0 -5 5 5 11 9 5 17 17 17 24 0 13 -40 15 -265 15
-170 0 -265 -4 -265 -10z m373 -137 c-23 -2 -64 -2 -90 0 -26 2 -7 3 42 3 50
0 71 -1 48 -3z m-185 -10 c-10 -2 -28 -2 -40 0 -13 2 -5 4 17 4 22 1 32 -1 23
-4z"/>
<path d="M9545 6889 c-33 -4 -140 -13 -237 -20 -131 -9 -178 -16 -178 -25 0
-7 4 -15 8 -18 5 -3 7 -19 4 -36 l-4 -30 113 -2 114 -2 -107 -3 -108 -4 0 -39
0 -40 265 0 265 0 0 24 c0 13 -3 44 -6 69 -6 40 -10 46 -33 50 -26 4 -26 4 3
6 21 1 27 5 22 17 -3 9 -6 18 -6 20 0 2 -17 4 -37 5 -39 1 -38 3 10 13 15 4
27 11 27 16 0 11 -26 11 -115 -1z"/>
<path d="M3450 6640 c0 -6 48 -10 123 -11 144 -2 115 -16 -35 -18 -67 -1 -98
-5 -98 -12 0 -9 43 -10 163 -6 210 7 367 26 367 44 0 10 -52 13 -260 13 -167
0 -260 -4 -260 -10z"/>
<path d="M9156 6634 c-9 -23 -8 -24 17 -25 16 -1 18 -2 5 -6 -16 -4 -18 -19
-18 -134 l0 -129 260 0 c167 0 260 4 260 10 0 6 -78 10 -212 11 -123 1 -202 4
-188 9 14 4 112 8 218 9 121 1 192 5 192 11 0 6 -21 11 -47 12 l-48 1 45 6
c40 5 45 9 45 31 0 20 -6 26 -30 31 l-30 6 30 4 c18 2 31 11 33 21 3 15 -9 18
-110 21 l-113 3 113 2 113 2 -3 33 c-3 27 -7 32 -28 30 -207 -13 -294 -14
-285 -5 6 6 76 14 158 18 134 6 147 9 147 25 0 18 -13 19 -259 19 -227 0 -260
-2 -265 -16z m284 -165 c-67 -11 -189 -11 -170 1 8 5 60 9 115 9 83 -1 92 -3
55 -10z"/>
<path d="M3800 6580 c-85 -15 -201 -33 -257 -40 l-102 -12 2 -57 c1 -31 5 -55
10 -53 4 1 122 2 262 2 248 0 255 1 255 20 0 18 -7 20 -77 22 l-78 2 74 5 c46
4 76 11 79 19 3 9 -45 12 -215 13 -197 2 -209 3 -123 11 52 5 148 12 213 16
70 4 116 11 115 17 -2 6 -28 9 -63 7 -73 -5 -67 6 11 22 32 6 59 17 62 24 2 6
0 12 -5 11 -4 -1 -78 -13 -163 -29z"/>
<path d="M5230 6515 c0 -2 12 -25 27 -50 26 -42 30 -45 72 -45 33 0 49 -6 65
-23 12 -13 44 -32 72 -42 78 -29 74 -35 -20 -35 -66 0 -87 -3 -84 -12 3 -7 17
-14 31 -16 28 -3 38 -22 12 -22 -20 0 -19 -13 3 -33 10 -10 41 -17 77 -20 l60
-3 -57 -2 c-32 -1 -58 -6 -58 -10 0 -25 31 -32 155 -33 144 -2 141 -6 -13 -17
l-104 -7 37 -47 36 -48 97 -2 c53 0 81 -3 62 -5 -19 -1 -59 -6 -88 -9 l-52 -5
21 -30 c11 -16 26 -29 34 -29 7 0 15 -7 19 -15 4 -12 26 -15 103 -16 140 -2
180 -13 79 -22 -43 -4 -97 -7 -118 -7 -27 0 -38 -4 -36 -12 3 -9 39 -15 114
-18 l109 -5 -65 -7 c-36 -5 -78 -9 -95 -10 -29 -3 -28 -5 79 -115 71 -74 116
-113 130 -113 17 0 18 -2 6 -10 -31 -19 20 -22 136 -6 87 12 199 16 447 16
181 0 328 -2 326 -4 -3 -3 -65 -10 -139 -16 -74 -6 -229 -25 -344 -41 -115
-16 -241 -29 -280 -29 l-71 -1 45 -39 45 -39 207 -1 c124 0 209 -4 213 -10 4
-6 -66 -11 -192 -12 l-198 -3 55 -37 55 -38 225 -2 225 -2 -214 -6 -214 -5 65
-42 66 -43 278 0 277 0 -23 -25 -23 -25 -206 0 c-137 0 -201 -4 -191 -10 8 -5
95 -10 193 -10 116 0 176 -3 172 -10 -4 -6 -66 -10 -153 -10 -180 0 -177 -19
3 -22 l120 -2 -95 -5 -95 -6 40 -18 c22 -10 49 -19 60 -20 11 -1 25 -7 30 -13
6 -7 75 -38 155 -70 l145 -58 190 -6 190 -5 -105 -14 c-110 -15 -113 -23 -9
-36 116 -14 392 51 479 113 14 9 42 26 63 37 20 11 37 23 37 27 0 5 -28 9 -62
9 l-63 2 85 9 c54 6 92 16 104 26 17 16 13 17 -75 23 l-94 5 99 2 c93 2 102 4
128 29 15 15 28 30 28 35 0 4 -28 8 -62 8 -79 0 -72 8 10 11 34 1 67 8 72 14
15 18 70 185 70 212 l0 23 -522 1 c-374 1 -513 4 -488 11 20 6 241 13 524 17
l489 6 9 24 8 24 -242 -7 c-133 -4 -240 -5 -238 -3 3 3 106 15 230 27 124 12
230 23 237 25 9 3 10 12 2 35 -11 31 -80 78 -194 131 -27 13 -52 27 -55 30 -3
4 -50 31 -105 60 -55 29 -115 60 -134 70 -27 15 -48 17 -120 12 -98 -7 -105 9
-8 18 l62 5 -90 43 c-119 57 -152 58 -205 6 -37 -36 -54 -65 -30 -50 6 3 10 1
10 -4 0 -6 -7 -11 -16 -11 -9 0 -30 -15 -46 -32 l-31 -33 29 -6 29 -7 -33 -1
c-24 -1 -43 -10 -64 -33 l-31 -33 29 -6 c28 -6 27 -7 -7 -8 -31 -1 -43 -9 -84
-56 -49 -58 -89 -85 -125 -85 -25 0 -289 130 -374 185 -54 35 -62 37 -110 30
-57 -7 -59 1 -2 12 l37 8 -51 38 -51 38 -82 -5 c-55 -4 -75 -3 -62 3 11 5 45
10 75 11 l55 1 -28 24 c-15 14 -38 25 -50 26 -12 0 -17 3 -10 5 6 3 -28 45
-76 95 l-88 89 -189 2 -189 2 182 6 182 5 -25 33 c-19 24 -33 32 -57 32 -30 1
-31 2 -13 15 10 8 15 19 11 26 -6 9 -43 10 -144 6 -145 -7 -150 2 -11 22 131
20 126 13 75 84 -25 33 -45 65 -45 69 0 4 -155 8 -345 8 -190 0 -345 -2 -345
-5z m365 -105 c3 -5 34 -10 68 -10 34 -1 84 -7 111 -14 l49 -13 -93 -17 c-58
-12 -110 -16 -140 -12 -55 7 -163 49 -168 65 -5 14 164 15 173 1z m380 -110
c-7 -11 -65 -11 -110 0 -23 6 -12 8 43 9 47 1 71 -3 67 -9z m-282 -7 c-23 -2
-64 -2 -90 0 -26 2 -7 3 42 3 50 0 71 -1 48 -3z m462 -133 c-3 -5 -39 -9 -78
-8 -71 1 -71 1 -22 8 80 11 107 11 100 0z m-15 -125 c-63 -8 -171 -13 -240
-13 l-125 1 75 12 c41 7 149 12 240 13 l165 0 -115 -13z m1278 -12 c-10 -2
-26 -2 -35 0 -10 3 -2 5 17 5 19 0 27 -2 18 -5z m-1218 -63 c-17 -11 -169 -11
-370 -1 -122 7 -109 8 125 9 171 1 255 -2 245 -8z m1185 0 c-3 -5 -15 -10 -26
-10 -11 0 -17 5 -14 10 3 6 15 10 26 10 11 0 17 -4 14 -10z m-1205 -90 c-83
-12 -152 -12 -145 0 4 6 48 9 103 9 89 -2 92 -2 42 -9z m1545 0 c-27 -5 -63
-8 -80 -8 -29 0 -29 0 -5 8 14 4 50 8 80 8 l55 -1 -50 -7z m-1827 -37 c-16 -2
-40 -2 -55 0 -16 2 -3 4 27 4 30 0 43 -2 28 -4z m1770 -208 c-6 -7 -396 -35
-453 -33 -23 0 8 8 75 18 105 16 391 27 378 15z m-668 -31 c-225 -34 -426 -54
-532 -53 l-93 1 85 14 c98 16 571 61 645 62 30 0 -13 -10 -105 -24z m993 19
c-7 -2 -21 -2 -30 0 -10 3 -4 5 12 5 17 0 24 -2 18 -5z m-123 -14 c-368 -48
-738 -74 -715 -50 10 10 594 58 715 58 l65 0 -65 -8z m-740 -49 c0 -6 -33 -9
-82 -8 l-83 2 75 6 c41 4 78 7 83 8 4 1 7 -2 7 -8z m-635 -60 c4 -7 -57 -9
-177 -8 -145 1 -165 3 -98 8 144 11 268 11 275 0z m420 0 c-46 -12 -385 -12
-385 0 0 6 75 10 208 9 117 -1 194 -5 177 -9z m165 -40 c0 -6 -52 -10 -137 -9
-88 1 -125 4 -103 9 55 12 240 12 240 0z m445 0 c-237 -11 -415 -11 -415 0 0
6 100 9 283 8 257 -1 269 -2 132 -8z m-530 -137 c-6 -5 -95 -6 -200 -3 l-190
6 200 2 c109 1 195 -1 190 -5z m930 -8 c-145 -15 -475 -18 -728 -8 -325 12
-160 23 346 22 483 -2 505 -2 382 -14z m-282 -52 c109 -3 195 -8 193 -10 -2
-2 -62 -11 -132 -18 -85 -10 -237 -15 -442 -15 l-313 0 18 25 18 24 231 1
c127 0 319 -3 427 -7z m-373 -73 c-84 -12 -350 -12 -350 0 0 6 73 9 203 9 139
-1 185 -4 147 -9z m615 0 c-101 -11 -294 -11 -270 0 11 5 92 8 180 8 127 -1
146 -3 90 -8z m-932 -37 c-13 -2 -35 -2 -50 0 -16 2 -5 4 22 4 28 0 40 -2 28
-4z m565 0 c-27 -2 -69 -2 -95 0 -27 2 -5 3 47 3 52 0 74 -1 48 -3z m-578 -43
c-19 -4 -55 -10 -80 -14 -41 -5 -43 -5 -26 9 13 10 41 15 80 14 54 -1 57 -2
26 -9z m715 -5 c-55 -7 -172 -13 -260 -13 l-160 1 100 12 c55 7 172 12 260 12
l160 0 -100 -12z"/>
<path d="M3920 6389 c-19 -4 -91 -13 -159 -19 -116 -11 -232 -5 -304 16 -15 5
-17 0 -15 -38 l3 -43 225 -6 c124 -3 227 -6 230 -8 3 -1 -6 -7 -20 -12 -16 -7
-98 -8 -227 -3 l-203 7 0 -51 c0 -87 -13 -82 207 -82 127 0 192 -3 188 -10 -4
-6 -80 -10 -196 -10 -119 0 -189 -4 -189 -10 0 -6 72 -11 193 -12 l192 -2
-188 -6 c-103 -3 -187 -8 -187 -12 0 -5 0 -15 0 -23 0 -13 27 -15 173 -17
l172 -2 -165 -3 c-90 -2 -168 -7 -173 -12 -5 -5 -5 -25 -2 -45 7 -33 10 -36
44 -38 l36 -1 -32 -4 c-29 -4 -33 -8 -33 -34 l0 -29 130 0 c80 0 130 -4 130
-10 0 -6 -48 -10 -125 -10 -77 0 -125 -4 -125 -10 0 -6 38 -10 93 -11 105 -1
104 -6 -3 -17 -57 -5 -75 -11 -74 -22 3 -24 14 -81 26 -127 l10 -42 92 -3 91
-3 -87 -14 c-80 -12 -97 -19 -83 -32 2 -3 58 3 122 13 93 14 134 16 193 8 137
-17 230 -19 230 -3 0 10 -19 13 -79 13 -44 0 -83 5 -86 10 -4 6 23 10 74 10
45 0 81 1 81 3 0 1 -9 27 -19 57 l-18 55 -154 5 -154 6 150 4 c198 7 199 24 3
28 -120 2 -146 5 -142 16 4 10 45 18 140 27 177 17 177 35 1 30 -90 -2 -127 0
-127 8 0 7 39 11 126 11 96 0 125 3 122 13 -3 8 -39 13 -122 15 -87 2 -116 6
-113 15 2 8 42 15 111 21 l107 9 -6 41 c-3 22 -7 50 -9 61 -3 11 -5 25 -5 32
-1 8 -25 13 -68 16 l-68 3 68 2 c80 2 91 22 12 22 -30 0 -55 5 -55 10 0 6 23
10 50 10 43 0 50 3 50 20 0 15 -7 20 -27 21 l-28 1 25 7 c20 6 25 13 24 37 -5
103 -9 156 -14 158 -3 2 -21 -1 -40 -5z m-7 -56 c-24 -2 -62 -2 -85 0 -24 2
-5 4 42 4 47 0 66 -2 43 -4z m24 -290 c-20 -2 -52 -2 -70 0 -17 2 0 4 38 4 39
0 53 -2 32 -4z m-190 -60 c-20 -2 -52 -2 -70 0 -17 2 0 4 38 4 39 0 53 -2 32
-4z m170 0 c-20 -2 -52 -2 -70 0 -17 2 0 4 38 4 39 0 53 -2 32 -4z m-152 -63
c-3 -6 -42 -9 -88 -8 -75 1 -78 2 -32 8 80 11 127 11 120 0z m-25 -120 c0 -6
-35 -9 -87 -8 -82 1 -84 2 -33 8 88 11 120 11 120 0z m-52 -47 c-27 -2 -69 -2
-95 0 -27 2 -5 3 47 3 52 0 74 -1 48 -3z"/>
<path d="M9157 6303 c-2 -5 -5 -36 -6 -70 l-2 -63 88 -1 c103 -1 78 -16 -29
-18 -53 -1 -68 -4 -68 -16 0 -11 13 -15 48 -16 l47 -2 -40 -6 c-55 -9 -65 -17
-65 -52 0 -28 2 -29 48 -31 l47 -1 -49 -6 -49 -6 -13 -50 c-24 -91 -33 -85
134 -87 l147 -1 -153 -10 -152 -9 -6 -27 c-3 -14 -16 -63 -30 -107 -13 -45
-24 -85 -24 -88 0 -3 89 -6 197 -6 108 0 193 -3 190 -7 -4 -3 -95 -10 -203
-14 -187 -7 -216 -11 -201 -26 10 -9 540 16 550 26 8 8 47 146 47 169 0 9 -53
13 -227 14 l-228 2 229 6 230 5 13 50 c7 28 13 62 13 77 l0 28 -222 3 -223 2
228 3 227 2 0 25 0 25 -147 2 -148 2 149 6 c171 6 157 -4 169 118 l7 62 -183
1 c-132 2 -166 4 -122 9 33 4 115 8 183 9 l122 1 0 40 0 40 -259 0 c-143 0
-262 -3 -264 -7z m271 -200 c-15 -2 -42 -2 -60 0 -18 2 -6 4 27 4 33 0 48 -2
33 -4z"/>
<path d="M3584 5524 c3 -8 6 -20 6 -25 0 -5 21 -10 48 -10 47 -2 47 -2 9 -8
-41 -7 -42 -7 -32 -51 l7 -30 211 -2 212 -3 -207 -2 c-132 -2 -208 -7 -208
-14 0 -14 7 -16 190 -48 113 -19 157 -30 140 -35 -37 -10 -221 -36 -252 -36
-20 0 -26 -4 -22 -15 7 -17 26 -15 252 22 132 22 162 24 229 15 43 -6 79 -9
81 -7 10 10 -12 25 -36 26 l-27 0 24 10 c46 18 9 29 -56 18 -45 -8 -86 -8
-150 0 -166 22 -163 26 23 31 l182 5 -31 68 -30 68 -96 -5 c-53 -4 -121 -2
-151 3 -46 7 -31 9 93 10 114 1 148 4 145 14 -4 9 -71 13 -282 15 -252 2 -278
1 -272 -14z m470 -73 c5 -8 -295 -4 -319 4 -5 2 63 4 152 4 89 1 164 -3 167
-8z"/>
<path d="M8990 5524 c0 -15 21 -16 232 -12 127 3 225 2 217 -2 -8 -5 -114 -13
-237 -19 -122 -5 -227 -13 -232 -16 -6 -3 -10 -13 -10 -21 0 -12 43 -14 278
-14 l279 0 11 39 c7 21 12 43 12 50 0 8 -77 11 -275 11 -249 0 -275 -2 -275
-16z"/>
<path d="M8927 5378 l-23 -53 90 -4 91 -4 -99 -12 c-114 -14 -146 -36 -68 -46
l47 -6 -47 -1 c-44 -2 -49 -5 -78 -46 -16 -25 -30 -48 -30 -51 0 -4 -10 -21
-22 -38 l-22 -30 25 8 c13 5 105 10 204 11 230 3 185 -14 -60 -23 l-171 -6
-34 -51 c-19 -28 -36 -54 -38 -58 -2 -5 135 -8 305 -8 l309 0 25 52 c13 29 25
56 27 60 2 4 -18 9 -45 11 l-48 3 52 2 c51 2 53 3 72 42 l19 40 -86 1 c-98 0
-88 13 20 24 72 8 78 10 96 42 17 32 17 33 -30 33 -24 0 -68 3 -98 7 l-55 6
50 18 c28 10 76 18 107 18 l57 1 21 46 c11 26 20 50 20 55 0 5 -126 9 -280 9
l-280 0 -23 -52z m421 -25 c-16 -2 -40 -2 -55 0 -16 2 -3 4 27 4 30 0 43 -2
28 -4z m-138 -58 c-19 -7 -64 -13 -100 -13 l-65 1 80 12 c106 17 128 17 85 0z
m209 -60 c-13 -12 -375 -55 -415 -49 -25 3 -43 8 -42 10 9 8 163 27 273 34
170 10 189 11 184 5z m-239 -94 c35 -7 17 -9 -78 -10 -80 -1 -121 3 -117 9 7
12 130 12 195 1z"/>
<path d="M3706 5196 c6 -16 87 -23 386 -32 l218 -7 -13 26 -12 27 -292 0
c-243 0 -291 -2 -287 -14z"/>
<path d="M3742 5128 c6 -16 598 -24 598 -9 0 18 -38 21 -317 21 -223 0 -284
-3 -281 -12z"/>
<path d="M3790 5025 c10 -13 51 -15 251 -15 148 0 240 -4 244 -10 4 -7 -76
-10 -234 -10 l-241 0 12 -25 11 -25 221 -1 c146 -1 204 -4 171 -9 -27 -5 -124
-9 -215 -9 -220 -1 -200 -20 25 -23 l170 -3 -144 -18 c-79 -10 -149 -21 -155
-23 -7 -3 -19 -21 -27 -42 -7 -20 -15 -39 -16 -42 -2 -3 23 -6 55 -6 31 -1
147 -13 257 -28 186 -25 201 -25 212 -10 16 23 7 36 -16 22 -13 -8 -52 -6
-157 8 -160 21 -150 27 69 39 125 7 129 8 138 33 5 13 7 27 5 30 -6 5 -436
-25 -496 -35 -19 -3 -32 -3 -29 1 4 4 76 16 160 27 210 27 380 56 392 68 7 7
-2 29 -26 66 l-37 55 -306 0 c-271 0 -305 -2 -294 -15z"/>
<path d="M8941 4913 c-207 -3 -288 -7 -299 -16 -13 -10 -4 -13 49 -18 l64 -6
-66 -1 c-45 -1 -71 -7 -79 -17 -11 -13 -5 -15 41 -16 l54 -1 -59 -9 c-60 -9
-88 -26 -126 -79 l-18 -25 257 1 c162 1 232 -1 191 -6 -36 -4 -155 -8 -266 -9
l-200 -1 -29 -30 -29 -30 342 0 341 0 31 44 c16 25 30 47 30 50 0 3 -62 6
-137 7 -85 1 -128 4 -113 9 14 4 80 8 146 9 l121 1 27 41 c15 22 26 42 24 43
-2 2 -86 -7 -188 -19 -173 -21 -404 -39 -370 -30 29 9 515 75 547 75 22 0 36
6 43 20 10 18 8 20 -17 18 -15 -2 -156 -4 -312 -5z m-198 -70 c-7 -2 -19 -2
-25 0 -7 3 -2 5 12 5 14 0 19 -2 13 -5z"/>
<path d="M3862 4673 c-24 -3 -36 -11 -43 -29 -19 -53 -17 -54 100 -54 88 0
110 -3 115 -15 5 -13 -13 -15 -119 -15 -77 0 -125 -4 -125 -10 0 -6 96 -10
269 -10 l269 0 21 62 c12 34 21 66 21 70 0 8 -444 9 -508 1z"/>
<path d="M8355 4580 l-39 -40 44 -1 c35 0 40 -2 25 -9 -11 -5 -36 -9 -56 -9
-19 -1 -44 -8 -55 -16 -24 -19 -26 -19 179 4 222 25 354 35 346 27 -4 -4 -119
-18 -255 -32 -308 -30 -306 -30 -340 -57 l-29 -22 275 -5 275 -5 -286 -3
c-239 -2 -289 -4 -299 -17 -11 -13 26 -15 306 -18 l319 -2 -328 -3 -328 -2
-47 -32 c-26 -17 -49 -34 -52 -38 -3 -3 -43 -28 -89 -56 l-85 -49 250 -5 c176
-4 209 -6 112 -8 -78 -1 -139 -6 -143 -12 -4 -6 -63 -10 -144 -10 l-137 0 -79
-39 -80 -40 425 -2 c247 -1 404 -5 375 -9 -27 -5 -230 -9 -450 -9 -220 -1
-410 -4 -422 -7 -56 -15 -11 -24 135 -27 l157 -3 -183 -2 c-159 -2 -193 -5
-253 -24 -51 -17 -69 -27 -69 -40 0 -17 31 -18 544 -18 471 0 545 2 556 15 11
13 -43 15 -471 17 -572 2 -524 14 91 23 429 6 557 16 345 25 l-120 6 125 2
125 2 40 33 39 32 -414 5 -415 5 423 3 424 2 56 55 57 55 -397 -2 c-218 -2
-394 0 -390 3 19 18 207 29 502 29 l326 0 88 98 87 97 -38 6 -38 6 48 2 c28 0
47 6 47 12 0 9 -59 10 -227 5 -126 -4 -226 -5 -223 -3 3 3 113 15 245 27 l240
22 37 42 c21 22 38 44 38 49 0 4 -154 7 -343 7 l-343 0 -39 -40z m-187 -287
c-26 -2 -71 -2 -100 0 -29 2 -8 3 47 3 55 0 79 -1 53 -3z m435 0 c-35 -2 -91
-2 -125 0 -35 2 -7 3 62 3 69 0 97 -1 63 -3z"/>
<path d="M3775 4510 c-4 -7 88 -10 269 -10 177 0 276 4 276 10 0 6 -96 10
-269 10 -169 0 -272 -4 -276 -10z"/>
<path d="M3767 4483 c-2 -5 -7 -20 -11 -35 -5 -24 -3 -27 26 -31 l33 -4 -37
-1 c-31 -2 -38 -6 -47 -33 -6 -18 -11 -34 -11 -35 0 -2 102 -5 228 -5 l227 -1
-109 -18 c-60 -10 -112 -23 -115 -29 -4 -6 -59 -12 -131 -13 l-123 -3 -10 -28
c-5 -16 -7 -29 -6 -31 2 -1 85 2 184 6 99 5 203 7 230 6 l50 -3 -40 -13 c-25
-9 -113 -16 -238 -19 l-198 -6 -10 -25 c-5 -14 -8 -33 -7 -41 2 -9 -3 -21 -12
-28 -13 -11 -12 -12 5 -12 11 0 38 5 60 11 22 6 139 14 260 17 l220 6 32 95
c38 116 38 118 11 123 -21 4 -21 4 3 6 24 1 49 33 49 61 0 5 -30 11 -67 13
l-68 3 70 2 c68 2 71 3 82 31 6 17 8 32 5 35 -8 9 -530 7 -535 -1z m366 -190
c-7 -2 -21 -2 -30 0 -10 3 -4 5 12 5 17 0 24 -2 18 -5z m15 -130 c-21 -2 -57
-2 -80 0 -24 2 -7 4 37 4 44 0 63 -2 43 -4z"/>
<path d="M4975 4240 l-140 -49 70 -1 c108 -2 47 -21 -95 -30 -93 -6 -135 -14
-220 -43 l-105 -36 53 0 c31 -1 52 -5 52 -12 0 -8 -23 -10 -77 -7 -71 5 -143
-6 -143 -22 0 -4 -18 -10 -40 -14 -22 -3 -74 -17 -116 -30 l-76 -24 6 24 6 24
-92 1 c-61 0 -86 3 -73 9 11 5 54 9 97 9 76 1 76 1 87 32 l11 32 -58 -6 c-31
-4 -142 -11 -247 -17 -214 -12 -255 -17 -255 -30 0 -5 26 -10 58 -12 l57 -3
-62 -9 c-34 -5 -64 -14 -67 -21 -4 -10 25 -12 139 -8 122 5 146 3 166 -11 23
-15 21 -16 -54 -17 -42 -1 -81 -3 -87 -4 -5 -1 -48 -3 -94 -4 l-84 -1 -11 -31
-11 -32 48 7 c26 4 83 9 127 11 71 4 75 3 35 -6 -25 -5 -83 -13 -130 -17 l-85
-7 -11 -35 c-11 -34 -11 -35 15 -39 l26 -4 -29 -6 c-30 -6 -43 -34 -92 -183
-5 -16 3 -18 68 -19 87 -1 66 -17 -23 -18 -42 -1 -58 -5 -63 -17 -10 -27 -7
-29 42 -27 l47 2 -52 -11 -51 -11 -25 -76 c-14 -42 -29 -84 -32 -93 -6 -16 1
-18 74 -18 45 0 81 -4 81 -8 0 -5 -46 -33 -102 -63 -59 -30 -104 -61 -106 -71
-2 -13 2 -15 20 -10 13 3 28 11 33 17 6 7 46 32 89 55 74 40 84 40 48 -2 -11
-13 -12 -18 -3 -18 7 0 34 23 61 50 l48 50 104 1 c74 0 117 6 153 19 l50 18
-100 3 -100 2 135 7 c125 6 146 10 280 54 80 26 147 49 149 52 2 2 -184 4
-415 5 -230 0 -414 2 -409 4 6 3 82 14 170 25 132 16 218 20 494 20 279 0 344
3 393 16 32 9 58 21 58 26 0 5 -6 8 -12 7 -7 -1 -35 0 -63 2 -28 1 1 5 65 8
106 6 129 11 293 66 l179 59 112 -57 c61 -31 115 -57 119 -57 5 0 38 -15 75
-32 l67 -33 1049 2 c905 1 1045 0 1022 -12 -64 -34 -348 -45 -1134 -46 l-757
-1 75 -24 c98 -31 263 -68 430 -95 117 -20 174 -23 430 -23 162 -1 331 4 375
9 66 8 9 11 -325 15 l-405 5 446 3 c346 1 466 5 535 17 93 16 306 71 337 87
10 5 43 16 73 24 31 8 74 23 97 33 24 11 55 23 70 26 35 9 45 25 15 26 -23 1
-23 1 2 9 14 4 40 8 59 9 19 1 74 21 125 47 100 51 332 187 373 220 l26 20
-122 -12 c-148 -15 -1908 -23 -1931 -9 -8 5 -179 12 -380 16 -201 4 -381 12
-400 16 -34 9 -33 9 37 21 39 7 136 12 215 13 142 1 143 1 98 16 -36 13 -95
16 -305 15 -288 -1 -292 13 -7 24 l163 7 -73 28 c-66 26 -86 29 -203 30 -116
1 -124 2 -75 11 30 5 76 8 103 6 26 -2 47 -1 47 2 0 3 -36 22 -81 43 l-80 37
-182 1 c-164 0 -178 2 -147 14 22 8 80 14 155 14 l120 1 -60 36 c-33 20 -67
42 -76 50 -22 19 -26 18 -184 -36z m-268 -136 c-3 -3 -12 -4 -19 -1 -8 3 -5 6
6 6 11 1 17 -2 13 -5z m210 -1 c-20 -2 -52 -2 -70 0 -17 2 0 4 38 4 39 0 53
-2 32 -4z m406 0 c-29 -2 -77 -2 -105 0 -29 2 -6 3 52 3 58 0 81 -1 53 -3z
m-183 -33 c-8 -5 -78 -9 -155 -8 -102 1 -125 3 -85 8 90 11 257 11 240 0z
m-240 -40 c-36 -12 -242 -12 -260 0 -10 6 35 9 135 9 90 -1 140 -4 125 -9z
m605 0 c-40 -10 -447 -10 -415 0 14 4 120 8 235 8 117 0 197 -4 180 -8z
m-1454 -42 c-29 -6 -51 -6 -65 0 -16 8 -7 11 44 10 l65 0 -44 -10z m599 3 c0
-12 -91 -21 -215 -20 l-110 1 55 13 c63 15 270 19 270 6z m579 5 c-13 -14
-186 -27 -266 -21 -154 11 -106 25 89 25 100 0 179 -2 177 -4z m-124 -66 c43
-6 36 -7 -50 -9 -68 0 -95 2 -85 9 17 11 64 11 135 0z m283 3 c-21 -2 -55 -2
-75 0 -21 2 -4 4 37 4 41 0 58 -2 38 -4z m-1198 -25 c-14 -6 -95 -12 -180 -14
-149 -3 -153 -2 -95 11 75 16 313 19 275 3z m315 -9 c-52 -10 -252 -10 -210 1
17 4 80 8 140 8 84 0 100 -2 70 -9z m373 -6 c-38 -2 -98 -2 -135 0 -38 2 -7 3
67 3 74 0 105 -1 68 -3z m-353 -94 c-59 -12 -558 -11 -550 1 4 6 113 10 298 9
183 -1 277 -4 252 -10z m450 1 c-154 -12 -227 -11 -220 0 4 6 67 9 163 8 156
-1 156 -1 57 -8z m1032 3 c-20 -2 -52 -2 -70 0 -17 2 0 4 38 4 39 0 53 -2 32
-4z m586 0 c-24 -2 -62 -2 -85 0 -24 2 -5 4 42 4 47 0 66 -2 43 -4z m355 0
c-16 -2 -40 -2 -55 0 -16 2 -3 4 27 4 30 0 43 -2 28 -4z m-1141 -10 c-20 -2
-52 -2 -70 0 -17 2 0 4 38 4 39 0 53 -2 32 -4z m-1767 -33 c-14 -4 -115 -8
-225 -8 -112 0 -187 4 -170 8 40 10 427 10 395 0z m2250 0 c14 -4 -387 -8
-890 -9 -594 0 -910 3 -900 9 18 12 1753 12 1790 0z m1294 -2 c-15 -7 -97 -7
-255 -1 l-234 10 255 1 c181 0 249 -2 234 -10z m-1357 -75 c-20 -2 -52 -2 -70
0 -17 2 0 4 38 4 39 0 53 -2 32 -4z m1546 0 c-79 -2 -207 -2 -285 0 -79 1 -15
3 142 3 157 0 221 -2 143 -3z m-558 -83 c28 -4 -319 -8 -770 -9 -451 -1 -845
-4 -875 -7 -40 -5 -52 -4 -45 4 13 14 159 17 985 19 360 1 678 -2 705 -7z
m455 0 c0 -6 -51 -9 -137 -8 l-138 2 130 6 c72 3 133 7 138 8 4 1 7 -2 7 -8z
m-3755 -10 c-3 -5 -30 -9 -58 -9 -49 2 -50 2 -17 9 53 11 82 11 75 0z m410 0
c4 -6 -16 -10 -52 -9 -44 1 -52 3 -33 9 36 12 78 12 85 0z m-727 -217 c-32 -2
-84 -2 -115 0 -32 2 -6 3 57 3 63 0 89 -1 58 -3z"/>
<path d="M3987 3523 c-21 -20 11 -24 198 -21 146 2 208 7 217 16 10 9 -30 12
-198 12 -116 0 -214 -3 -217 -7z"/>
<path d="M5518 3518 c10 -10 99 -14 359 -16 191 -1 354 0 362 3 48 19 -45 25
-373 25 -288 0 -358 -3 -348 -12z"/>
</g>
</svg>
