<?xml version="1.0" encoding="utf-8"?>
<!-- Generator: Adobe Illustrator 24.0.2, SVG Export Plug-In . SVG Version: 6.00 Build 0)  -->
<svg version="1.1" id="Capa_1" xmlns="http://www.w3.org/2000/svg" xmlns:xlink="http://www.w3.org/1999/xlink" x="0px" y="0px"
	 viewBox="0 0 66.1 66.1" style="enable-background:new 0 0 66.1 66.1;" xml:space="preserve">
<style type="text/css">
	.st0{fill:#9069A7;}
</style>
<path class="st0" d="M64.6,51.9H58V12.7c0-0.8-0.7-1.5-1.5-1.5h-47c-0.8,0-1.5,0.7-1.5,1.5v39.3H1.5c-0.8,0-1.5,0.7-1.5,1.5
	s0.7,1.5,1.5,1.5h63.1c0.8,0,1.5-0.7,1.5-1.5S65.4,51.9,64.6,51.9z M39.2,51.9V37.6c0-1.5-1.2-2.8-2.8-2.8h-6.7
	c-1.5,0-2.8,1.2-2.8,2.8v14.3H11.1V14.2h44v37.8H39.2z M24,18v2.6c0,0.7-0.6,1.3-1.3,1.3h-6.7c-0.7,0-1.3-0.6-1.3-1.3V18
	c0-0.7,0.6-1.3,1.3-1.3h6.7C23.4,16.7,24,17.3,24,18z M51.4,18v2.6c0,0.7-0.6,1.3-1.3,1.3h-6.7c-0.7,0-1.3-0.6-1.3-1.3V18
	c0-0.7,0.6-1.3,1.3-1.3h6.7C50.8,16.7,51.4,17.3,51.4,18z M37.7,18v2.6c0,0.7-0.6,1.3-1.3,1.3h-6.7c-0.7,0-1.3-0.6-1.3-1.3V18
	c0-0.7,0.6-1.3,1.3-1.3h6.7C37.1,16.7,37.7,17.3,37.7,18z M24,27.2v2.6c0,0.7-0.6,1.3-1.3,1.3h-6.7c-0.7,0-1.3-0.6-1.3-1.3v-2.6
	c0-0.7,0.6-1.3,1.3-1.3h6.7C23.4,25.9,24,26.4,24,27.2z M51.4,27.2v2.6c0,0.7-0.6,1.3-1.3,1.3h-6.7c-0.7,0-1.3-0.6-1.3-1.3v-2.6
	c0-0.7,0.6-1.3,1.3-1.3h6.7C50.8,25.9,51.4,26.4,51.4,27.2z M37.7,27.2v2.6c0,0.7-0.6,1.3-1.3,1.3h-6.7c-0.7,0-1.3-0.6-1.3-1.3v-2.6
	c0-0.7,0.6-1.3,1.3-1.3h6.7C37.1,25.9,37.7,26.4,37.7,27.2z M24,36.3v2.6c0,0.7-0.6,1.3-1.3,1.3h-6.7c-0.7,0-1.3-0.6-1.3-1.3v-2.6
	c0-0.7,0.6-1.3,1.3-1.3h6.7C23.4,35,24,35.6,24,36.3z M51.4,36.3v2.6c0,0.7-0.6,1.3-1.3,1.3h-6.7c-0.7,0-1.3-0.6-1.3-1.3v-2.6
	c0-0.7,0.6-1.3,1.3-1.3h6.7C50.8,35,51.4,35.6,51.4,36.3z M24,45.5v2.6c0,0.7-0.6,1.3-1.3,1.3h-6.7c-0.7,0-1.3-0.6-1.3-1.3v-2.6
	c0-0.7,0.6-1.3,1.3-1.3h6.7C23.4,44.2,24,44.8,24,45.5z M51.4,45.5v2.6c0,0.7-0.6,1.3-1.3,1.3h-6.7c-0.7,0-1.3-0.6-1.3-1.3v-2.6
	c0-0.7,0.6-1.3,1.3-1.3h6.7C50.8,44.2,51.4,44.8,51.4,45.5z"/>
</svg>
