<?xml version="1.0" encoding="utf-8"?>
<!-- Generator: Adobe Illustrator 24.0.2, SVG Export Plug-In . SVG Version: 6.00 Build 0)  -->
<svg version="1.1" id="Layer_1" xmlns="http://www.w3.org/2000/svg" xmlns:xlink="http://www.w3.org/1999/xlink" x="0px" y="0px"
	 viewBox="0 0 490 490" style="enable-background:new 0 0 490 490;" xml:space="preserve">
<style type="text/css">
	.st0{fill:#9069A7;}
</style>
<g>
	<g>
		<path class="st0" d="M480,85H10C4.5,85,0,89.5,0,95v300c0,5.5,4.5,10,10,10h470c5.5,0,10-4.5,10-10V95C490,89.5,485.5,85,480,85z
			 M443.7,105L245,223.4L46.3,105H443.7z M470,385H20V112.6l150.8,89.8l-107,84.7l12.4,15.7l113-89.4l50.7,30.2
			c1.6,0.9,3.3,1.4,5.1,1.4s3.5-0.5,5.1-1.4l50.7-30.2l113,89.4l12.4-15.7l-107-84.7L470,112.6V385z"/>
	</g>
</g>
</svg>
