<?xml version="1.0" encoding="utf-8"?>
<!-- Generator: Adobe Illustrator 24.0.2, SVG Export Plug-In . SVG Version: 6.00 Build 0)  -->
<svg version="1.1" id="Layer_1" xmlns="http://www.w3.org/2000/svg" xmlns:xlink="http://www.w3.org/1999/xlink" x="0px" y="0px"
	 viewBox="0 0 1280 1280" style="enable-background:new 0 0 1280 1280;" xml:space="preserve">
<style type="text/css">
	.st0{fill:#9069A7;}
</style>
<g transform="translate(0.000000,1280.000000) scale(0.100000,-0.100000)">
	<path class="st0" d="M3370,12365c-12-13-28-23-34-22s-10-2-10-8c1-5-7-19-19-30l-20-20l7,20c5,16,3,15-13-5c-11-13-17-29-14-34
		s1-6-5-2c-7,4-12,3-12-2s-7-9-15-9c-10,0-6,8,10,23c32,30,32,39,0,18c-13-9-34-31-46-50c-11-19-25-34-30-34c-13,0-11,13,4,30
		c9,11,8,11-7,0c-18-14-19-13-13,10l6,25l-23-27c-13-15-27-24-30-21c-3,4-6,1-6-5s-20-25-44-41c-25-17-52-38-60-47c-19-18-22-2-3,18
		c6,7,13,20,15,28c2,10-4,8-15-6c-10-11-30-28-45-37c-26-16-27-16-21,0c3,10,15,30,25,46c11,15,15,27,11,27c-5,0-31-35-57-77
		c-49-79-118-174-123-169c-1,1,2,17,7,36s8,36,5,38c-2,2-11-20-19-50c-10-31-25-59-37-66c-19-12-20-12-14,10c16,49,16,52-3,19
		c-13-24-21-30-25-20c-3,8-6,2-6-12c-1-20-10-31-33-42c-18-9-37-13-43-10c-5,4-7,3-3-1c3-4-1-15-10-24c-9-10-30-33-45-52
		c-21-26-27-29-22-13c3,12,1,24-6,29c-7,4-9,3-6-3c4-5-7-23-23-38c-17-16-30-33-30-39c0-5,11,1,25,14s25,18,25,12c0-11-36-36-53-37
		c-4,0-12-7-18-15c-9-13-10-13-8,0c1,8,1,22,0,30c-3,25-30-32-31-65c-1-26-3-27-10-10c-4,11-6,34-4,50l4,30l-10-30c-6-16-7-42-4-57
		c7-35-6-60-17-32c-7,16-8,15-8-7c-1-29-31-64-31-36c0,9,5,28,11,44c15,41-1,20-36-45c-16-31-37-57-45-57s-20-9-25-20
		c-6-11-15-20-20-20c-6,0-27-18-47-40c-21-23-38-34-38-26s-11,0-25-19s-50-60-80-92s-55-62-55-67c0-6-17-22-37-37
		c-52-38-133-116-133-128c0-6,14,5,30,24l30,35l-6-30c-4-16-10-32-14-35c-3-3-18-26-32-51c-15-25-34-52-43-59c-14-12-16-8-11,36
		c5,46,5,47-6,16c-7-20-16-31-24-28c-7,3-14,2-16-2s-26-25-55-48c-48-38-103-95-103-107c0-3,28,22,62,56c59,58,63,60,66,38
		c6-36-7-109-22-123c-41-42-106-132-126-174c-13-27-38-67-55-89c-37-46-59-85-52-91c3-3,16,15,31,40c38,64,44,63,31-6
		c-10-58-14-64-72-112c-64-53-123-121-123-140c0-6,9,0,19,14l19,24l-5-68c-6-84-21-130-24-76l-2,35l-6-37c-5-29-24-56-93-127
		c-103-105-118-137-21-44c37,35,73,61,80,59c7-3,13-1,13,4c0,6,5,10,12,10c6,0,3-8-7-20c-10-11-21-17-26-15c-4,3-21-23-38-57
		c-31-64-55-148-42-148c4,0,11,18,17,41c5,22,13,40,17,39c5-1,20,16,34,38c14,21,34,44,44,50c14,9,13,4-6-25c-14-19-25-42-25-50
		c0-7-9-32-21-55c-16-31-23-38-30-27s-9,10-9-4c0-10-17-41-39-70c-46-62-65-97-53-97c5,0,16,10,25,23c12,17,11,7-4-53
		c-11-41-17-91-15-110c4-26-1-45-24-80c-32-51-72-146-68-163c2-7-7-26-18-42c-31-43-46-75-37-75c5,0,16,15,26,33c18,31,72,97,81,97
		c8,0-14-62-36-105c-21-39-21-40-1-22c42,37,45,13,4-46c-15-23-32-53-36-67s-15-36-25-50c-9-14-20-43-24-65l-7-40l36,60
		c20,33,50,74,67,90c18,17,26,22,19,13c-10-13-10-18-2-18c7,0,9-5,4-12c-4-7-8-31-9-53c-2-22,0-34,3-27c7,19,23,4,23-22
		c0-31-26-54-33-29c-3,10-5,3-6-15c0-18-7-45-15-60c-7-15-16-43-19-62l-7-35l19,23c43,51,42,9-3-77c-38-75-55-141-32-122
		c25,21,28-6,6-50c-12-22-19-44-16-47c7-7,6-8,41,53c22,37,30,45,33,31c2-10-1-23-7-29c-17-17-13-31,4-17c18,15,19,7,3-23
		c-6-12-12-31-14-42c-1-11-5-33-9-49c-6-20-4-27,3-22c6,3,13,20,17,36c4,17,11,30,16,30c15,0,10-88-6-120c-14-27-14-29,5-35
		c29-9,25-37-11-71c-17-16-35-38-40-49c-6-11,6-3,25,18c49,55,66,39,37-35c-6-15-8-35-4-44c4-11,10-5,23,23l18,38l-6-40
		c-4-30-17-51-49-83c-48-49-70-82-53-82c5,0,10,3,10,8c0,4,18,27,40,52l39,45l-6-45c-3-25-16-61-29-79c-13-19-21-37-18-40
		s10,2,15,12c13,22,51,58,57,53c2-2-2-14-8-26c-19-35-6-33,35,7c51,49,42,30-39-91c-36-54-66-102-66-107c0-21,27,6,52,51
		c15,27,37,54,48,60c26,14,27-1,3-42c-13-21-14-32-7-35c7-2,11-20,9-41c-1-20,0-24,2-9c3,21,9,27,20,23c8-3,16-6,18-6s-5-20-16-45
		c-22-50-19-66,11-58c36,9,22-18-45-88c-36-38-65-75-65-81c0-13-2-15,59,60c48,58,60,63,35,13c-9-18-13-35-10-38s8,2,12,11
		c8,20,24,21,24,1c0-9,6-12,16-8c13,5,15,1,10-18c-6-20-5-21,4-7c8,13,8,24,0,37c-11,22,2,71,20,71c10,0,8-49-4-68c-3-6,3-13,14-17
		s17-11,14-17c-4-6-10-5-15,3c-11,17-10,1,0-26c5-11,4-28-1-39c-6-10-12-28-13-40c-2-11-6-32-10-46l-6-25l16,25l16,25l-6-25
		c-8-32-9-39-6-75c2-25,6-20,21,31c10,34,23,70,29,80c10,18,10,18,11-2c0-12,2-37,5-55c4-29,3-30-4-9c-9,24-9,24-10-7
		c-1-17-12-54-26-81c-30-60-32-76-5-43l20,23v-23c0-13,7-46,15-72c10-34,12-55,5-67c-16-29-11-48,5-20c9,15,15,19,15,10
		c0-12,4-11,15,4c8,11,15,16,15,10c-1-22-28-122-39-142c-6-11-11-27-10-34c0-7,9,6,19,30c21,45,36,58,20,16c-13-33-13-64,0-64
		c6,0,10,11,10,25c0,24,25,85,35,85c6,0-2-51-11-74c-4-11-4-17,2-14c13,8,16-129,3-153c-18-34-3-32,21,3l22,33l-7-30
		c-3-16-8-38-11-47c-3-10-1-18,4-18s12,14,16,31c9,44,47,126,53,112c2-6-3-23-12-37s-14-30-10-35c3-6-2-22-11-36s-14-28-11-31
		s13,8,23,25c17,29,34,41,34,24c0-5-14-28-30-52c-17-24-30-49-30-55s9,3,19,20c24,39,53,42,44,5c-3-14-12-38-19-53
		c-8-15-14-35-13-45c0-16,1-16,9,2c7,17,9,17,9,3c1-10,6-18,12-18s8-9,4-20c-10-32,3-23,21,15c9,19,20,35,25,35c11,0,30-45,33-75
		c1-11,7-19,14-18c8,2,9-5,2-25c-9-24-9-25,4-9c12,15,15,10,30-50c9-38,16-90,16-117c0-67,13-50,15,20c2,38,8,61,20,72
		c17,16,17,15,10-13c-5-16-9-48-10-70c-2-22-7-64-12-93c-6-29-6-55-2-58c5-3,9,6,9,20c0,13,3,33,7,43c6,15,9,13,14-12l7-30l1,28
		c1,30,21,38,21,8s17-34,24-6c4,14,11,25,16,25c13,0,13-32,0-66c-8-20-7-31,3-43c8-9,13-37,13-64c-1-26,2-47,7-47c4,0,7,4,7,8
		c0,12,63,92,72,92c5,0,5-18,2-40c-5-31-3-40,7-40s15-13,15-42c1-32-6-54-28-86c-26-37-58-102-58-117c0-17,19-1,24,21
		c4,14,20,46,36,72c23,37,30,43,36,29c3-9,4-33,2-52s0-35,4-35s8,9,8,19c0,11,4,23,10,26c12,8,13,11-5-55c-17-64-19-104-5-95
		c5,3,10,21,10,38c0,40,18,107,29,107c5,0,6-20,3-45c-3-28-1-45,6-45c6,0,13,6,15,13c3,6,4-4,1-23l-4-35l13,29c11,23,15,25,20,12
		c4-10,12-14,19-10c8,5,9,2,3-12c-4-10-10-38-12-62c-3-34-1-42,9-36c7,5,5-5-6-21c-53-81-85-155-67-155c4,0,13,17,19,38
		c6,20,18,46,26,57c13,18,14,16,11-25c-4-42-4-41,9,13c15,65,26,83,26,43c0-41,24-156,32-156c5,0,8-6,8-14c0-7,8-20,17-27
		c15-12,16-12,9,6c-5,11-13,32-19,46c-8,19-7,39,3,73c16,59,28,67,26,18c-1-24,3-36,11-35c8,2,10-8,6-31c-3-19-1-42,5-51
		c7-13,4-30-10-62c-11-25-17-47-14-50c3-4,11,8,17,25c6,18,15,29,20,26s12,2,15,10c10,25,34,19,34-8c0-14,5-28,11-32c6-3,9-21,6-38
		c-5-35,0-56,15-56c5,0,6,9,3,21c-5,16-3,20,6,17c8-3,19,2,25,10c16,22,48-67,35-100c-5-15-5-30,0-41c12-20,29-22,29-4
		c0,16,29,77,37,77c2,0,2-13-2-28c-3-16-7-73-9-127c-3-82-2-96,9-82c12,16,14,16,28,2c23-23,26-19,15,21c-8,29-6,39,8,55
		c21,24,41,10,26-18c-17-30-27-143-13-143c6,0,11,5,11,10c0,19,27,10,38-12c8-18,11-19,11-5c2,32,31,19,31-14c0-31,0-31,24-16l24,16
		l-10-41c-5-23-11-45-14-50c-3-4-2-8,1-8c13,0,32,26,40,55c7,26,9,22,16-38c7-62,19-103,19-66c0,11,2,11,10-1c5-8,10-44,11-80
		c0-62,1-63,12-33c14,37,34,60,43,50c4-4,2-19-5-33c-18-41-6-39,18,2c27,45,37,40,16-9c-8-20-15-47-14-59c0-19,3-16,14,12l14,35
		l-5-35c-2-19-6-51-9-70l-5-35l10,32c15,47,30,50,25,6c-3-21-2-29,1-18c4,11,11,26,17,33c8,10,13,7,23-15l12-28l12,32
		c7,18,16,30,21,27s5-13-1-25c-7-11-7-19-1-19c5,0,12,6,14,13c3,6,6-1,7-18c1-27,2-28,14-12c12,15,14,13,19-25c5-36,1-48-24-82
		c-16-22-29-47-29-55c1-10,7-5,16,12c8,15,21,27,29,27s15,9,15,20s7,20,15,20s15,6,16,13c1,30,18-33,20-78c1-41,3-45,8-20
		c3,17,11,31,18,32c23,5,32-32,24-93c-5-32-7-61-6-62c2-2,13,15,25,38c14,27,26,40,35,36c8-3,16,0,19,7c3,9,5,9,5,0c1-7-8-27-19-45
		c-23-38-26-62-5-34c13,17,14,12,8-46c-4-44-2-67,6-72c7-5,11,5,11,31c0,21,4,44,9,52c6,8,8-13,5-55c-3-64-1-65,11-7
		c4,15,10,20,20,17c9-4,15,0,15,9s5,19,12,23c8,5,9-2,5-24c-5-22-3-31,6-29c8,1,12-11,11-35c-1-21,0-38,2-38s11,16,19,37
		c8,20,18,34,21,30c3-3-4-27-15-52c-25-56-27-76-5-49c17,21,17,25-1-46c-5-19-4-21,4-10c14,21,21,9,30-52c4-29,15-66,24-83
		c20-37,21-25,4,35c-8,26-11,56-6,70c4,14,7,19,8,13c1-7,8-13,16-13c21,0,28-39,15-94c-6-27-8-51-6-54c7-6,36,18,36,30
		c0,5,15,30,32,56c40,58,46,41,19-48c-11-35-18-67-14-70c3-3,8,1,10,8c3,6,8,10,13,7s12,5,16,17c6,21,8,19,19-17l12-40l13,28
		c16,32,29,20,31-28c0-16,3-24,6-17c8,20,20,14,33-18c7-17,15-29,17-26c3,2,0,13-6,24c-7,13-8,29-2,44c8,21,10,19,21-21
		c11-42,11-52-5-96c-5-16-5-17,4-5c7,11,9-2,5-45c-4-60-4-60,11-27c8,17,20,32,25,32c7,0,7-6,0-19c-5-11-10-30-9-43v-23l9,22
		c16,40,27,25,34-47c9-84,26-104,20-23c-4,48-1,62,15,83l21,25l-4-90c-4-84-4-86,6-35c13,75,16,82,28,75c12-8,13-50,1-73
		c-15-30-22-72-11-72c5,0,10,8,10,18c1,9,7,31,15,47l15,30l-3-32c-3-33,7-45,16-20c3,6,6,2,6-10c1-13,6-23,11-23c6,0,8-11,4-26
		c-5-19-4-25,5-20c6,4,11,17,11,29c0,17,2,19,9,8c5-8,7-19,5-26c-3-6-1-22,5-36l9-24l7,30c18,77,23,81,24,15c0-42-5-72-14-84
		c-8-11-15-26-15-35c0-8,15,8,32,35c23,33,34,43,36,32c2-9-2-27-8-38c-15-29-5-38,12-11c17,28,24,26,32-4c4-16,1-34-9-48
		c-8-12-15-31-14-42c0-15,5-11,16,15c16,35,16,35,23,10l8-25l12,32c6,18,16,33,22,33c8,0,6-18-9-58c-11-27,8-10,21,21l14,32l-5-45
		c-3-29-1-40,5-32c6,9,13-4,22-43c8-34,21-60,32-66c21-11,22-9,6,26c-9,19-8,31,1,52l13,28l15-45c12-34,13-52,5-73c-6-15-6-25-1-21
		c5,3,9-2,9-10c0-9,4-16,9-16c18,0,21-32,5-61c-15-29-14-29,6-17c11,7,20,18,20,25c0,6,12,26,27,45c15,18,20,27,10,19
		c-20-16-21-11-5,24l11,25l14-37c15-45,16-53,3-33c-5,8-10,11-10,5c-1-5-5-29-9-53c-5-23-5-45,0-48s9,0,9,5c0,6,5,11,11,11
		c12,0,8-71-7-119c-5-17-4-22,4-17c7,4,12,16,12,27s7,22,15,25s24,22,37,41c21,34,22,35,30,14c5-15,2-34-12-61c-25-48-25-63-2-32
		l18,23l-3-38c-2-33-2-34,6-13c5,14,12,38,16,55c6,26,8,28,17,12c5-10,7-29,4-43c-9-34,1-30,19,9l15,32l-6-35c-15-88-15-88-1-57
		c8,16,18,28,22,27c5-1,13,7,17,17c6,12,7,9,3-9c-3-16-1-28,5-28c5,0,10,8,10,18c0,14,2,15,10,2c7-11,10-11,10-2c0,7,5,10,10,7
		c14-9,13-48-2-63c-9-9-8-15,8-26c10-8,21-10,22-5c2,5,7,9,12,9c9,0,8-50-2-66c-17-26-27-64-18-64c6,0,10,6,10,14s12,28,26,43l25,28
		l-4-27c-2-16,0-28,4-28c5,0,9,10,9,23c1,19,3,18,14-9c8-17,17-51,21-75c10-62,21-78,29-45c3,14,11,26,16,26c6,0,10,10,10,22
		c0,17,3,19,12,10s9-15,0-24c-17-17-15-31,3-24c11,4,19-3,25-19c5-14,12-25,16-25c3,0,4,7,0,15c-3,8-1,15,4,15c6,0,10,7,10,15
		s5,15,10,15c6,0,10,10,11,23c0,22,0,22,10-2c5-13,7-43,5-67c-4-31-2-44,9-48s15,2,15,21c0,35,19,18,22-20c3-33,13-35,23-4
		c6,19,8,17,15-18c5-28,4-48-6-67c-20-39-2-35,40,9l35,37l-3-39c-2-22-1-29,1-15c7,41,20,44,25,7c2-20,0-33-4-31c-4,3-8-6-8-19
		c0-14-3-40-7-58c-6-31-5-33,10-20c9,7,17,20,17,28s5,11,10,8c6-4,13,7,16,24c5,24,12,31,30,31c22,0,23-2,12-27c-7-16-23-41-35-56
		c-13-16-23-33-23-39s16,9,35,33c24,31,42,44,60,44c14,1,25-1,25-2c0-2-10-23-21-46c-28-53-40-97-28-97c5,0,9,5,9,11
		c0,19,42,109,52,109c24,0,17-35-18-85c-20-30-35-57-32-60s18,15,33,40c16,25,35,45,42,45s13,7,13,16c0,14,1,14,16,0
		c13-13,14-22,4-51c-6-19-10-41-7-48c2-6,9,5,17,27c9,28,15,35,21,25c8-12,10-12,18,0c10,15,14-1,26-93c7-53,24-47,25,9
		c0,30,20,75,20,46c0-11,3-11,17,0c15,13,15,12,5-7c-6-11-8-31-5-43c5-20,6-20,19-4c12,17,13,17,14-4c0-12-4-24-9-27
		c-11-7-21-56-11-56c4,0,12,17,19,38c13,39,50,95,51,76c0-6-9-53-20-105c-22-106-25-139-10-139c6,0,10,18,10,40c0,35,4,42,27,51
		c15,6,31,15,34,21c9,14,29,1,29-18s19-18,26,1c4,8,10,12,15,9c15-9,10-56-11-101c-10-24-15-43-11-43c5,0,14,14,21,30
		c20,49,34,49,27-1l-7-44l20,24c11,13,20,33,21,45c0,11,3,15,6,9c2-7-5-37-16-68c-11-30-18-55-15-55c8,0,28,21,43,45
		c11,19,12,18,7-5c-3-14-9-36-13-50c-6-24-6-24,11-7c10,9,22,17,27,17c6,0,7,4,4,10c-3,5,1,20,9,32c16,22,16,22,16-11v-34l20,23
		c11,13,20,27,20,32c0,4,5,8,10,8c6,0,10-18,10-41c0-32,3-40,15-35c9,3,15-1,15-11c0-13,3-13,15-3c10,9,15,9,15,1c0-6,5-11,10-11
		c6,0,10,7,10,16c0,8,5,12,10,9c6-3,10-27,10-52c0-39,2-44,15-33c8,7,15,9,15,4s4-3,9,5c14,22,31,3,31-35c0-19,4-34,9-34
		c4,0,6,12,3,28c-5,24-4,26,11,13c10-7,17-10,17-5s4,3,9-5c6-9-1-35-20-75c-16-33-29-72-28-86c0-16,10,1,25,45c25,72,49,113,60,103
		c3-4-2-20-10-37c-20-38-20-64,0-31c11,19,14,20,10,5c-16-65-18-79-9-70c5,6,15,30,22,53c16,56,24,50,9-6c-7-29-7-47-1-53
		c7-7,13,1,18,23l8,33l7-45l7-45l3,50c2,47,3,48,13,23c14-36,26-36,19-2c-3,19-1,25,7,20c16-10,14-95-3-144c-9-25-11-44-5-47
		c5-4,9,1,9,9s5,27,11,43l11,28l13-30c13-29,13-29,8,17c-3,29-1,53,6,61c6,8,9,27,7,43s-1,21,1,11c2-9,8-17,12-17c5,0,11-14,15-30
		c3-17,17-46,31-64c16-21,25-47,26-72c1-34,2-31,13,24c16,80,30,95,45,50c10-27,14-30,22-18c11,15,10,10-7-52c-6-22-5-22,12-6
		c17,17,19,16,31-14c7-17,16-29,19-26c2,3-1,17-7,31c-15,34-5,64,16,47c10-9,15-33,16-79c0-36,3-61,5-54c3,7,11,10,19,7
		c11-5,12,1,3,30c-9,28-9,39,1,49c7,6,12,8,10,2c-3-17,13-75,21-75c4,0,11,19,15,43l7,42l19-52c11-29,25-53,30-53c12,0,12,0-12,49
		c-11,23-18,50-16,59c2,10,9-3,16-28s20-56,31-70c16-21,20-22,34-11c18,15,18,15,34-14c10-17,11-18,12-2c0,9,5,17,10,17
		c6,0,10,7,10,15s4,15,9,15c11,0,24-47,16-59c-3-5,1-11,9-14c9-4,16,3,20,16c6,22,6,22,18,2c24-42,36-47,52-23l15,21l10-26
		c6-14,8-43,5-64l-4-38l17,45l18,45l3-39c2-25,6-35,11-27c5,7,6-10,3-38c-5-57,14-74,21-18c2,20,5,10,6-28l3-60l12,45
		c7,28,18,46,29,48c9,2,17,11,18,20c0,14,2,13,10-3c18-40,32-80,31-88c-1-4,4-7,12-7c9,0,12,7,9,19c-2,10,3,25,11,34
		c9,8,16,21,16,28c0,16,37-32,56-73l15-33l-5,40c-2,22-1,49,3,60c7,17,9,15,15-15c16-77,27-110,37-110c6,0,7,5,4,10
		c-4,6-11,25-15,43c-9,29-8,30,5,13c16-21,17-21,33,9c10,19,11,19,21-8c6-16,11-37,11-48c0-24,6-24,33,2l22,20l17-20
		c21-27,28-26,28,2c1,22,1,22,16-3c13-22,15-22,11-4c-3,16,0,20,12,17c13-3,16-16,15-66c-1-34,0-44,3-22c6,63,10,68,33,45
		c11-11,20-32,20-47c0-16,5-35,10-43c7-12,10-8,11,15c0,17,3,24,6,18c3-9,10-10,24-2c15,8,21,6,26-6c4-12,8-13,13-5
		c11,17,30,3,30-22c0-17,2-18,15-8c12,10,15,9,15-6c1-17,2-16,13,4c15,26,27,19,28-17c0-22,3-19,14,14l14,40l-4-60l-5-60l18,65
		c17,59,19,62,25,37c4-15,5-32,2-37c-4-6-1-10,4-10c6,0,11,6,12,13c1,6,5,1,9-13c7-22,8-21,9,13c1,20,5,37,9,37c16,0,39-65,35-97
		c-9-61,5-34,22,42c17,78,34,98,36,43c1-18,3-26,6-16c2,9,11,19,19,22c16,6,44-15,44-32c0-6,10-8,21-5c18,5,20,3,14-16
		c-4-12-2-21,4-21s11,11,11,24c0,37,17,40,29,6c14-42,30-37,26,8c-1,20,0,28,2,17c6-25,23-44,23-26c0,7,6,19,14,27c13,12,14,10,9-21
		c-4-23-2-35,6-35c6,0,11,8,12,18c0,10,3,12,6,5c10-25,19-12,15,21c-2,18,1,37,7,40c7,5,11-2,11-16c0-13,4-28,9-34c5-5,11-20,14-34
		c2-14,5-5,6,23c1,64,17,60,25-7c5-33,13-57,22-60c16-6,17-5,5,26c-6,17-3,28,12,43l20,20l-6-23c-7-28,1-54,14-46c5,3,9-4,9-15
		c0-12,5-21,11-21c7,0,8,12,4,32c-6,32-5,32,10,13c9-11,18-30,22-42c3-13,10-23,15-23c6,0,7,11,4,25c-4,14-2,25,3,25s12-11,15-25
		c4-14,11-25,17-25s6,6,1,18c-12,22-26,102-18,102c13,0,46-41,46-57c0-15,2-15,9-4s10,10,14-5c3-14,5-12,6,7c0,15,7,32,15,39
		c12,9,17,5,25-27c13-45,36-83,27-43c-3,14-9,35-12,48c-4,12-2,22,4,22c5,0,13-11,16-25c4-14,10-25,15-25s7,10,3,22
		c-7,29,16,14,29-19c5-13,14-21,19-18c6,3,13-1,16-9c10-25,32-18,36,11c4,36,26,41,38,9c13-34,22-33,14,0c-5,19-4,25,5,20
		c7-4,11,0,11,11c1,11,9,3,21-20c19-36,21-38,34-20c8,10,15,32,15,48c1,17,4,24,7,17c2-6,9-10,14-6c5,3,9,1,9-4s9-12,21-15
		c18-5,20-2,15,19c-9,36,3,29,20-12c17-40,30-41,15-1c-8,19-7,27,4,31c20,7,26-6,32-69c4-37,10-55,19-55c8,0,14,10,14,23
		c0,12,5,29,10,37c9,13,11,13,20,0c7-12,10-8,10,15c1,27,2,28,12,11c6-11,11-47,11-80c0-34,1-45,4-26c2,19,7,42,10,50s5,23,4,33
		c-1,9,3,17,8,17c6,0,12-15,12-32c1-24,3-27,6-10c5,27,23,30,23,3c0-10,7-24,15-31c16-13,19-5,16,45c0,13,6,6,18-17
		c26-55,28-54,25,4c-3,41-2,46,5,23c4-17,13-40,20-50c11-17,12-14,8,22c-3,22-1,45,3,50c4,4,10,17,13,28c2,11,4,3,4-18
		c0-41,10-59,22-38c5,8,12-3,20-33c6-24,16-48,23-52c8-5,9-2,3,12c-4,10-8,26-9,34s-8,32-15,53c-7,20-11,43-9,49c5,15,38-48,38-72
		c0-9,7-25,15-36c17-23,19-15,5,21c-6,15-12,51-14,81c-3,46-2,53,10,43c8-6,14-8,14-5c0,4,8,2,19-3c10-6,22-26,25-45
		c6-32,9-35,36-31c19,2,30-1,30-9c0-7,7-21,16-32c14-18,15-18,8,6c-4,14-9,31-12,39c-3,9-1,12,6,7c9-5,12,6,12,36l1,43l21-40l22-40
		l10,28c11,29,26,36,26,12c0-8,9-15,20-15c21,0,25,13,21,63c-3,37,5,34,29-10c17-31,20-33,16-12c-4,19-1,29,10,33c8,3,14,14,13,23
		c0,10-1,21,0,26c2,13,40-32,61-74c12-22,24-39,26-36c3,3-2,19-11,37c-17,32-12,57,5,30c7-11,10-2,11,30c1,25,3,36,6,25
		c9-36,24-41,17-6c-5,22-4,32,3,28c6-4,13-29,15-57c8-81,28-87,28-9c1,64,1,64,15,32c14-34,33-47,20-15c-13,33-13,48,1,67
		c11,15,14,16,14,3c0-8,7-21,15-28c10-9,15-9,15-1c0,6,5,11,10,11c6,0,10-7,10-15s4-15,10-15c5,0,7,6,4,13c-3,8,2,19,9,26
		c12,9,16,7,22-16c4-19,9-23,14-14c6,10,13,7,25-10c17-24,17-24,11,14c-9,47-1,47,24,0c26-49,26-37,1,38c-12,34-19,64-15,67
		c3,3,5,0,5-6c0-7,4-12,10-12c5,0,7,15,5,33l-5,32l11-30c7-16,15-34,19-40c4-5,11-25,15-42c9-45,22-42,17,3c-4,28-2,35,8,29
		s12-3,6,10c-5,15-4,16,9,5c19-16,19-11,0,33c-17,42-18,47-7,47c5,0,17-27,27-60s22-60,27-60s6,10,2,23c-16,52-16,53-1,34
		c13-16,15-15,21,14c3,17,10,28,16,24c5-3,10,0,10,9c0,18,28,15,40-4c7-12,10-11,16,3c9,25,29,21,41-10c11-26,11-25,8,14
		c-4,57,4,86,22,78c11-3,13-1,10,10c-4,8-2,17,3,20s12-10,16-30c8-42,24-57,21-19c-3,37,17,40,34,7c13-27,14-25,17,45
		c4,91,22,86,23-6c0-71,17-137,18-74c1,17,5,32,10,32c6,0,6,12-1,31c-7,20-7,34,0,41c6,6,12-2,16-26c4-20,11-36,17-36s6,7,1,18
		c-5,9-12,33-15,52l-7,35l19-23c13-15,21-18,24-10c3,7,6,0,6-17c1-16,6-37,11-45c7-10,8,6,4,50c-4,47-3,61,5,50c6-8,11-13,12-10
		c0,3,3,19,5,35c6,32,24,59,24,35c0-7,6-21,13-29c7-9,19-35,27-58c7-24,16-43,20-43s2,17-6,37c-7,21-13,45-13,53c0,23,29-19,30-44
		c1-14,4-12,8,9c4,17,6,46,4,65c-4,29-2,32,7,17c14-22,30-13,29,16c0,21-1,21-9,2c-7-16-9-17-9-3c-1,9,6,23,14,32c8,8,15,20,15,26
		c0,7,6,5,16-4c23-23,26-20,19,21c-5,34-4,36,6,13c11-24,11-24,19-5c8,18,9,18,10-5c1-14,6-34,11-45c6-14,8-5,5,34c-2,47-1,51,11,35
		c7-10,19-36,25-56c14-49,25-49,20,0c-2,28-1,33,7,22c6-8,11-27,11-42s4-30,10-33c9-5,5,68-5,102c-2,7,0,15,5,18c6,4,10,0,10-7
		c0-10,2-10,9,1s10,9,16-8c3-11,10-21,15-21s2,20-6,45c-14,40-14,46,0,67c16,22,16,22,16-19c0-23,5-45,11-49c8-5,9,6,4,36
		c-6,33-4,41,5,35c8-5,18-1,26,10c8,10,17,15,21,12c6-6-12-121-25-154c-2-7,0-13,6-13c5,0,12,20,15,44c6,41,38,137,55,163
		c15,24,60-8,78-55c24-63,26-46,4,27c-25,79-25,101-2,99c39-3,52,3,52,23c0,11,5,17,10,14c6-3,10-14,10-24c0-9,7-26,16-37
		c14-18,15-18,8,6c-6,24-6,24,10,5c9-11,21-37,26-59c16-54,22-39,10,24c-5,29-10,66-10,83c0,29,1,30,15,11c14-18,14-17,4,11
		c-12,33-19,105-10,105c4,0,12-13,19-30c23-52,56-35,54,27c-2,40,13,43,26,6c9-23,11-24,12-8c1,11,1,36,1,55l-1,35l15-25l16-25
		l-5,27c-4,15-2,29,3,32c4,3,11-18,14-46c6-48,12-66,21-57c2,2-1,33-6,68c-8,50-7,65,3,72c9,5,17-2,26-23c7-17,16-29,18-26
		c3,3-1,20-9,39c-8,21-10,42-5,54c7,19,8,19,8,1c1-30,23-96,32-96c5,0,4,12-1,26c-15,39-11,53,5,19c8-16,14-23,14-15
		c-3,46,4,49,15,7c17-63,38-86,29-31c-8,43-8,56-4,129c2,42,4,46,11,25c5-14,11-41,14-61c6-32,10-37,31-35c21,1,25,5,21,26
		c-13,72-16,124-7,110c6-8,11-28,11-45c1-16,7-43,16-60c12-26,13-26,8-5c-3,14-8,67-11,119c-4,69-3,92,6,87c6-4,11-13,11-21
		s4-17,10-20c6-4,7,6,4,25c-4,19-2,30,5,30c6,0,11-17,12-37c0-21,5-47,10-58c6-14,7-5,4,30c-4,37-3,44,4,29c15-35,33-40,25-8
		c-5,19-4,25,5,20c13-8,13-3,2,47c-8,34-7,36,6,25c14-11,15-10,10,12c-4,14-4,19-1,12c3-6,9-10,14-7s11-8,15-25c4-16,11-32,16-35
		c5-4,5,3,0,17c-12,33-8,101,7,105c6,3,12-1,12-9c1-20,40-102,46-95c3,3,1,14-5,26c-6,11-13,44-15,73s-7,71-11,92c-6,28-5,37,4,32
		c6-4,11-19,11-34c0-37,17-94,34-117c10-14,9-2-5,40c-11,33-18,67-16,75s12-12,21-45c23-75,45-125,57-125c5,0,0,18-11,40
		c-27,52-50,152-50,217c0,42,4,54,20,63c11,6,18,15,15,20c-3,4,12,22,32,39c21,17,35,31,31,31c-3,0-30-20-59-45c-52-45-79-55-40-16
		c12,12,21,28,21,36c0,9,12,28,26,42s19,23,11,20c-32-12-12,35,28,66c59,45,64,51,25,32c-38-20-80-28-80-15c0,4,12,19,26,34
		c15,14,23,26,19,26c-5,0,0,10,11,22l19,22l-27-17c-37-23-49-21-18,3l25,20h-24c-20,0-21,2-11,15c17,20,1,19-22-2c-10-9-18-12-18-7
		c0,16,14,31,50,53c42,25,36,27-16,5c-39-16-39-16-21,3c10,11,36,28,57,38c22,10,38,20,36,22c-2,3-23-5-47-16c-23-12-43-21-44-21
		c0,0-1,9-2,19c-2,23,15,39,54,51c27,8,26,9-7,6c-19-2-43-7-53-11c-25-10-36,4-15,19c9,7,19,24,22,39c4,25,3,26-17,15
		c-12-6-38-13-57-15l-34-4l24,25c13,15,19,26,14,26s0,7,10,15c23,17,14,20-15,5c-25-14-24,1,2,34l21,27l-33-20c-52-32-58-24-14,16
		c27,24,31,30,13,19c-15-9-36-16-47-16s-23-5-27-12c-5-8-2-9,11-4c18,7,18,6,0-14c-21-23-44-28-25-5c7,8,9,15,4,15c-5,1,7,15,26,32
		l35,31l-37-21c-24-14-35-16-32-7c3,7,19,19,36,26c26,11,28,13,12,22c-12,7-23,6-36-2c-28-18-21-3,15,30l32,31l-35-21
		c-51-31-58-26-21,13l34,35l-33-6c-18-2-44-9-57-14s-27-9-30-9c-11,0,22,32,42,41c16,8,15,8-8,4c-25-5-27-4-18,14c6,11,20,23,32,26
		c11,4,19,9,16,11c-4,4-69-19-99-36c-29-16-21-2,30,53l47,51l-42-32c-43-34-48-28-21,25c9,18,16,33,15,33s-20-7-42-15
		c-59-21-72-19-49,7c17,19,17,21,2,15c-25-9-22,8,5,27c21,15,21,16-20,12c-23-2-48-8-55-12s-4,3,7,16l20,23l-30-7l-30-7l25,21
		c28,22,24,25-14,10c-19-7-26-6-26,3c0,8-4,7-10-3c-5-8-12-11-16-8c-7,8,33,68,46,68c5,0,15,10,21,22c12,22,11,22-8,5
		c-21-18-69-24-58-7c3,6,1,10-6,10s-2,11,11,25c32,34,14,32-24-2c-17-16-25-21-18-13c18,21,15,32-9,25c-15-5-19-4-15,4
		c10,16-1,14-32-6c-26-17-26-16,7,27l35,45l-38-35l-37-35l5,27c2,15,7,31,10,36c7,12-26,11-41-1c-9-6-13-6-13,2c0,7-4,9-10,6
		c-5-3-10-2-10,4s10,15,21,22c12,6,18,14,13,18c-13,9-11,36,6,57c12,15,9,14-16-3c-17-12-37-29-44-38c-19-23-29-18-24,10
		c4,26,4,26-21,9c-14-9-28-14-31-11s13,17,35,31c23,15,41,29,41,32c0,4-6,2-13-4c-17-15-60-3-53,14c3,9-1,11-12,8c-9-3-4,6,13,21
		c23,20,24,24,8,16c-18-9-23-9-23,1c-1,7-7,1-15-14s-24-30-36-33c-29-10-37,3-8,14c13,5,18,10,10,10c-11,1-10,6,3,26
		c10,15,12,25,6,25s-8,5-5,10c8,14,1,13-42-5c-46-20-50-19-28,5c18,20,18,21-1,14c-10-4-25-12-33-18c-11-8-13-8-7,2c4,7,31,28,59,47
		c54,36,57,48,5,17c-28-16-30-16-39,0c-8,14-15,15-36,7c-23-8-24-8-13,6c7,8,9,15,4,15s0,7,10,15c23,18,17,19-20,5c-24-9-26-8-21,10
		c5,20,5,20-21-1c-16-12-28-16-30-10s-8,9-13,5c-5-3-9-1-9,4c0,6,17,17,38,26l37,17l-32-4c-32-3-41,2-26,17c4,3,8,13,9,22
		c2,11-1,12-11,4c-18-15-31,6-14,26c6,8,9,17,6,20c-8,8-70,9-92,0c-16-6-15-4,5,14c14,12,18,20,9,17s-22-1-30,4c-11,7-12,12-2,28
		c11,17,10,19-2,15c-8-4-15-2-15,4s6,12,13,15c9,3,9,8,1,17c-8,8-14,8-18,1c-5-7-14-7-31,1c-13,6-22,15-19,19c6,10-17,2-56-18
		c-33-17-40-6-11,18c19,16,20,19,6,19c-17,0-17,1-2,18c20,22,22,36,4,29c-21-8-14,33,8,49c23,17,12,18-18,2c-12-6-31-13-42-14
		s-31-5-44-9c-21-7-22-6-12,12c6,12,18,24,28,27c14,6,15,9,3,16c-8,5-21,5-32-1c-31-17-20,0,15,21c35,22,29,25-22,10l-34-10l29,32
		l29,32l-35-26c-40-28-87-47-76-29c4,6,13,11,20,11c8,0,19,7,26,15c11,13,6,14-35,10c-43-4-46-3-34,12c12,14,11,15-11,9
		c-14-4-34-10-45-12c-20-5-20-5-1,10c12,10,15,16,7,16c-11,0-11,3,0,17c10,12,4,10-18-5c-17-12-41-22-53-22c-19,0-17,4,16,35
		c35,34,36,35,10,25c-15-5-34-17-42-25c-9-8-21-15-27-15c-7,0-6,4,3,10c11,7,11,10,2,10c-8,0-10,5-6,12c5,7,2,9-9,5
		c-12-5-14,0-11,20c4,22,3,24-10,14c-8-7-23-11-33-8c-16,4-15,6,4,12c13,4,20,11,18,16c-3,4,3,12,12,18c27,16,13,13-45-9
		c-67-26-85-25-47,1c25,18,27,20,8,16c-13-3-23-2-23,2c0,5,10,13,23,20c19,10,17,11-16,6c-24-4-37-3-33,3c8,13-20,23-41,15
		c-11-4-14-3-9,5c4,7,16,12,27,12c10,0,19,5,19,10c0,6-9,10-21,10c-13,0-18,4-14,13c4,6-1,3-9-7c-19-23-21-14-5,17c12,22,12,22-10,3
		c-11-11-21-25-21-33c0-7-4-13-10-13c-5,0-7,6-4,14c4,11,0,13-17,9c-15-4-20-3-15,5c4,7,3,12-3,12c-5,0-13-4-16-10c-3-5-11-10-17-10
		c-18,0,13,30,51,50c20,11,30,19,22,20c-11,0-11,3,0,17c8,9-2,5-21-9c-19-15-48-32-64-38c-27-10-28-9-23,12s4,21-16-5
		c-13-15-28-27-35-27c-19,0-14,32,11,58l22,25l-30-8c-35-8-85-13-85-7c0,2,5,13,12,25c10,20,10,21-5,8c-10-7-17-19-17-26
		s-11-12-24-11c-18,1-22,4-14,14c8,9,7,11-6,6c-27-10-19,23,14,58c38,39,38,45,1,19c-16-12-34-21-41-21c-6,0-9-4-5-9c3-5,0-13-6-17
		c-8-4-9-3-5,4c10,17,2,15-41-9c-27-15-33-17-24-5c9,10,9,16,3,16s-10,6-8,13c1,6,1,9-1,5c-3-5-11-8-19-8s-14-6-14-12c0-10-2-10-8,0
		c-6,9-12,6-20-13c-6-14-16-25-22-25c-14,0-13,5,11,51c11,23,17,39,12,36s-19-26-32-51c-12-25-27-46-33-46c-5,0,1,19,14,43l25,43
		l-34-11c-19-6-39-17-45-23c-17-17-33-15-18,3c22,26,2,16-25-12c-14-15-25-23-25-17c0,5,6,16,13,23c10,10,6,10-17,1c-25-9-28-8-22,7
		c4,12-1,9-14-7l-21-25l5,25c5,20,3,19-9-6c-8-17-21-34-30-37c-20-8-19,2,2,20c17,14,17,14-2,8c-11-4-26-8-33-9s-18-8-24-14
		c-18-18-38-15-39,6c0,11-5,6-14-13c-7-16-11-33-9-36c2-4-3-12-11-19c-10-9-15-9-15-1c0,6,6,11,13,11c6,0,4,5-5,11
		c-10,5-18,15-18,22c0,8,3,7,9-2c7-10,10-8,16,10c4,13,19,36,33,51s23,30,20,33s-24-16-46-42c-90-107-84-101-79-75c3,12,1,20-4,16
		c-5-3-9-10-9-15c0-14-42-69-53-69c-5,0-2,11,7,25c19,28,20,35,6,35c-5,0-17-15-26-33c-11-21-19-27-22-18c-3,10-9,7-18-10
		s-13-19-14-8c0,9,7,22,15,29s15,10,15,8c0-3,18,12,39,33c22,20,60,47,85,60c25,12,44,24,42,26c-3,4-27-6-91-36c-5-2-3,4,5,15
		c8,10-11-4-42-31c-32-28-58-53-58-57c0-16-19-8-23,10c-3,10-5,4-6-13c-2-40-40-81-79-87c-29-4-32-2-26,16c3,12-5,6-20-15
		c-28-41-56-57-56-33c0,8-5,12-10,9c-6-4-8-10-5-15c7-11-30-50-46-50c-6,0-13,9-16,21c-5,17-8,14-24-20c-10-23-23-41-29-41
		s-8,6-5,13c4,6-1,3-10-8s-20-19-25-18c-5,2-23-17-40-42s-39-49-50-55s-17-16-14-24c3-7-2-19-11-26c-17-14-21,0-4,17c7,7,6,12-5,16
		c-10,4-16,1-16-6s-13-25-28-40c-30-28-48-36-37-14c4,6-5-3-20-21c-14-17-32-32-40-32c-7,0-16-6-19-12c-3-7-4-1-2,14c1,15-1,25-5,22
		c-16-10-9,7,21,52c17,24,28,44,25,44c-12,0-86-126-106-180c-19-52-53-92-84-99c-5-1-18-10-27-18c-17-15-18-14-19,13
		c-1,25-2,23-9-11c-4-22-6-45-3-51c2-7-1-15-8-20c-9-5-10-2-5,11c5,15,4,16-9,5c-9-7-14-19-11-26c3-8,2-13-3-11c-4,1-29-20-55-48
		l-47-50l5,35c5,31,4,30-9-10c-8-24-22-48-30-53c-8-4-15-14-15-22s-4-17-10-20c-6-4-7,1-4,12c4,11-4,6-18-11c-14-16-32-30-41-32
		c-14-2-12,6,9,43c31,57,26,67-7,13c-13-23-30-48-37-58c-12-15-12-14-7,8c5,19,4,22-4,10c-10-13-11-13-11,0c-1,8-12-9-25-39
		c-17-37-29-52-39-48c-8,3-17,1-20-6c-3-8-5-7-5,2c-1,8,7,20,17,27c16,13,16,14-3,7c-16-5-14,0,10,27l30,33l-30-20
		c-16-12-56-44-88-72s-61-51-64-51s-3,10,0,22c6,20,3,19-17-6l-22-29l6,59c8,64,4,86-6,36c-5-27-9-30-25-22c-14,8-19,6-24-10
		s-9-18-25-8c-14,9-16,16-8,25c7,9,7,13,0,13c-6,0-16-9-22-21c-7-11-18-18-25-15c-8,3-17,1-20-4c-3-6-16-15-28-21c-18-9-20-9-9,2
		c19,21,14,34-7,15c-18-16-18-15-15,20c2,34,2,35-12,16c-17-25-84-65-84-51c0,6-7,8-16,5c-14-5-15-4-4,9c15,18,34,20,24,3
		c-5-7,6,1,23,17c17,17,29,31,28,33c-2,2-26-8-54-22s-53-26-56-26s2,16,10,36c20,49,19,50-9,17c-27-32-86-69-86-54c0,5,6,12,13,14
		c6,3-6,3-28,0c-39-6-39-5-23,13c13,15,14,21,3,31c-9,8-15,9-24,0c-8-8-11-6-11,7c0,14-3,16-12,8c-13-10-40-15-68-13
		c-22,2,9,29,38,34c12,2,27,8,33,14c7,7-1,8-30,3c-34-6-39-5-30,6c6,8,8,14,5,14c-4,0-2,10,4,23c7,13,1,9-15-10c-15-18-31-33-36-33
		c-15,0-10,22,9,44l17,20l-30-18c-16-10-40-28-52-39c-13-11-26-17-30-14c-3,4,3,15,14,24c26,23,20,47-8,32c-11-6-30-9-42-6
		c-22,3-22,4,3,15c14,6,21,11,15,12c-5,0-3,5,5,10c12,8,9,10-12,10c-29,0-38,14-15,24c6,3,1,3-12,0c-16-4-21-3-17,5c9,15-7,14-22-1
		c-21-21-23-2-1,25c11,15,16,27,10,27c-5,0-12-4-15-9s-21-14-38-20c-27-9-30-8-18,2c8,6,22,21,30,32c15,19,15,19-12,2
		c-23-14-28-15-28-3c0,7,7,17,16,20c9,4,14,9,11,13c-8,7-66-15-87-33c-14-11-15-8-12,28l4,40l-22-22c-25-25-40-20-19,7
		c12,14,12,15,0,9c-9-6-12-4-9,5c3,8,10,14,16,14c5,0,14,4,19,9s3,6-4,2s-13-3-13,2c0,11,29,37,50,45c13,5,13,6-1,6
		c-9,1-33-16-55-37c-21-20-32-29-25-19c15,19,1,23-18,5c-10-11-11-10-6,5c4,9,13,17,20,17c8,0,17,5,20,10c8,14-48,4-84-14
		c-14-7-32-11-39-9c-16,6,16,54,67,102c20,19,27,28,16,20c-11-7-37-29-58-48c-21-20-37-29-35-21c2,9-3,14-13,12c-23-3-20,29,5,57
		c11,13,15,21,7,16c-11-6-13-4-7,10c6,18,6,18-12,2c-32-29-43-21-25,20l15,38l-21-19c-18-17-21-17-21-3c0,9,12,23,28,32l27,16l-30-6
		c-16-4-43-13-59-21c-39-19-40-18-19,10c10,13,22,21,27,18s6,0,2,7c-5,7-15,9-25,6c-27-12-72-15-66-6c13,21-18,21-41,0
		c-26-24-31-20-14,12c6,10,18,19,26,19c9,0,14,6,12,12c-5,14,27,43,64,57c17,7,19,10,5,10c-10,1-34-6-54-14c-45-19-62-19-37,0
		c16,13,16,14,2,9c-20-7-24,11-5,23c6,4,19,17,27,28c10,13,4,11-21-8c-20-15-41-27-48-27c-6,0-24-8-39-17l-27-17l25,29l25,28l-32-23
		c-39-28-47-23-33,16c10,29,9,29-6,7c-21-29-38-30-23-2c11,21,10,21-12,5c-13-9-27-16-30-16c-15,0-1,34,22,53c23,20,21,20-28,0
		c-15-6-16-4-6,9c19,22,3,31-21,11c-21-18-21-18-2,4c10,13,22,20,27,18c4-3,10-1,13,4c11,17-8,19-49,6l-40-14l28,24
		c33,29,34,39,4,32c-12-4-28-2-36,2c-11,7-6,13,20,27c28,14,31,18,16,23c-17,6-17,9,5,36c12,17,32,38,43,47c17,15,15,15-18-1
		c-21-11-45-25-54-33c-14-11-16-11-11,4c6,14,4,15-20,2c-35-18-59-18-59,1c0,8,4,12,8,10c15-10,27,20,14,32c-8,8-16,9-20,4
		c-3-6-14-9-25-8c-10,1-16,5-13,10c3,4,7,6,10,3c6-6,63,21,63,29c0,5-16,2-75-12c-12-3-8,4,13,18c18,12,31,24,28,26c-3,3-22-8-43-24
		c-55-43-71-51-48-23l20,24l-27-17c-31-19-38-21-38-8c0,5,16,15,35,22l35,13l-33,11c-20,7-37,8-44,2c-19-14-16,8,2,23
		c12,10,15,10,15-1c0-7,10,1,23,18c13,18,34,41,48,53l24,22l-35-21c-19-11-34-26-32-32c1-6-2-8-8-4s-22,0-35-9s-29-16-35-16
		c-18,0-11,18,11,25c12,4,18,12,15,21c-3,8,0,14,6,14s9,3,6,6c-4,3-16,1-27-6c-26-13-27-3-3,23c10,13,11,17,3,12c-11-6-13-4-7,10
		c5,15,4,16-9,5c-8-7-15-9-15-5c0,5-9,0-20-10s-23-16-26-13s12,20,33,37l38,32l-42-15c-48-17-58-7-17,15l26,14l-23,5
		c-23,6-22,7,16,33c22,15,35,27,29,27s-26-10-45-23c-61-41-66-44-49-22c14,17,14,18-8,6c-31-17-40-6-17,19c10,11,14,20,10,20
		c-5,0,0,7,11,15c18,14,17,14-9,5c-38-13-38-14-27,15c11,28-3,35-18,9c-7-13-62-29-62-18c0,2,17,15,37,29c21,14,33,25,27,25
		c-5,0-19-7-30-15c-30-22-36-18-17,13c17,25,17,26,0,13c-21-17-22-8-1,13c14,15,14,16-1,16c-9,0-14,4-10,9c3,5,1,12-4,16
		c-5,3-14-3-20-12c-9-16-10-16-11-1c0,9,5,20,10,23c6,3,10,11,10,16c0,6-12,1-27-10c-28-23-43-21-23,4c10,12,10,15-5,15
		c-14,0-13,3,6,21l24,20l-23-11c-51-25-42-1,13,33c83,52,56,46-39-8c-43-25-80-45-81-45c-2,0-1,9,2,20s9,20,13,20s11,7,14,16
		c5,13,1,15-20,10c-19-5-24-4-19,6c4,7-3,2-14-11c-27-30-35-24-17,11c17,32,9,44-13,20c-9-10-12-12-7-5s5,13,0,13c-4,0,3,11,16,25
		c23,25,23,25,2,25c-11,0-24-4-27-10c-8-12-25-13-25-1c0,5,16,16,35,25c38,18,47,31,15,21c-12-4-20-2-20,4c0,7-13,6-36-4
		c-49-20-51-19-24,10c12,13,26,22,30,20c5-3,11,2,14,11c9,24,7,28-9,14c-8-6-20-10-27-8c-7,3,5,14,27,26s37,21,34,22
		c-14,1-75-25-87-37c-25-25-35-13-11,13l24,26l-25-6l-25-7l25,20c30,25,20,27-21,5c-45-23-46-10-2,21c34,23,35,25,11,19
		c-32-7-35,1-12,36c11,18,8,16-10-5c-14-16-26-33-26-36c0-11-54-18-70-9c-12,7-7,12,20,25c20,9,25,14,12,11c-20-4-21-2-10,11
		c7,8,21,19,33,23c19,8,19,9-3,9c-16,1-21,5-16,14c5,6-7-1-26-17c-37-30-55-20-24,15c13,15,14,19,3,19c-10,1-8,5,5,15
		c28,21,12,30-18,10c-14-9-31-15-38-12c-9,4-8,6,3,6c9,1,23,8,30,18c13,15,12,15-9,4c-22-12-23-11-12,9c11,21,11,21-22,5l-33-16
		l33,30c36,34,35,40-3,15c-35-23-31-4,5,26c41,34,40,51-2,39c-17-5-36-13-42-19c-19-19-29-10-11,10s18,21-1,14c-17-7-17-6-5,9
		s11,17-5,18c-16,0-16,2,4,9c12,5,22,12,22,15c0,4-4,3-10,0c-5-3-10-1-10,5s14,17,31,24c20,9,27,15,18,18c-8,3-29-1-48-8
		c-57-24-84-26-78-6c2,9,6,24,8,32s9,18,14,22c6,4-3,8-19,8c-29,0-29,0-10,21c19,22,19,22-5,9l-24-12l24,38l24,39l-29-19
		c-29-18-29-18-23,3c4,18,3,19-16,10c-16-7-13-2,8,16c18,16,22,23,10,17c-11-5-33-12-50-16l-30-7l25,21c14,11,34,20,45,20
		c20,1,20,1,0,9c-12,5-33,2-53-6c-37-15-37-8,1,34l20,22l-32-9c-38-11-40-5-3,14c26,14,26,14-25,12c-29-2-53-1-53,0c0,2,16,12,36,22
		l37,19l-33,7c-32,6-33,7-14,22c17,14,17,15,1,10c-15-5-17-2-12,14c9,29-14,25-25-5c-5-14-17-25-27-25c-15,0-15,1,1,13
		c18,13,18,14,2,20c-13,5-15,13-10,29c6,21,6,22-12,8s-18-14-5,3c7,9,21,17,30,18c10,0,12,2,3,6c-6,2-10,9-6,14c3,5-2,9-10,9
		c-9,0-16-4-16-10c0-5-6-10-12-10c-7,1-2,10,12,20c14,11,30,24,37,30c7,5,18,10,24,10c7,0,10,3,7,6c-4,3-22,1-42-4c-26-8-36-7-36,1
		s-4,7-12-1c-22-22-29-12-11,16l17,27l-23-22c-12-13-23-23-24-23c-2,0-2,12-2,28c1,23,8,29,48,43c26,8,49,18,53,21c6,7-72-9-90-18
		c-6-3,0,4,14,17l25,22l-26-5c-21-4-26-1-24,11c2,9,4,17,5,19c2,1,3,5,4,10c1,4,5,13,10,21c9,14-30-8-69-38c-19-15-19-15-5,4
		c8,11,20,24,25,28c6,5,0,7-13,4c-19-5-21-3-11,9c14,17-2,19-21,2c-8-7,0,4,19,24c19,21,32,40,29,43s-11-1-18-10c-14-17-30-20-30-6
		c0,5,17,20,37,32c43,27,30,36-21,15c-20-8-34-11-31-6c3,6,1,10-5,10s-9,4-6,9c4,5-2,7-13,4c-37-10-30,16,11,41c46,28,41,33-11,15
		c-25-9-35-9-44,1s-9,11,0,6c6-3,14-3,17,2s-1,9-9,10s-22,3-30,4c-23,2,7,32,59,58l41,21l-35-6c-19-4-39-11-44-16c-13-11-26-12-26,0
		c0,4,19,33,42,62c32,41,35,47,12,27c-29-27-84-53-84-41c0,4,7,14,16,24s11,19,5,23c-5,4-19-3-30-15l-20-22l4,23c2,12,12,31,21,41
		c14,15,14,19,3,19c-8,1,4,17,26,36c40,35,21,37-24,2c-13-10-28-18-34-18s-2,7,9,15c12,9,14,14,5,15c-10,0-9,6,5,28
		c15,23,15,25,1,13c-9-7-17-10-17-5c0,4-5,3-12-4c-15-15-28-15-28-1c0,5,28,24,63,40c34,16,51,27,37,23s-37-13-52-20
		c-38-20-44-17-22,8l19,21l-28-18c-32-20-52-11-23,11c19,14,19,14-3,14c-16,0-21,4-17,15c3,8,1,15-4,15c-17,0-11,20,15,45
		c13,14,21,25,17,25c-4,1,13,12,38,25c55,30,51,31-17,5c-29-11-53-16-53-11c0,16,50,70,70,76c11,4,20,11,20,17s8,17,18,24
		c12,10,13,13,2,10c-8-2-31-7-50-10c-33-5-34-5-15,10c20,16,19,16-4,9l-23-7l18,31c21,36,12,52-16,26c-11-10-20-14-20-9
		c0,16,23,34,44,35c12,0,15,3,8,6c-8,3-5,11,10,25c13,11,17,17,11,13c-7-3-13-2-13,4c0,5-3,16-6,24c-4,11,7,19,38,30s36,16,20,16
		c-13,1-32-4-44-10c-28-15-35-3-12,23c13,16,14,19,2,10c-14-11-16-9-16,22c0,26,4,33,15,29c12-5,13,2,9,33c-3,22-3,30,0,20
		c6-20,28-46,39-46c3,0,1,9-5,20c-13,23,7,28,29,8c12-11,13-9,6,7c-15,41-17,55-6,55c6,0,11,8,12,18c0,13,3,12,11-5
		c6-13,15-23,20-23s4,8-1,19c-34,63-47,142-21,126c5-3,13,14,18,37c6,24,10,34,11,23c1-14,8-20,24-20c23,0,23,1,10,33
		c-7,17-9,32-5,32c5,0,14,10,20,23c6,12,11,16,11,10c1-7,6-13,11-13c14,0,12,38-2,42c-10,4-10,10-1,29c10,20,12,21,12,5
		c1-20,52-135,61-135c3-1,3,20,1,46c-3,45-2,47,15,33c16-14,17-13,9,5c-13,31-19,88-8,82c5-3,15-28,23-56c13-48,36-64,24-16
		c-3,13-2,31,3,40c7,12,14,4,32-40c13-30,27-55,32-55c4,0,0,19-10,43c-11,25-18,65-18,95c1,51,1,52,14,25l13-28l-5,33
		c-2,17,0,32,5,32c6,0,10,7,10,15c0,10,7,15,18,13c13-2,16,3,14,25c-2,15,1,27,7,27s11-8,11-17c0-10,6-30,14-45c8-14,17-44,21-65
		c3-21,13-49,21-63l15-25l-6,25c-41,171-37,228,5,72c18-67,22-43,5,29c-18,79-18,79-1,79c8,0,17-12,20-26c4-15,9-24,12-21s0,23-7,46
		c-9,29-9,47-2,63l11,23l12-27c17-36,29-35,37,3c8,40,16,29,42-57c11-39,28-77,36-84c19-16,19-11-1,29c-15,31-20,79-15,161l2,35
		l19-40c11-22,18-30,16-17c-2,12,0,22,5,22c4,0,6,7,3,15c-4,8-2,15,4,15s12-6,15-12c2-7,7,6,11,29c9,50,26,67,26,26c0-15,5-35,10-43
		c8-12,10-11,10,8c0,32,17,27,25-8c12-56,23-40,19,30c-2,39-6,75-9,80c-4,6-1,10,4,10c6,0,11-4,11-8c0-5,7-17,15-28c14-18,14-17,5,9
		c-11,30,1,70,14,48c4-6,2-11-4-11s-8-4-5-10c7-12,26-14,23-2c0,4,2,15,5,25c4,9,9,24,12,33c4,13,8,14,20,4c10-9,15-9,15-1
		c0,6,5,11,10,11c6,0,10-11,10-24c0-14,4-27,9-31c6-3,8,9,7,27c-2,18-1,25,1,16c2-10,8-18,13-18s7,7,4,15c-5,11-2,13,11,9
		c15-6,16-1,10,40c-9,58,10,63,25,6c6-21,15-42,19-45c10-6,4,46-10,82c-15,39-10,47,11,22c10-13,20-19,20-14c13,117,12,114,35,95
		c13-11,15-9,15,14c0,34,18,33,26-1c17-76,25-103,34-108c12-8,13-9-5,49c-14,46-20,98-8,69c2-7,9-13,13-13c5,0,3,14-4,31
		c-13,30-11,69,3,69c3,0,14-17,23-38c17-35,18-28,3,11c-5,13-3,16,8,11c11-4,18-26,22-69c4-36,14-72,22-82c14-17,14-17,7,2
		c-9,26-12,149-4,195l6,35l12-45c11-43,32-85,32-67c0,5-7,33-16,63c-14,50-14,59,0,92c8,20,15,31,15,25c1-7,6-13,12-13c5,0,8,3,5,8
		c-2,4-1,23,3,42l8,35l7-27c4-15,14-29,21-32c11-4,12,0,5,20c-13,33-12,44,1,22c5-10,15-18,20-18c6,0,7,5,4,10c-4,6-8,25-10,43
		c-1,18-5,38-6,46c-3,9,8,19,24,25c25,9,31,7,64-29c20-22,33-32,30-22c-16,43-36,126-42,168c-5,41-3,47,17,57l23,12l-24-6
		c-23-6-23-5-17,39l7,46l-28-5l-28-5l25,24c17,16,27,20,32,13c5-6,8-3,8,10c0,11,6,26,13,34c6,7-6,3-27-10c-25-15-37-18-32-9
		c3,8,9,21,12,30s17,22,30,28s24,16,24,22s-14,2-32-9l-33-21v25c0,17,9,28,30,39c24,12,26,15,10,16c-16,0-14,3,10,14
		c17,8,24,14,17,15c-7,0-22-5-34-11c-34-18-29-5,17,44c39,39,41,45,20,37c-33-12-48-13-41-1c9,13-19,7-38-8c-11-9-16-10-16-2
		c0,6,5,11,10,11c6,0,10,7,10,16c0,8,14,20,31,26c19,7,26,13,19,18c-7,4,0,12,20,20c17,7,29,15,27,17c-3,2-28-5-56-17
		c-61-24-67-24-52-7c6,8,8,17,5,20c-11,10,48,78,85,98c35,18,35,19,6,12c-16-3-32-9-35-13s-14-4-25,1c-11,4-14,8-6,8c8,1,12,4,9,7
		c-4,3-16,1-27-6c-20-10-29-1-14,14c4,3,8,16,10,28s9,28,16,36c10,12,6,12-20-1c-37-20-43-21-43-7c0,6,11,15,25,20c28,11,34,22,8,14
		c-11-3-6,5,12,21l30,26l-39-15c-46-19-54-20-39-5c6,6,9,18,6,25c-3,8,5,18,18,23s18,10,12,10c-24,2-13,25,34,68c39,37,42,42,19,33
		c-15-5-36-15-46-20c-16-9-18-8-13,6c5,15,4,15-20-1c-16-10-27-13-27-6c0,6,3,11,8,11c4,0,7,13,7,29s-3,27-7,24c-5-2-8-11-8-19
		s-5-14-11-14c-5,0-7,5-3,12c5,8,2,9-10,5c-20-8-14,6,18,41c20,22,20,23,1,16c-20-7-20-7,0,17c11,13,13,18,5,12c-8-7-23-13-34-12
		c-20,0-20,1,2,11c12,6,22,15,22,20c0,13-27,9-40-7c-7-8-16-15-20-15c-13,0,3,55,19,67c27,20,8,20-29,1c-19-11-26-16-16-13
		c19,6,19,5,1-15c-10-11-23-20-29-20s-6,4,1,11c6,6,9,18,6,27c-4,9,5,24,23,39c20,16,23,21,9,16c-18-6-19-5-5,12c15,19,14,19-12,2
		c-16-10-28-14-28-10c0,5,9,14,20,21c12,7,18,17,15,22s12,21,35,36c22,15,40,29,40,31c0,5-27-11-75-44c-24-16-39-17-28,0
		c4,6,8,18,8,25s15,28,33,46l33,34l-38-14c-59-21-72-17-40,11c31,28,24,34-11,9c-28-20-43-10-16,11c23,18,11,19-33,3
		c-18-6-35-9-39-5c-4,3,9,28,29,55l35,49l-36-19c-41-20-62-23-62-7c0,5,4,8,9,5c5-4,7,3,4,14s3,32,12,47c16,25,14,24-20-7l-38-35
		l7,35c5,27,4,32-6,22c-17-17-33-15-18,3c7,8,18,15,26,15c7,0,16,4,19,10c4,7-3,7-20,0c-50-19-63,14-17,43c23,15,24,17,5,12
		s-22-3-16,12c5,14,4,16-8,7c-17-13-49-25-49-19c0,3,18,14,40,25s40,23,40,26c0,9-43-7-72-27c-39-28-44-23-10,11c44,44,34,87-13,56
		c-25-17-26-17-13,5c7,12,31,30,53,40l40,19l-35-4c-19-2-44-8-55-11c-11-4,3,13,30,39l50,47l-58-42c-32-23-60-40-62-37
		c-6,6,44,58,57,58c6,0,9,3,6,6c-4,3-20-2-37-10c-38-20-52-20-27-1c19,14,18,15-10,15c-17,0-34-3-40-7c-5-5,0,1,11,11
		c14,13,16,20,7,23c-6,3-10,9-7,13c3,5-9,5-27-1c-18-5-36-9-40-9c-16,0-7,32,16,54c22,23,23,25,5,40c-11,9-19,11-19,6
		c0-11-50-33-58-26c-2,3,11,19,29,35c18,17,30,31,25,31s-3,7,4,15c8,9,9,15,2,15c-6,0-13-4-16-9s-18-11-33-14c-24-4-25-4-10,8
		c9,7,17,17,17,23s15,23,33,37c20,17,24,24,12,20c-41-15-73-12-78,7c-3,10,2,23,11,29c15,10,15,10,0,5c-10-3-26-9-35-13
		c-14-5-12,0,6,20c27,30,21,49-7,24c-10-10-22-14-25-11c-4,4-13,1-21-5c-12-10-13-8-9,10c4,12,23,29,47,40c50,23,34,25-19,3
		c-29-12-40-13-49-3c-8,9-8,10,3,4c10-6,12-4,7,4c-6,9-13,8-28-6c-21-18-21-18-9,5c7,13,28,33,47,44s34,22,34,23c0,9-66-19-77-33
		c-7-9-13-12-13-6c0,14,13,30,35,42c18,10,18,11,2,12c-17,0-17,2,3,35c12,19,19,35,17,35c-3,0-15-16-27-35c-21-35-48-49-36-20
		c3,8,2,14-2,14c-30-5-35,3-13,21c21,18,21,20,5,20s-17,2-4,11c12,8,9,9-12,5c-35-8-37,11-3,20c14,3,25,10,25,15s-16,3-35-5
		c-38-16-45-11-17,11c14,11,11,11-14-1c-19-9-35-11-45-5c-11,7-11,9,4,9c9,0,17,5,17,11c0,5-6,7-12,4c-7-4,3,8,22,26l34,32l-33-6
		c-31-7-33-6-27,18c9,34,0,32-19-5c-9-16-21-30-28-30s-8,3-2,8c6,4,11,18,12,32c2,21,1,23-8,8c-5-10-15-18-21-18c-9,0-9,3,0,12
		c20,20,13,28-14,17c-38-14-40-5-5,24c34,28,31,40-5,27c-13-5-24-6-24-1s8,12,17,15c12,5,13,10,5,18c-9,9-17,7-33-8l-22-19l18,28
		l18,28l-28-7c-25-6-26-5-16,15c11,19,9,21-21,22c-18,0-27,3-20,6c6,2,12,12,12,20c0,15-12,15-54-3c-15-6-18-4-13,9c3,8,1,18-6,21
		c-7,2-5,5,4,5c9,1,24,10,34,21c18,19,17,20-3,20c-11,0-33-5-49-10l-28-10l30,27l30,26l-28-5c-30-6-46,7-28,25c6,6,11,16,11,21
		c0,6-5,5-12-2c-17-17-33-15-18,3c19,23,3,18-20-7c-11-12-23-18-27-15c-3,4-1,7,5,7c7,0,12,7,12,15c0,7,8,19,18,24c16,10,16,12,0,24
		c-12,10-14,17-6,32c6,12,0,9-15-7c-30-34-36-35-29-3c3,20,1,24-11,19c-9-3-13-12-10-20c3-9-1-14-13-14c-13,0-15,3-7,8
		c7,4,9,13,4,21c-6,9-11,10-15,3c-4-6-14-8-23-5c-12,5-14,3-8-8s5-12-5-2c-11,10-9,16,11,33l24,21l-35-17c-34-17-35-16-20,1
		c14,17,13,18-5,11c-57-23-60-19-17,27c45,50,50,60,27,51c-8-3-13-11-12-16c1-6-4-13-12-16s-11,0-7,7c5,7,1,9-8,5c-10-4-16-1-16,7
		c0,9-4,8-12-3c-15-17-49-32-45-19c2,9-2,11-29,11c-8,0-13-4-10-9c4-5-3-7-13-4c-19,5-19,5,0,39c22,41,24,51,6,35c-8-6-16-8-20-5
		c-3,3-25-5-49-18c-23-14-52-28-62-31c-17-7-17-5-5,10c7,10,20,24,29,32c13,11,9,13-27,8c-28-3-43-1-43,6c0,6-6,3-12-6
		c-14-17-68-41-76-33c-5,6,42,26,59,26c5,0,9,8,9,18s-3,13-8,6c-4-6-29-21-57-33l-50-21l35,31l35,30l-45-22c-35-17-42-18-31-5
		c12,15,12,16-5,9c-17-6-17-5-5,10c19,24-2,21-24-3c-24-26-54-28-34-2c13,16,12,16-6,1c-11-9-27-20-35-24c-12-6-13-5-2,6
		c6,7,12,20,12,29c-1,8-12-4-26-27c-25-41-50-59-38-28c4,8,2,15-3,15s-13-13-19-28c-6-16-21-31-32-34c-18-5-20-3-12,12
		c5,10,22,29,37,42c25,21,59,68,50,68C3395,12390,3383,12379,3370,12365z M3835,12330c-3-5-16-15-28-21c-21-10-21-9,2,10
		C3834,12342,3845,12346,3835,12330z M3460,12326c0-3-4-8-10-11c-5-3-10-1-10,4c0,6,5,11,10,11C3456,12330,3460,12328,3460,12326z
		 M3810,12280c0-5-5-10-11-10c-5,0-7,5-4,10c3,6,8,10,11,10C3808,12290,3810,12286,3810,12280z M3960,12255c-13-14-26-23-28-20
		c-7,7,29,45,41,45C3979,12280,3973,12269,3960,12255z M3150,12196c0-3-4-8-10-11c-5-3-10-1-10,4c0,6,5,11,10,11
		C3146,12200,3150,12198,3150,12196z M3070,12150c-6-11-15-20-21-20s-8-4-5-9c3-4-4-17-17-27c-18-16-19-16-8-1c21,26,1,20-33-10
		c-29-26-29-26-11-3C3027,12147,3095,12197,3070,12150z M4030,12155c0-2-10-9-22-15c-22-11-22-10-4,4
		C4025,12161,4030,12163,4030,12155z M2886,12052c-18-16-18-16-6,6c6,13,14,21,18,18C2901,12072,2896,12062,2886,12052z M2741,11889
		c-13-11-26-17-29-15c-3,3,6,14,19,25s26,17,29,14C2763,11911,2754,11900,2741,11889z M2650,11845c-18-19-36-32-39-29
		c-6,5,57,64,68,64C2682,11880,2669,11864,2650,11845z M2550,11736c0-3-4-8-10-11c-5-3-10-1-10,4c0,6,5,11,10,11
		C2546,11740,2550,11738,2550,11736z M4460,11725c0-2-10-9-22-15c-22-11-22-10-4,4C4455,11731,4460,11733,4460,11725z M4559,11627
		c-2-1-14-11-26-21c-13-11-23-16-23-13c0,10,31,37,42,37C4558,11630,4561,11629,4559,11627z M2049,11256c-7-14-16-26-21-26
		s-1,14,7,31C2055,11298,2066,11294,2049,11256z M1904,11123c-42-51-47-54-40-28c6,28,73,101,83,91
		C1950,11184,1930,11155,1904,11123z M4860,11120c-8-5-22-10-30-10c-13,0-13,1,0,10c8,5,22,10,30,10
		C4873,11130,4873,11129,4860,11120z M4890,11066c0-2-7-7-16-10c-8-3-12-2-9,4C4871,11070,4890,11074,4890,11066z M5007,10967
		c0-7-8-13-18-13c-13,0-15,3-7,13c6,7,14,13,18,13C5003,10980,5007,10974,5007,10967z M1736,10930c-5-45-16-49-16-7c0,21,4,37,10,37
		C1735,10960,1738,10946,1736,10930z M1707,10900c-6-67-17-76-17-13c0,44,5,63,17,63C1709,10950,1709,10927,1707,10900z M1763,10915
		c-3-9-8-14-10-11c-3,3-2,9,2,15C1764,10935,1770,10932,1763,10915z M5020,10865c-7-8-17-15-22-15c-6,0-5,7,2,15s17,15,22,15
		C5028,10880,5027,10873,5020,10865z M1611,10675c-11-20-29-44-40-51c-20-14-20-14-7,18c14,33,55,82,63,74
		C1629,10714,1622,10695,1611,10675z M5108,10670c-7-10-14-17-17-15c-4,4,18,35,25,35C5118,10690,5115,10681,5108,10670z
		 M1574,10586c-9-15-19-24-22-22c-2,3,3,17,12,32c10,14,20,23,23,21C1589,10614,1584,10600,1574,10586z M5245,10580
		c-10-11-21-17-24-14s3,12,13,20C5262,10606,5266,10603,5245,10580z M5200,10555c-7-9-15-13-18-10c-3,2,1,11,8,20s15,13,18,10
		C5211,10573,5207,10564,5200,10555z M1433,10348c-31-52-84-128-92-132c-5-4-5,9-1,32c6,25,23,49,51,75
		C1434,10362,1447,10369,1433,10348z M5347,10216c0-8-6-12-14-9c-7,3-10,9-7,14C5334,10235,5347,10232,5347,10216z M1371,10177
		c-10-9-11-8-5,6c3,10,9,15,12,12S1378,10184,1371,10177z M1341,10153c-10-17-10-16-11,3c0,23,13,41,18,25
		C1350,10175,1347,10163,1341,10153z M1361,10117c-8-8-11-7-11,4c0,20,13,34,18,19C1371,10133,1367,10123,1361,10117z M1292,10040
		c-18-16-36-30-39-30c-4,0,6,14,22,30c16,17,33,30,39,30S1310,10057,1292,10040z M5413,9980c-3-11-7-20-9-20s-4,9-4,20s4,20,9,20
		S5416,9991,5413,9980z M5372,9958c-7-7-12-8-12-2c0,14,12,26,19,19C5381,9972,5378,9964,5372,9958z M1249,9928c-18-24-34-45-36-47
		s-3,0-3,5c0,10,58,84,67,84C1279,9970,1267,9951,1249,9928z M5400,9936c0-3-4-8-10-11c-5-3-10-1-10,4c0,6,5,11,10,11
		C5396,9940,5400,9938,5400,9936z M5402,9828c-7-7-12-8-12-2c0,14,12,26,19,19C5411,9842,5408,9834,5402,9828z M1209,9679
		c-11-36-14-40-17-20c-4,22,17,76,25,67C1220,9724,1216,9702,1209,9679z M1168,9674c-7-15-14-21-16-15c-2,7,2,18,8,26
		C1178,9707,1181,9703,1168,9674z M1159,9584c-12-27-23-60-25-73c-1-13-6-26-10-30c-15-13,5,81,27,126
		C1180,9668,1187,9648,1159,9584z M1170,9510c-6-11-13-20-16-20c-2,0,0,9,6,20s13,20,16,20C1178,9530,1176,9521,1170,9510z
		 M1141,9423c-10-17-10-16-11,3c0,23,13,41,18,25C1150,9445,1147,9433,1141,9423z M1109,9383c-2-16-7-33-12-40s-10-24-12-39
		c-1-14-14-38-29-52c-33-34-34-13-1,43c13,23,22,45,19,48c-6,6,23,67,32,67C1109,9410,1110,9398,1109,9383z M5430,9319c0-5-4-9-8-9
		c-5,0-9,7-9,15s4,12,9,9C5426,9331,5430,9325,5430,9319z M5458,9265c0-29,0-29-8-5c-4,14-8,36-8,50c-1,23,0,23,8,5
		C5455,9304,5458,9282,5458,9265z M5434,9269c10-51,8-56-24-61c-16-3-30-1-30,4c0,4,8,8,18,8c11,0,18,7,18,20c0,15-5,18-18,14
		c-24-7-24,21,0,35C5424,9305,5427,9303,5434,9269z M1111,9227c-13-13-15,1-4,30c7,17,8,17,11-1C1120,9246,1117,9233,1111,9227z
		 M1078,9167c-14-26-1-34,17-11c8,10,15,14,15,8s-8-19-19-28c-17-15-19-16-25-1c-3,9-2,24,3,32c4,9,7,25,4,37c-3,20-3,20,6,1
		C1084,9193,1084,9178,1078,9167z M1064,9049c-21-21-39-37-42-35c-7,7,43,76,56,76c6,0,12,6,13,13c0,9,2,8,6-1
		C1100,9094,1085,9071,1064,9049z M1104,8945c-4-8-8-15-10-15s-4,7-4,15s4,15,10,15C1105,8960,1107,8953,1104,8945z M1071,8787
		c-10-9-11-8-5,6c3,10,9,15,12,12S1078,8794,1071,8787z M1031,8737c-10-9-11-8-5,6c3,10,9,15,12,12S1038,8744,1031,8737z M1017,8518
		c-3-8-6-5-6,6c-1,11,2,17,5,13C1019,8534,1020,8525,1017,8518z M4730,8444c0-8-5-12-10-9c-6,4-8,11-5,16
		C4724,8465,4730,8462,4730,8444z M4651,8395c-8-46-9-47-10-13s8,73,15,66C4658,8446,4655,8422,4651,8395z M4610,8404c0-8-4-12-10-9
		c-5,3-10,10-10,16c0,5,5,9,10,9C4606,8420,4610,8413,4610,8404z M4600,8349c0-5-4-9-10-9c-5,0-10,7-10,16c0,8,5,12,10,9
		C4596,8362,4600,8355,4600,8349z M4393,8255c-3-9-8-14-10-11c-3,3-2,9,2,15C4394,8275,4400,8272,4393,8255z M1097,8213
		c-3-10-5-2-5,17s2,27,5,18C1099,8238,1099,8222,1097,8213z M4310,8191c0-6-4-13-10-16c-5-3-10,1-10,9c0,9,5,16,10,16
		C4306,8200,4310,8196,4310,8191z M1130,8150c-6-11-13-20-16-20c-2,0,0,9,6,20s13,20,16,20C1138,8170,1136,8161,1130,8150z
		 M4320,8123c0-20-3-24-11-16c-7,7-9,19-6,27C4313,8158,4320,8153,4320,8123z M1126,7943c-11-11-17,4-9,23c7,18,8,18,11,1
		C1130,7957,1129,7946,1126,7943z M4090,7930c0-5-5-10-11-10c-5,0-7,5-4,10c3,6,8,10,11,10C4088,7940,4090,7936,4090,7930z
		 M4057,7848c-3-7-5-2-5,12s2,19,5,13C4059,7866,4059,7854,4057,7848z M1190,7861c0-6-4-13-10-16c-5-3-10,1-10,9c0,9,5,16,10,16
		C1186,7870,1190,7866,1190,7861z M1160,7837c0-2-10-12-22-23l-23-19l19,23C1152,7839,1160,7845,1160,7837z M4037,7798c-3-8-6-5-6,6
		c-1,11,2,17,5,13C4039,7814,4040,7805,4037,7798z M1177,7698c-3-8-6-5-6,6c-1,11,2,17,5,13C1179,7714,1180,7705,1177,7698z
		 M3956,7633c-10-10-19,5-10,18c6,11,8,11,12,0C3960,7644,3959,7636,3956,7633z M4006,7365c-11-8-25-15-30-15c-6,0-2,7,8,15
		c11,8,25,15,30,15C4020,7380,4016,7373,4006,7365z M3966,7325c-11-8-22-12-25-9c-6,6,19,24,34,24C3981,7339,3976,7333,3966,7325z
		 M1319,7094c-17-33-29-30-28,9c0,27,2,29,9,12c8-20,9-20,9,1c1,27,15,41,19,19C1330,7125,1326,7107,1319,7094z M3995,7050
		c-18-20-35-26-35-12c0,4,10,12,23,18C4015,7072,4015,7072,3995,7050z M1326,7034c-5-14-9-15-19-5c-9,9-9,14,3,21
		C1328,7061,1334,7056,1326,7034z M1360,6940c-16-31-23-18-8,15c7,15,14,23,16,17S1366,6951,1360,6940z M1421,6823c-9-16-10-16-11-1
		c0,9,3,25,7,35c7,16,8,17,11,1C1430,6848,1427,6833,1421,6823z M1397,6768c-2-13-4-3-4,22s2,35,4,23C1399,6800,1399,6780,1397,6768
		z M1411,6717c-12-12-21-16-21-10s7,16,15,23s16,20,16,29c1,12,2,12,6-3C1430,6745,1423,6729,1411,6717z M4155,6600
		c-10-11-20-18-23-15c-7,6,18,35,31,35C4168,6620,4165,6611,4155,6600z M1506,6483l-15-28l-1,36c0,41,10,57,22,34
		C1518,6516,1515,6500,1506,6483z M1633,6383c4-20,2-43-3-52c-8-13-9-13-10,5c0,12-3,36-6,53c-4,18-2,31,3,31
		C1623,6420,1630,6404,1633,6383z M4339,6287c-2-1-12-9-22-16c-15-12-17-12-11,3c3,9,13,16,22,16C4336,6290,4341,6289,4339,6287z
		 M1755,6142c-3-3-5,1-5,9c-1,8-7,1-14-16l-13-30l-7,44c-4,29-3,48,6,58c10,13,14,9,25-23C1754,6164,1758,6144,1755,6142z
		 M1805,6001c-8-40-25-50-25-16c0,15,4,24,10,20c6-3,10,4,10,16s3,20,6,16C1809,6034,1809,6018,1805,6001z M1871,5967
		c-10-9-11-8-5,6c3,10,9,15,12,12S1878,5974,1871,5967z M1897,5878c-3-8-6-5-6,6c-1,11,2,17,5,13C1899,5894,1900,5885,1897,5878z
		 M1920,5841c0-11-4-23-10-26c-6-4-10,5-10,19s5,26,10,26C1916,5860,1920,5851,1920,5841z M1977,5748c-3-8-6-5-6,6c-1,11,2,17,5,13
		C1979,5764,1980,5755,1977,5748z M2051,5467c-8-8-11,4-11,39c0,66,14,80,18,19C2060,5499,2056,5472,2051,5467z M2091,5493
		c-9-15-10-12-11,18c0,20,3,39,8,43C2099,5566,2102,5512,2091,5493z M2311,5177c-8-8-11-7-11,4c0,20,13,34,18,19
		C2321,5193,2317,5183,2311,5177z M5230,5056c0-2-8-10-17-17c-16-13-17-12-4,4S5230,5064,5230,5056z M5293,5025c-3-9-8-14-10-11
		c-3,3-2,9,2,15C5294,5045,5300,5042,5293,5025z M2361,4917c-8-8-11-5-11,9c0,27,14,41,18,19C2370,4936,2367,4923,2361,4917z
		 M2469,4912c1,29,21,50,21,23c0-21-25-68-44-84c-14-12-16-10-16,10c0,13,6,42,12,64l12,40l7-40C2465,4896,2468,4892,2469,4912z
		 M2494,4845c-4-8-8-15-10-15s-4,7-4,15s4,15,10,15C2495,4860,2497,4853,2494,4845z M2527,4788c-2-13-4-5-4,17c-1,22,1,32,4,23
		C2529,4818,2529,4800,2527,4788z M5450,4816c0-3-4-8-10-11c-5-3-10-1-10,4c0,6,5,11,10,11C5446,4820,5450,4818,5450,4816z
		 M9304,4778c-23-28-37-38-43-33c-8,9,30,55,46,55C9321,4800,9321,4797,9304,4778z M9430,4786c0-2-7-9-15-16c-13-11-14-10-9,4
		S9430,4797,9430,4786z M9170,4745c-7-9-15-13-18-10c-3,2,1,11,8,20s15,13,18,10C9181,4763,9177,4754,9170,4745z M9080,4746
		c0-3-4-8-10-11c-5-3-10-1-10,4c0,6,5,11,10,11C9076,4750,9080,4748,9080,4746z M9462,4728c-7-7-12-8-12-2c0,14,12,26,19,19
		C9471,4742,9468,4734,9462,4728z M2610,4673c-11-17-11-17-6,0c3,10,7,26,7,35c1,15,2,15,6,0C2619,4698,2616,4683,2610,4673z
		 M9030,4700c-6-11-15-20-21-20s-6,7,1,20c6,11,15,20,21,20S9037,4713,9030,4700z M9568,4698c-2-6-15-18-28-27c-21-14-23-14-16-1
		c16,27,28,40,38,40C9567,4710,9570,4705,9568,4698z M9650,4695c-7-9-15-13-17-11c-7,7,7,26,19,26C9658,4710,9658,4704,9650,4695z
		 M5728,4661c-13-17-27-30-32-30c-6-1,3,13,19,29C5752,4698,5758,4699,5728,4661z M5646,4615c-11-8-25-15-30-15c-6,0-2,7,8,15
		c11,8,25,15,30,15C5660,4630,5656,4623,5646,4615z M2647,4588c-3-7-5-2-5,12s2,19,5,13C2649,4606,2649,4594,2647,4588z M8700,4575
		c0-2-13-11-30-20c-16-9-30-12-30-7c0,4,12,13,28,19c15,6,28,11,30,12C8699,4580,8700,4578,8700,4575z M2761,4547c-10-9-11-8-5,6
		c3,10,9,15,12,12S2768,4554,2761,4547z M8550,4496c0-3-4-8-10-11c-5-3-10-1-10,4c0,6,5,11,10,11C8546,4500,8550,4498,8550,4496z
		 M2801,4447c-8-8-11-7-11,4c0,20,13,34,18,19C2811,4463,2807,4453,2801,4447z M8500,4456c0-2-8-10-17-17c-16-13-17-12-4,4
		S8500,4464,8500,4456z M8430,4425c-7-9-15-13-18-10c-3,2,1,11,8,20s15,13,18,10C8441,4443,8437,4434,8430,4425z M8372,4358
		c-7-7-12-8-12-2c0,14,12,26,19,19C8381,4372,8378,4364,8372,4358z M8255,4258c-3-8-20-26-38-39l-32-23l19,29
		C8233,4272,8269,4295,8255,4258z M6125,4230c-3-5-12-10-18-10c-7,0-6,4,3,10C6129,4242,6133,4242,6125,4230z M8085,4184
		c-8-20-18-35-21-32c-2,3,3,25,12,49c10,23,19,38,21,32S8094,4205,8085,4184z M8170,4215c0-2-10-10-22-16c-21-11-22-11-9,4
		C8152,4219,8170,4226,8170,4215z M8150,4160c0-5-5-10-11-10c-5,0-7,5-4,10c3,6,8,10,11,10C8148,4170,8150,4166,8150,4160z
		 M8070,4112c0-5-7-17-16-28c-8-10-14-14-11-9c2,6,7,18,10,28C8060,4120,8070,4126,8070,4112z M8003,4050c-5-17-73-79-73-66
		c0,6,70,86,75,86C8007,4070,8006,4061,8003,4050z M6310,3980c-6-11-13-20-16-20c-2,0,0,9,6,20s13,20,16,20
		C6318,4000,6316,3991,6310,3980z M6364,3953c-5-20-32-39-41-30c-2,2,6,16,18,31C6365,3984,6372,3984,6364,3953z M10720,3966
		c0-2-7-7-16-10c-8-3-12-2-9,4C10701,3970,10720,3974,10720,3966z M6440,3957c0-2-10-12-22-23l-23-19l19,23
		C6432,3959,6440,3965,6440,3957z M7860,3923c0-5-10-19-21-33l-21-25l18,33C7854,3930,7860,3936,7860,3923z M3327,3858c-3-8-6-5-6,6
		c-1,11,2,17,5,13C3329,3874,3330,3865,3327,3858z M3250,3863c0-5-5-15-10-23c-8-12-10-11-10,8c0,12,5,22,10,22
		C3246,3870,3250,3867,3250,3863z M3312,3803c-2-7-8-13-13-13c-11,0-12,54-2,64C3306,3863,3319,3820,3312,3803z M7790,3841
		c-5-11-15-23-22-27c-7-5-8-2-3,7C7786,3858,7809,3876,7790,3841z M3349,3773c-12-33-14-35-17-14c-2,13,1,27,7,31c7,4,9,15,5,26
		c-5,15-4,16,6,7S3360,3804,3349,3773z M10945,3790c-3-5-11-10-16-10c-6,0-7,5-4,10c3,6,11,10,16,10
		C10947,3800,10948,3796,10945,3790z M7586,3714c-4-14-9-24-12-21c-3,2-2,17,2,31c3,15,9,25,11,22C7590,3743,7589,3729,7586,3714z
		 M3306,3703c-8-15-15-22-16-15c0,14,22,53,28,47C3320,3733,3315,3719,3306,3703z M3490,3673c0-21-3-24-9-14c-5,8-7,20-4,28
		C3485,3708,3490,3702,3490,3673z M3427,3653c-3-10-5-4-5,12c0,17,2,24,5,18C3429,3676,3429,3662,3427,3653z M11220,3484
		c-8-8-23-20-34-25c-15-7-13-3,7,15C11224,3503,11240,3509,11220,3484z M3628,3398l-13-23l-3,23c-4,28,21,66,26,39
		C3640,3428,3635,3411,3628,3398z M11295,3430c-10-11-25-20-34-20c-12,0-9,6,9,20C11303,3456,11318,3456,11295,3430z M3761,3287
		c-10-9-11-8-5,6c3,10,9,15,12,12S3768,3294,3761,3287z M11480,3265c-7-8-18-15-24-15s-2,7,8,15C11489,3284,11496,3284,11480,3265z
		 M11455,3230c-3-5-12-10-18-10c-7,0-6,4,3,10C11459,3242,11463,3242,11455,3230z M3876,3184c-4-9-9-15-11-12c-3,3-3,13,1,22
		s9,15,11,12C3880,3203,3880,3193,3876,3184z M11470,3206c0-3-4-8-10-11c-5-3-10-1-10,4c0,6,5,11,10,11
		C11466,3210,11470,3208,11470,3206z M11590,3105c-14-7-27-11-30-9c-6,7,22,24,40,23C11609,3119,11605,3113,11590,3105z M3927,3088
		c-3-8-6-5-6,6c-1,11,2,17,5,13C3929,3104,3930,3095,3927,3088z M11564,3071c-8-8-43-8-38,0c2,4,13,7,24,6
		C11560,3076,11567,3074,11564,3071z M4027,2988c-3-8-6-5-6,6c-1,11,2,17,5,13C4029,3004,4030,2995,4027,2988z M11674,2925
		c-7-16-24-21-24-6c0,8,7,13,27,20C11678,2940,11677,2933,11674,2925z M4121,2839c-9-22-10-22-10-3c-1,11,2,24,6,27
		C4129,2875,4131,2863,4121,2839z M11780,2866c0-2-8-10-17-17c-16-13-17-12-4,4S11780,2874,11780,2866z M11731,2836
		c-6-8-22-16-34-19c-22-6-22-6,2,14C11726,2853,11748,2857,11731,2836z M11770,2761c0-5-7-12-16-15c-14-5-15-4-4,9
		C11764,2772,11770,2774,11770,2761z M4377,2638c-3-7-5-2-5,12s2,19,5,13C4379,2656,4379,2644,4377,2638z M4504,2489
		c-6-11-24-2-24,11c0,5,7,7,15,4C4503,2500,4507,2494,4504,2489z M4510,2460c-6-11-13-20-16-20c-2,0,0,9,6,20s13,20,16,20
		C4518,2480,4516,2471,4510,2460z M4588,2420c10,0,14-80,6-110l-7-25l-7,30c-8,32-11,152-3,123C4579,2428,4585,2420,4588,2420z
		 M4675,2290c3-5,1-10-4-10c-6,0-11,5-11,10c0,6,2,10,4,10C4667,2300,4672,2296,4675,2290z M11747,2243c-3-10-5-4-5,12
		c0,17,2,24,5,18C11749,2266,11749,2252,11747,2243z M11690,2120c0-5-4-10-10-10c-5,0-10,5-10,10c0,6,5,10,10,10
		C11686,2130,11690,2126,11690,2120z M11485,1770l5-35l-14,30c-18,35-21,64-6,49C11475,1809,11482,1789,11485,1770z M11390,1784
		c0-14-4-23-10-19c-5,3-10,15-10,26c0,10,5,19,10,19C11386,1810,11390,1798,11390,1784z M5345,1730c-4-12-9-19-12-17c-3,3-2,15,2,27
		s9,19,12,17C5350,1754,5349,1742,5345,1730z M5557,1608c-3-7-5-2-5,12s2,19,5,13C5559,1626,5559,1614,5557,1608z M11180,1597
		c0-18-2-19-10-7c-13,20-13,43,0,35C11176,1622,11180,1609,11180,1597z M5622,1588c-7-7-12-8-12-2c0,14,12,26,19,19
		C5631,1602,5628,1594,5622,1588z M11110,1452c0-33-16-18-26,23c-7,27-6,29,9,16C11103,1484,11110,1466,11110,1452z M5780,1483
		c0-5-5-15-10-23c-8-12-10-11-10,8c0,12,5,22,10,22C5776,1490,5780,1487,5780,1483z M11017,1448c-3-7-5-2-5,12s2,19,5,13
		C11019,1466,11019,1454,11017,1448z M10899,1358c-7-13-14-18-16-11c-3,7,2,19,9,27C10910,1394,10914,1386,10899,1358z M10817,1308
		c-3-7-5-2-5,12s2,19,5,13C10819,1326,10819,1314,10817,1308z M6027,1288c-3-7-5-2-5,12s2,19,5,13C6029,1306,6029,1294,6027,1288z
		 M10707,1208c-3-8-6-5-6,6c-1,11,2,17,5,13C10709,1224,10710,1215,10707,1208z M6350,1115c0-8-2-15-4-15s-6,7-10,15c-3,8-1,15,4,15
		C6346,1130,6350,1123,6350,1115z M6517,1088c-3-8-6-5-6,6c-1,11,2,17,5,13C6519,1104,6520,1095,6517,1088z M10490,1069
		c0-11-4-17-10-14c-5,3-10,13-10,21s5,14,10,14C10486,1090,10490,1081,10490,1069z M6507,1038c-3-7-5-2-5,12s2,19,5,13
		C6509,1056,6509,1044,6507,1038z M6470,1034c0-28-15-25-23,6c-3,13,0,20,9,20C6464,1060,6470,1050,6470,1034z M10370,1023
		c0-10-20-40-20-31c0,3-3,13-6,22c-4,11-1,16,10,16C10363,1030,10370,1027,10370,1023z M6660,970c0-11-4-20-10-20c-5,0-10,9-10,20
		s5,20,10,20C6656,990,6660,981,6660,970z M10040,878c0-23-3-29-11-21c-6,6-8,20-4,32C10034,919,10040,915,10040,878z M6900,820
		c0-16-4-30-10-30c-11,0-14,43-3,53C6898,855,6900,851,6900,820z M7063,780c-3-12-8-19-11-16c-5,6,5,36,12,36
		C7066,800,7066,791,7063,780z M7361,653c-8-15-9-12-7,12c5,39,7,44,13,23C7369,678,7367,663,7361,653z M7565,653
		c-10-41-25-52-25-19c0,15,4,25,10,21c6-3,10,1,10,9c0,9,3,16,6,16S7569,668,7565,653z M9397,638c-3-8-6-5-6,6c-1,11,2,17,5,13
		C9399,654,9400,645,9397,638z M9267,573c-3-10-5-4-5,12c0,17,2,24,5,18C9269,596,9269,582,9267,573z M7830,581c0-6-4-13-10-16
		c-5-3-10,1-10,9c0,9,5,16,10,16C7826,590,7830,586,7830,581z M7670,565c0-8-4-15-10-15c-5,0-10,7-10,15s5,15,10,15
		C7666,580,7670,573,7670,565z M8462,558c-7-7-12-8-12-2c0,14,12,26,19,19C8471,572,8468,564,8462,558z M8117,523c-3-10-5-4-5,12
		c0,17,2,24,5,18C8119,546,8119,532,8117,523z M8460,499c0-11-4-17-10-14c-5,3-10,15-10,26s5,17,10,14C8456,522,8460,510,8460,499z
		 M8600,495c0-8-2-15-4-15s-6,7-10,15c-3,8-1,15,4,15C8596,510,8600,503,8600,495z"/>
	<path class="st0" d="M3019,12213c-13-16-12-17,4-4c9,7,17,15,17,17C3040,12234,3032,12229,3019,12213z"/>
	<path class="st0" d="M2246,11554c-4-9-4-19-1-22c2-3,7,3,11,12s4,19,1,22C2255,11569,2250,11563,2246,11554z"/>
	<path class="st0" d="M4836,11263c-6-14-5-15,5-6c7,7,10,15,7,18S4839,11273,4836,11263z"/>
	<path class="st0" d="M1721,11004c0-11,3-14,6-6c3,7,2,16-1,19C1723,11021,1720,11015,1721,11004z"/>
	<path class="st0" d="M5068,10854c-16-8-28-16-28-18c0-9,40,7,51,20C5105,10873,5102,10873,5068,10854z"/>
	<path class="st0" d="M5450,10049c0-5,5-7,10-4c6,3,10,8,10,11c0,2-4,4-10,4C5455,10060,5450,10055,5450,10049z"/>
	<path class="st0" d="M5362,9020c0-14,2-19,5-12c2,6,2,18,0,25C5364,9039,5362,9034,5362,9020z"/>
	<path class="st0" d="M5371,8980c0-8,4-22,9-30c12-18,12-2,0,25C5374,8988,5371,8990,5371,8980z"/>
	<path class="st0" d="M1020,8921c-24-35-52-99-48-110c2-5,19,25,39,66c20,40,35,73,33,73C1043,8950,1032,8937,1020,8921z"/>
	<path class="st0" d="M4912,8580c0-14,4-38,8-55l8-30v30c0,17-4,41-8,55l-8,25V8580z"/>
	<path class="st0" d="M4412,8190c0-19,2-27,5-17c2,9,2,25,0,35C4414,8217,4412,8209,4412,8190z"/>
	<path class="st0" d="M1217,7493c-4-3-7-11-7-17s5-5,12,2c6,6,9,14,7,17C1226,7498,1220,7497,1217,7493z"/>
	<path class="st0" d="M4952,5550c-18-29-15-38,4-12c9,13,14,25,12,27S4959,5560,4952,5550z"/>
	<path class="st0" d="M5259,5203c-13-16-12-17,4-4c9,7,17,15,17,17C5280,5224,5272,5219,5259,5203z"/>
	<path class="st0" d="M5310,5139c0-5,5-7,10-4c6,3,10,8,10,11c0,2-4,4-10,4C5315,5150,5310,5145,5310,5139z"/>
	<path class="st0" d="M9460,4805c-7-9-8-15-2-15c5,0,12,7,16,15c3,8,4,15,2,15S9467,4813,9460,4805z"/>
	<path class="st0" d="M8514,4528l-19-23l23,19c21,18,27,26,19,26C8535,4550,8525,4540,8514,4528z"/>
	<path class="st0" d="M5940,4450c-9-6-10-10-3-10c6,0,15,5,18,10C5963,4462,5959,4462,5940,4450z"/>
	<path class="st0" d="M6051,4331c-18-14-20-20-10-23c14-5,69,17,69,28c0,3-5,2-11-2c-6-3-14-2-18,4C6077,4345,6066,4342,6051,4331z"
		/>
	<path class="st0" d="M6210,4150c-9-6-10-10-3-10c6,0,15,5,18,10C6233,4162,6229,4162,6210,4150z"/>
	<path class="st0" d="M10805,3970c-3-6,1-7,9-4c18,7,21,14,7,14C10815,3980,10808,3976,10805,3970z"/>
	<path class="st0" d="M6855,3779c-4-6-5-12-2-15c2-3,7,2,10,11C6870,3792,6864,3795,6855,3779z"/>
	<path class="st0" d="M11819,2553c-13-16-12-17,4-4s21,21,13,21C11834,2570,11826,2562,11819,2553z"/>
</g>
</svg>
