<?xml version="1.0" encoding="iso-8859-1"?>
<!-- Generator: Adobe Illustrator 18.0.0, SVG Export Plug-In . SVG Version: 6.00 Build 0)  -->
<!DOCTYPE svg PUBLIC "-//W3C//DTD SVG 1.1//EN" "http://www.w3.org/Graphics/SVG/1.1/DTD/svg11.dtd">
<svg version="1.1" id="Capa_1" xmlns="http://www.w3.org/2000/svg" xmlns:xlink="http://www.w3.org/1999/xlink" x="0px" y="0px"
	 viewBox="0 0 66.083 66.083" style="enable-background:new 0 0 66.083 66.083;" xml:space="preserve">
<path d="M64.583,51.932h-6.559v-39.28c0-0.829-0.671-1.5-1.5-1.5H9.559c-0.829,0-1.5,0.671-1.5,1.5v39.28H1.5
	c-0.829,0-1.5,0.671-1.5,1.5c0,0.829,0.671,1.5,1.5,1.5h63.083c0.829,0,1.5-0.671,1.5-1.5
	C66.083,52.603,65.412,51.932,64.583,51.932z M39.195,51.932V37.619c0-1.534-1.248-2.782-2.782-2.782h-6.744
	c-1.534,0-2.782,1.248-2.782,2.782v14.313H11.059v-37.78h43.965v37.78H39.195z M23.974,18.003v2.615
	c0,0.708-0.574,1.282-1.282,1.282h-6.744c-0.708,0-1.282-0.574-1.282-1.282v-2.615c0-0.708,0.574-1.282,1.282-1.282h6.744
	C23.401,16.721,23.974,17.295,23.974,18.003z M51.417,18.003v2.615c0,0.708-0.574,1.282-1.282,1.282H43.39
	c-0.708,0-1.282-0.574-1.282-1.282v-2.615c0-0.708,0.574-1.282,1.282-1.282h6.744C50.843,16.721,51.417,17.295,51.417,18.003z
	 M37.695,18.003v2.615c0,0.708-0.574,1.282-1.282,1.282h-6.744c-0.708,0-1.282-0.574-1.282-1.282v-2.615
	c0-0.708,0.574-1.282,1.282-1.282h6.744C37.122,16.721,37.695,17.295,37.695,18.003z M23.974,27.157v2.615
	c0,0.708-0.574,1.282-1.282,1.282h-6.744c-0.708,0-1.282-0.574-1.282-1.282v-2.615c0-0.708,0.574-1.282,1.282-1.282h6.744
	C23.401,25.875,23.974,26.449,23.974,27.157z M51.417,27.157v2.615c0,0.708-0.574,1.282-1.282,1.282H43.39
	c-0.708,0-1.282-0.574-1.282-1.282v-2.615c0-0.708,0.574-1.282,1.282-1.282h6.744C50.843,25.875,51.417,26.449,51.417,27.157z
	 M37.695,27.157v2.615c0,0.708-0.574,1.282-1.282,1.282h-6.744c-0.708,0-1.282-0.574-1.282-1.282v-2.615
	c0-0.708,0.574-1.282,1.282-1.282h6.744C37.122,25.875,37.695,26.449,37.695,27.157z M23.974,36.311v2.615
	c0,0.708-0.574,1.282-1.282,1.282h-6.744c-0.708,0-1.282-0.574-1.282-1.282v-2.615c0-0.708,0.574-1.282,1.282-1.282h6.744
	C23.401,35.029,23.974,35.603,23.974,36.311z M51.417,36.311v2.615c0,0.708-0.574,1.282-1.282,1.282H43.39
	c-0.708,0-1.282-0.574-1.282-1.282v-2.615c0-0.708,0.574-1.282,1.282-1.282h6.744C50.843,35.029,51.417,35.603,51.417,36.311z
	 M23.974,45.465v2.615c0,0.708-0.574,1.282-1.282,1.282h-6.744c-0.708,0-1.282-0.574-1.282-1.282v-2.615
	c0-0.708,0.574-1.282,1.282-1.282h6.744C23.401,44.183,23.974,44.757,23.974,45.465z M51.417,45.465v2.615
	c0,0.708-0.574,1.282-1.282,1.282H43.39c-0.708,0-1.282-0.574-1.282-1.282v-2.615c0-0.708,0.574-1.282,1.282-1.282h6.744
	C50.843,44.183,51.417,44.757,51.417,45.465z"/>
<g>
</g>
<g>
</g>
<g>
</g>
<g>
</g>
<g>
</g>
<g>
</g>
<g>
</g>
<g>
</g>
<g>
</g>
<g>
</g>
<g>
</g>
<g>
</g>
<g>
</g>
<g>
</g>
<g>
</g>
</svg>
