<?xml version="1.0" encoding="utf-8"?>
<!-- Generator: Adobe Illustrator 24.0.2, SVG Export Plug-In . SVG Version: 6.00 Build 0)  -->
<svg version="1.1" id="Layer_1" xmlns="http://www.w3.org/2000/svg" xmlns:xlink="http://www.w3.org/1999/xlink" x="0px" y="0px"
	 viewBox="0 0 310 310" style="enable-background:new 0 0 310 310;" xml:space="preserve">
<style type="text/css">
	.st0{fill:#9069A7;}
</style>
<g id="XMLID_834_">
	<path id="XMLID_835_" class="st0" d="M81.7,165.1h34V305c0,2.8,2.2,5,5,5h57.6c2.8,0,5-2.2,5-5V165.8h39.1c2.5,0,4.7-1.9,5-4.4
		l5.9-51.5c0.2-1.4-0.3-2.8-1.2-3.9c-0.9-1.1-2.3-1.7-3.7-1.7h-45V72c0-9.7,5.2-14.7,15.6-14.7c1.5,0,29.4,0,29.4,0c2.8,0,5-2.2,5-5
		V5c0-2.8-2.2-5-5-5h-40.5c-0.3,0-0.9,0-1.9,0c-7,0-31.5,1.4-50.8,19.2c-21.4,19.7-18.4,43.3-17.7,47.4v37.8H81.7c-2.8,0-5,2.2-5,5
		v50.8C76.7,162.9,78.9,165.1,81.7,165.1z"/>
</g>
</svg>
