<?xml version="1.0" encoding="iso-8859-1"?>
<!-- Generator: Adobe Illustrator 19.0.0, SVG Export Plug-In . SVG Version: 6.00 Build 0)  -->
<svg version="1.1" id="Layer_1" xmlns="http://www.w3.org/2000/svg" xmlns:xlink="http://www.w3.org/1999/xlink" x="0px" y="0px"
	 viewBox="0 0 490 490" style="enable-background:new 0 0 490 490;" xml:space="preserve">
<g>
	<g>
		<path d="M480,85H10C4.478,85,0,89.478,0,95v300c0,5.522,4.478,10,10,10h470c5.522,0,10-4.478,10-10V95
			C490,89.478,485.522,85,480,85z M443.676,105L245,223.36L46.324,105H443.676z M470,385H20V112.597l150.807,89.842l-107.014,84.72
			l12.414,15.682l112.986-89.447l50.688,30.197C241.459,244.53,243.229,245,245,245s3.541-0.47,5.118-1.409l50.688-30.197
			l112.986,89.447l12.414-15.682L319.193,202.44L470,112.597V385z"/>
	</g>
</g>
<g>
</g>
<g>
</g>
<g>
</g>
<g>
</g>
<g>
</g>
<g>
</g>
<g>
</g>
<g>
</g>
<g>
</g>
<g>
</g>
<g>
</g>
<g>
</g>
<g>
</g>
<g>
</g>
<g>
</g>
</svg>
