<?xml version="1.0" standalone="no"?>
<!DOCTYPE svg PUBLIC "-//W3C//DTD SVG 20010904//EN"
 "http://www.w3.org/TR/2001/REC-SVG-20010904/DTD/svg10.dtd">
<svg version="1.0" xmlns="http://www.w3.org/2000/svg"
 width="1280.000000pt" height="1280.000000pt" viewBox="0 0 1280.000000 1280.000000"
 preserveAspectRatio="xMidYMid meet">
<metadata>
Created by potrace 1.15, written by Peter Selinger 2001-2017
</metadata>
<g transform="translate(0.000000,1280.000000) scale(0.100000,-0.100000)"
fill="#000000" stroke="none">
<path d="M3370 12365 c-12 -13 -28 -23 -34 -22 -6 1 -10 -2 -10 -8 1 -5 -7
-19 -19 -30 l-20 -20 7 20 c5 16 3 15 -13 -5 -11 -13 -17 -29 -14 -34 3 -5 1
-6 -5 -2 -7 4 -12 3 -12 -2 0 -5 -7 -9 -15 -9 -10 0 -6 8 10 23 32 30 32 39 0
18 -13 -9 -34 -31 -46 -50 -11 -19 -25 -34 -30 -34 -13 0 -11 13 4 30 9 11 8
11 -7 0 -18 -14 -19 -13 -13 10 l6 25 -23 -27 c-13 -15 -27 -24 -30 -21 -3 4
-6 1 -6 -5 0 -6 -20 -25 -44 -41 -25 -17 -52 -38 -60 -47 -19 -18 -22 -2 -3
18 6 7 13 20 15 28 2 10 -4 8 -15 -6 -10 -11 -30 -28 -45 -37 -26 -16 -27 -16
-21 0 3 10 15 30 25 46 11 15 15 27 11 27 -5 0 -31 -35 -57 -77 -49 -79 -118
-174 -123 -169 -1 1 2 17 7 36 5 19 8 36 5 38 -2 2 -11 -20 -19 -50 -10 -31
-25 -59 -37 -66 -19 -12 -20 -12 -14 10 16 49 16 52 -3 19 -13 -24 -21 -30
-25 -20 -3 8 -6 2 -6 -12 -1 -20 -10 -31 -33 -42 -18 -9 -37 -13 -43 -10 -5 4
-7 3 -3 -1 3 -4 -1 -15 -10 -24 -9 -10 -30 -33 -45 -52 -21 -26 -27 -29 -22
-13 3 12 1 24 -6 29 -7 4 -9 3 -6 -3 4 -5 -7 -23 -23 -38 -17 -16 -30 -33 -30
-39 0 -5 11 1 25 14 14 13 25 18 25 12 0 -11 -36 -36 -53 -37 -4 0 -12 -7 -18
-15 -9 -13 -10 -13 -8 0 1 8 1 22 0 30 -3 25 -30 -32 -31 -65 -1 -26 -3 -27
-10 -10 -4 11 -6 34 -4 50 l4 30 -10 -30 c-6 -16 -7 -42 -4 -57 7 -35 -6 -60
-17 -32 -7 16 -8 15 -8 -7 -1 -29 -31 -64 -31 -36 0 9 5 28 11 44 15 41 -1 20
-36 -45 -16 -31 -37 -57 -45 -57 -8 0 -20 -9 -25 -20 -6 -11 -15 -20 -20 -20
-6 0 -27 -18 -47 -40 -21 -23 -38 -34 -38 -26 0 8 -11 0 -25 -19 -14 -19 -50
-60 -80 -92 -30 -32 -55 -62 -55 -67 0 -6 -17 -22 -37 -37 -52 -38 -133 -116
-133 -128 0 -6 14 5 30 24 l30 35 -6 -30 c-4 -16 -10 -32 -14 -35 -3 -3 -18
-26 -32 -51 -15 -25 -34 -52 -43 -59 -14 -12 -16 -8 -11 36 5 46 5 47 -6 16
-7 -20 -16 -31 -24 -28 -7 3 -14 2 -16 -2 -2 -4 -26 -25 -55 -48 -48 -38 -103
-95 -103 -107 0 -3 28 22 62 56 59 58 63 60 66 38 6 -36 -7 -109 -22 -123 -41
-42 -106 -132 -126 -174 -13 -27 -38 -67 -55 -89 -37 -46 -59 -85 -52 -91 3
-3 16 15 31 40 38 64 44 63 31 -6 -10 -58 -14 -64 -72 -112 -64 -53 -123 -121
-123 -140 0 -6 9 0 19 14 l19 24 -5 -68 c-6 -84 -21 -130 -24 -76 l-2 35 -6
-37 c-5 -29 -24 -56 -93 -127 -103 -105 -118 -137 -21 -44 37 35 73 61 80 59
7 -3 13 -1 13 4 0 6 5 10 12 10 6 0 3 -8 -7 -20 -10 -11 -21 -17 -26 -15 -4 3
-21 -23 -38 -57 -31 -64 -55 -148 -42 -148 4 0 11 18 17 41 5 22 13 40 17 39
5 -1 20 16 34 38 14 21 34 44 44 50 14 9 13 4 -6 -25 -14 -19 -25 -42 -25 -50
0 -7 -9 -32 -21 -55 -16 -31 -23 -38 -30 -27 -7 11 -9 10 -9 -4 0 -10 -17 -41
-39 -70 -46 -62 -65 -97 -53 -97 5 0 16 10 25 23 12 17 11 7 -4 -53 -11 -41
-17 -91 -15 -110 4 -26 -1 -45 -24 -80 -32 -51 -72 -146 -68 -163 2 -7 -7 -26
-18 -42 -31 -43 -46 -75 -37 -75 5 0 16 15 26 33 18 31 72 97 81 97 8 0 -14
-62 -36 -105 -21 -39 -21 -40 -1 -22 42 37 45 13 4 -46 -15 -23 -32 -53 -36
-67 -4 -14 -15 -36 -25 -50 -9 -14 -20 -43 -24 -65 l-7 -40 36 60 c20 33 50
74 67 90 18 17 26 22 19 13 -10 -13 -10 -18 -2 -18 7 0 9 -5 4 -12 -4 -7 -8
-31 -9 -53 -2 -22 0 -34 3 -27 7 19 23 4 23 -22 0 -31 -26 -54 -33 -29 -3 10
-5 3 -6 -15 0 -18 -7 -45 -15 -60 -7 -15 -16 -43 -19 -62 l-7 -35 19 23 c43
51 42 9 -3 -77 -38 -75 -55 -141 -32 -122 25 21 28 -6 6 -50 -12 -22 -19 -44
-16 -47 7 -7 6 -8 41 53 22 37 30 45 33 31 2 -10 -1 -23 -7 -29 -17 -17 -13
-31 4 -17 18 15 19 7 3 -23 -6 -12 -12 -31 -14 -42 -1 -11 -5 -33 -9 -49 -6
-20 -4 -27 3 -22 6 3 13 20 17 36 4 17 11 30 16 30 15 0 10 -88 -6 -120 -14
-27 -14 -29 5 -35 29 -9 25 -37 -11 -71 -17 -16 -35 -38 -40 -49 -6 -11 6 -3
25 18 49 55 66 39 37 -35 -6 -15 -8 -35 -4 -44 4 -11 10 -5 23 23 l18 38 -6
-40 c-4 -30 -17 -51 -49 -83 -48 -49 -70 -82 -53 -82 5 0 10 3 10 8 0 4 18 27
40 52 l39 45 -6 -45 c-3 -25 -16 -61 -29 -79 -13 -19 -21 -37 -18 -40 3 -3 10
2 15 12 13 22 51 58 57 53 2 -2 -2 -14 -8 -26 -19 -35 -6 -33 35 7 51 49 42
30 -39 -91 -36 -54 -66 -102 -66 -107 0 -21 27 6 52 51 15 27 37 54 48 60 26
14 27 -1 3 -42 -13 -21 -14 -32 -7 -35 7 -2 11 -20 9 -41 -1 -20 0 -24 2 -9 3
21 9 27 20 23 8 -3 16 -6 18 -6 2 0 -5 -20 -16 -45 -22 -50 -19 -66 11 -58 36
9 22 -18 -45 -88 -36 -38 -65 -75 -65 -81 0 -13 -2 -15 59 60 48 58 60 63 35
13 -9 -18 -13 -35 -10 -38 3 -3 8 2 12 11 8 20 24 21 24 1 0 -9 6 -12 16 -8
13 5 15 1 10 -18 -6 -20 -5 -21 4 -7 8 13 8 24 0 37 -11 22 2 71 20 71 10 0 8
-49 -4 -68 -3 -6 3 -13 14 -17 11 -4 17 -11 14 -17 -4 -6 -10 -5 -15 3 -11 17
-10 1 0 -26 5 -11 4 -28 -1 -39 -6 -10 -12 -28 -13 -40 -2 -11 -6 -32 -10 -46
l-6 -25 16 25 16 25 -6 -25 c-8 -32 -9 -39 -6 -75 2 -25 6 -20 21 31 10 34 23
70 29 80 10 18 10 18 11 -2 0 -12 2 -37 5 -55 4 -29 3 -30 -4 -9 -9 24 -9 24
-10 -7 -1 -17 -12 -54 -26 -81 -30 -60 -32 -76 -5 -43 l20 23 0 -23 c0 -13 7
-46 15 -72 10 -34 12 -55 5 -67 -16 -29 -11 -48 5 -20 9 15 15 19 15 10 0 -12
4 -11 15 4 8 11 15 16 15 10 -1 -22 -28 -122 -39 -142 -6 -11 -11 -27 -10 -34
0 -7 9 6 19 30 21 45 36 58 20 16 -13 -33 -13 -64 0 -64 6 0 10 11 10 25 0 24
25 85 35 85 6 0 -2 -51 -11 -74 -4 -11 -4 -17 2 -14 13 8 16 -129 3 -153 -18
-34 -3 -32 21 3 l22 33 -7 -30 c-3 -16 -8 -38 -11 -47 -3 -10 -1 -18 4 -18 5
0 12 14 16 31 9 44 47 126 53 112 2 -6 -3 -23 -12 -37 -9 -14 -14 -30 -10 -35
3 -6 -2 -22 -11 -36 -9 -14 -14 -28 -11 -31 3 -3 13 8 23 25 17 29 34 41 34
24 0 -5 -14 -28 -30 -52 -17 -24 -30 -49 -30 -55 0 -6 9 3 19 20 24 39 53 42
44 5 -3 -14 -12 -38 -19 -53 -8 -15 -14 -35 -13 -45 0 -16 1 -16 9 2 7 17 9
17 9 3 1 -10 6 -18 12 -18 6 0 8 -9 4 -20 -10 -32 3 -23 21 15 9 19 20 35 25
35 11 0 30 -45 33 -75 1 -11 7 -19 14 -18 8 2 9 -5 2 -25 -9 -24 -9 -25 4 -9
12 15 15 10 30 -50 9 -38 16 -90 16 -117 0 -67 13 -50 15 20 2 38 8 61 20 72
17 16 17 15 10 -13 -5 -16 -9 -48 -10 -70 -2 -22 -7 -64 -12 -93 -6 -29 -6
-55 -2 -58 5 -3 9 6 9 20 0 13 3 33 7 43 6 15 9 13 14 -12 l7 -30 1 28 c1 30
21 38 21 8 0 -30 17 -34 24 -6 4 14 11 25 16 25 13 0 13 -32 0 -66 -8 -20 -7
-31 3 -43 8 -9 13 -37 13 -64 -1 -26 2 -47 7 -47 4 0 7 4 7 8 0 12 63 92 72
92 5 0 5 -18 2 -40 -5 -31 -3 -40 7 -40 10 0 15 -13 15 -42 1 -32 -6 -54 -28
-86 -26 -37 -58 -102 -58 -117 0 -17 19 -1 24 21 4 14 20 46 36 72 23 37 30
43 36 29 3 -9 4 -33 2 -52 -2 -19 0 -35 4 -35 4 0 8 9 8 19 0 11 4 23 10 26
12 8 13 11 -5 -55 -17 -64 -19 -104 -5 -95 5 3 10 21 10 38 0 40 18 107 29
107 5 0 6 -20 3 -45 -3 -28 -1 -45 6 -45 6 0 13 6 15 13 3 6 4 -4 1 -23 l-4
-35 13 29 c11 23 15 25 20 12 4 -10 12 -14 19 -10 8 5 9 2 3 -12 -4 -10 -10
-38 -12 -62 -3 -34 -1 -42 9 -36 7 5 5 -5 -6 -21 -53 -81 -85 -155 -67 -155 4
0 13 17 19 38 6 20 18 46 26 57 13 18 14 16 11 -25 -4 -42 -4 -41 9 13 15 65
26 83 26 43 0 -41 24 -156 32 -156 5 0 8 -6 8 -14 0 -7 8 -20 17 -27 15 -12
16 -12 9 6 -5 11 -13 32 -19 46 -8 19 -7 39 3 73 16 59 28 67 26 18 -1 -24 3
-36 11 -35 8 2 10 -8 6 -31 -3 -19 -1 -42 5 -51 7 -13 4 -30 -10 -62 -11 -25
-17 -47 -14 -50 3 -4 11 8 17 25 6 18 15 29 20 26 5 -3 12 2 15 10 10 25 34
19 34 -8 0 -14 5 -28 11 -32 6 -3 9 -21 6 -38 -5 -35 0 -56 15 -56 5 0 6 9 3
21 -5 16 -3 20 6 17 8 -3 19 2 25 10 16 22 48 -67 35 -100 -5 -15 -5 -30 0
-41 12 -20 29 -22 29 -4 0 16 29 77 37 77 2 0 2 -13 -2 -28 -3 -16 -7 -73 -9
-127 -3 -82 -2 -96 9 -82 12 16 14 16 28 2 23 -23 26 -19 15 21 -8 29 -6 39 8
55 21 24 41 10 26 -18 -17 -30 -27 -143 -13 -143 6 0 11 5 11 10 0 19 27 10
38 -12 8 -18 11 -19 11 -5 2 32 31 19 31 -14 0 -31 0 -31 24 -16 l24 16 -10
-41 c-5 -23 -11 -45 -14 -50 -3 -4 -2 -8 1 -8 13 0 32 26 40 55 7 26 9 22 16
-38 7 -62 19 -103 19 -66 0 11 2 11 10 -1 5 -8 10 -44 11 -80 0 -62 1 -63 12
-33 14 37 34 60 43 50 4 -4 2 -19 -5 -33 -18 -41 -6 -39 18 2 27 45 37 40 16
-9 -8 -20 -15 -47 -14 -59 0 -19 3 -16 14 12 l14 35 -5 -35 c-2 -19 -6 -51 -9
-70 l-5 -35 10 32 c15 47 30 50 25 6 -3 -21 -2 -29 1 -18 4 11 11 26 17 33 8
10 13 7 23 -15 l12 -28 12 32 c7 18 16 30 21 27 5 -3 5 -13 -1 -25 -7 -11 -7
-19 -1 -19 5 0 12 6 14 13 3 6 6 -1 7 -18 1 -27 2 -28 14 -12 12 15 14 13 19
-25 5 -36 1 -48 -24 -82 -16 -22 -29 -47 -29 -55 1 -10 7 -5 16 12 8 15 21 27
29 27 8 0 15 9 15 20 0 11 7 20 15 20 8 0 15 6 16 13 1 30 18 -33 20 -78 1
-41 3 -45 8 -20 3 17 11 31 18 32 23 5 32 -32 24 -93 -5 -32 -7 -61 -6 -62 2
-2 13 15 25 38 14 27 26 40 35 36 8 -3 16 0 19 7 3 9 5 9 5 0 1 -7 -8 -27 -19
-45 -23 -38 -26 -62 -5 -34 13 17 14 12 8 -46 -4 -44 -2 -67 6 -72 7 -5 11 5
11 31 0 21 4 44 9 52 6 8 8 -13 5 -55 -3 -64 -1 -65 11 -7 4 15 10 20 20 17 9
-4 15 0 15 9 0 9 5 19 12 23 8 5 9 -2 5 -24 -5 -22 -3 -31 6 -29 8 1 12 -11
11 -35 -1 -21 0 -38 2 -38 2 0 11 16 19 37 8 20 18 34 21 30 3 -3 -4 -27 -15
-52 -25 -56 -27 -76 -5 -49 17 21 17 25 -1 -46 -5 -19 -4 -21 4 -10 14 21 21
9 30 -52 4 -29 15 -66 24 -83 20 -37 21 -25 4 35 -8 26 -11 56 -6 70 4 14 7
19 8 13 1 -7 8 -13 16 -13 21 0 28 -39 15 -94 -6 -27 -8 -51 -6 -54 7 -6 36
18 36 30 0 5 15 30 32 56 40 58 46 41 19 -48 -11 -35 -18 -67 -14 -70 3 -3 8
1 10 8 3 6 8 10 13 7 5 -3 12 5 16 17 6 21 8 19 19 -17 l12 -40 13 28 c16 32
29 20 31 -28 0 -16 3 -24 6 -17 8 20 20 14 33 -18 7 -17 15 -29 17 -26 3 2 0
13 -6 24 -7 13 -8 29 -2 44 8 21 10 19 21 -21 11 -42 11 -52 -5 -96 -5 -16 -5
-17 4 -5 7 11 9 -2 5 -45 -4 -60 -4 -60 11 -27 8 17 20 32 25 32 7 0 7 -6 0
-19 -5 -11 -10 -30 -9 -43 l0 -23 9 22 c16 40 27 25 34 -47 9 -84 26 -104 20
-23 -4 48 -1 62 15 83 l21 25 -4 -90 c-4 -84 -4 -86 6 -35 13 75 16 82 28 75
12 -8 13 -50 1 -73 -15 -30 -22 -72 -11 -72 5 0 10 8 10 18 1 9 7 31 15 47
l15 30 -3 -32 c-3 -33 7 -45 16 -20 3 6 6 2 6 -10 1 -13 6 -23 11 -23 6 0 8
-11 4 -26 -5 -19 -4 -25 5 -20 6 4 11 17 11 29 0 17 2 19 9 8 5 -8 7 -19 5
-26 -3 -6 -1 -22 5 -36 l9 -24 7 30 c18 77 23 81 24 15 0 -42 -5 -72 -14 -84
-8 -11 -15 -26 -15 -35 0 -8 15 8 32 35 23 33 34 43 36 32 2 -9 -2 -27 -8 -38
-15 -29 -5 -38 12 -11 17 28 24 26 32 -4 4 -16 1 -34 -9 -48 -8 -12 -15 -31
-14 -42 0 -15 5 -11 16 15 16 35 16 35 23 10 l8 -25 12 32 c6 18 16 33 22 33
8 0 6 -18 -9 -58 -11 -27 8 -10 21 21 l14 32 -5 -45 c-3 -29 -1 -40 5 -32 6 9
13 -4 22 -43 8 -34 21 -60 32 -66 21 -11 22 -9 6 26 -9 19 -8 31 1 52 l13 28
15 -45 c12 -34 13 -52 5 -73 -6 -15 -6 -25 -1 -21 5 3 9 -2 9 -10 0 -9 4 -16
9 -16 18 0 21 -32 5 -61 -15 -29 -14 -29 6 -17 11 7 20 18 20 25 0 6 12 26 27
45 15 18 20 27 10 19 -20 -16 -21 -11 -5 24 l11 25 14 -37 c15 -45 16 -53 3
-33 -5 8 -10 11 -10 5 -1 -5 -5 -29 -9 -53 -5 -23 -5 -45 0 -48 5 -3 9 0 9 5
0 6 5 11 11 11 12 0 8 -71 -7 -119 -5 -17 -4 -22 4 -17 7 4 12 16 12 27 0 11
7 22 15 25 8 3 24 22 37 41 21 34 22 35 30 14 5 -15 2 -34 -12 -61 -25 -48
-25 -63 -2 -32 l18 23 -3 -38 c-2 -33 -2 -34 6 -13 5 14 12 38 16 55 6 26 8
28 17 12 5 -10 7 -29 4 -43 -9 -34 1 -30 19 9 l15 32 -6 -35 c-15 -88 -15 -88
-1 -57 8 16 18 28 22 27 5 -1 13 7 17 17 6 12 7 9 3 -9 -3 -16 -1 -28 5 -28 5
0 10 8 10 18 0 14 2 15 10 2 7 -11 10 -11 10 -2 0 7 5 10 10 7 14 -9 13 -48
-2 -63 -9 -9 -8 -15 8 -26 10 -8 21 -10 22 -5 2 5 7 9 12 9 9 0 8 -50 -2 -66
-17 -26 -27 -64 -18 -64 6 0 10 6 10 14 0 8 12 28 26 43 l25 28 -4 -27 c-2
-16 0 -28 4 -28 5 0 9 10 9 23 1 19 3 18 14 -9 8 -17 17 -51 21 -75 10 -62 21
-78 29 -45 3 14 11 26 16 26 6 0 10 10 10 22 0 17 3 19 12 10 9 -9 9 -15 0
-24 -17 -17 -15 -31 3 -24 11 4 19 -3 25 -19 5 -14 12 -25 16 -25 3 0 4 7 0
15 -3 8 -1 15 4 15 6 0 10 7 10 15 0 8 5 15 10 15 6 0 10 10 11 23 0 22 0 22
10 -2 5 -13 7 -43 5 -67 -4 -31 -2 -44 9 -48 11 -4 15 2 15 21 0 35 19 18 22
-20 3 -33 13 -35 23 -4 6 19 8 17 15 -18 5 -28 4 -48 -6 -67 -20 -39 -2 -35
40 9 l35 37 -3 -39 c-2 -22 -1 -29 1 -15 7 41 20 44 25 7 2 -20 0 -33 -4 -31
-4 3 -8 -6 -8 -19 0 -14 -3 -40 -7 -58 -6 -31 -5 -33 10 -20 9 7 17 20 17 28
0 8 5 11 10 8 6 -4 13 7 16 24 5 24 12 31 30 31 22 0 23 -2 12 -27 -7 -16 -23
-41 -35 -56 -13 -16 -23 -33 -23 -39 0 -6 16 9 35 33 24 31 42 44 60 44 14 1
25 -1 25 -2 0 -2 -10 -23 -21 -46 -28 -53 -40 -97 -28 -97 5 0 9 5 9 11 0 19
42 109 52 109 24 0 17 -35 -18 -85 -20 -30 -35 -57 -32 -60 3 -3 18 15 33 40
16 25 35 45 42 45 7 0 13 7 13 16 0 14 1 14 16 0 13 -13 14 -22 4 -51 -6 -19
-10 -41 -7 -48 2 -6 9 5 17 27 9 28 15 35 21 25 8 -12 10 -12 18 0 10 15 14
-1 26 -93 7 -53 24 -47 25 9 0 30 20 75 20 46 0 -11 3 -11 17 0 15 13 15 12 5
-7 -6 -11 -8 -31 -5 -43 5 -20 6 -20 19 -4 12 17 13 17 14 -4 0 -12 -4 -24 -9
-27 -11 -7 -21 -56 -11 -56 4 0 12 17 19 38 13 39 50 95 51 76 0 -6 -9 -53
-20 -105 -22 -106 -25 -139 -10 -139 6 0 10 18 10 40 0 35 4 42 27 51 15 6 31
15 34 21 9 14 29 1 29 -18 0 -19 19 -18 26 1 4 8 10 12 15 9 15 -9 10 -56 -11
-101 -10 -24 -15 -43 -11 -43 5 0 14 14 21 30 20 49 34 49 27 -1 l-7 -44 20
24 c11 13 20 33 21 45 0 11 3 15 6 9 2 -7 -5 -37 -16 -68 -11 -30 -18 -55 -15
-55 8 0 28 21 43 45 11 19 12 18 7 -5 -3 -14 -9 -36 -13 -50 -6 -24 -6 -24 11
-7 10 9 22 17 27 17 6 0 7 4 4 10 -3 5 1 20 9 32 16 22 16 22 16 -11 l0 -34
20 23 c11 13 20 27 20 32 0 4 5 8 10 8 6 0 10 -18 10 -41 0 -32 3 -40 15 -35
9 3 15 -1 15 -11 0 -13 3 -13 15 -3 10 9 15 9 15 1 0 -6 5 -11 10 -11 6 0 10
7 10 16 0 8 5 12 10 9 6 -3 10 -27 10 -52 0 -39 2 -44 15 -33 8 7 15 9 15 4 0
-5 4 -3 9 5 14 22 31 3 31 -35 0 -19 4 -34 9 -34 4 0 6 12 3 28 -5 24 -4 26
11 13 10 -7 17 -10 17 -5 0 5 4 3 9 -5 6 -9 -1 -35 -20 -75 -16 -33 -29 -72
-28 -86 0 -16 10 1 25 45 25 72 49 113 60 103 3 -4 -2 -20 -10 -37 -20 -38
-20 -64 0 -31 11 19 14 20 10 5 -16 -65 -18 -79 -9 -70 5 6 15 30 22 53 16 56
24 50 9 -6 -7 -29 -7 -47 -1 -53 7 -7 13 1 18 23 l8 33 7 -45 7 -45 3 50 c2
47 3 48 13 23 14 -36 26 -36 19 -2 -3 19 -1 25 7 20 16 -10 14 -95 -3 -144 -9
-25 -11 -44 -5 -47 5 -4 9 1 9 9 0 8 5 27 11 43 l11 28 13 -30 c13 -29 13 -29
8 17 -3 29 -1 53 6 61 6 8 9 27 7 43 -2 16 -1 21 1 11 2 -9 8 -17 12 -17 5 0
11 -14 15 -30 3 -17 17 -46 31 -64 16 -21 25 -47 26 -72 1 -34 2 -31 13 24 16
80 30 95 45 50 10 -27 14 -30 22 -18 11 15 10 10 -7 -52 -6 -22 -5 -22 12 -6
17 17 19 16 31 -14 7 -17 16 -29 19 -26 2 3 -1 17 -7 31 -15 34 -5 64 16 47
10 -9 15 -33 16 -79 0 -36 3 -61 5 -54 3 7 11 10 19 7 11 -5 12 1 3 30 -9 28
-9 39 1 49 7 6 12 8 10 2 -3 -17 13 -75 21 -75 4 0 11 19 15 43 l7 42 19 -52
c11 -29 25 -53 30 -53 12 0 12 0 -12 49 -11 23 -18 50 -16 59 2 10 9 -3 16
-28 7 -25 20 -56 31 -70 16 -21 20 -22 34 -11 18 15 18 15 34 -14 10 -17 11
-18 12 -2 0 9 5 17 10 17 6 0 10 7 10 15 0 8 4 15 9 15 11 0 24 -47 16 -59 -3
-5 1 -11 9 -14 9 -4 16 3 20 16 6 22 6 22 18 2 24 -42 36 -47 52 -23 l15 21
10 -26 c6 -14 8 -43 5 -64 l-4 -38 17 45 18 45 3 -39 c2 -25 6 -35 11 -27 5 7
6 -10 3 -38 -5 -57 14 -74 21 -18 2 20 5 10 6 -28 l3 -60 12 45 c7 28 18 46
29 48 9 2 17 11 18 20 0 14 2 13 10 -3 18 -40 32 -80 31 -88 -1 -4 4 -7 12 -7
9 0 12 7 9 19 -2 10 3 25 11 34 9 8 16 21 16 28 0 16 37 -32 56 -73 l15 -33
-5 40 c-2 22 -1 49 3 60 7 17 9 15 15 -15 16 -77 27 -110 37 -110 6 0 7 5 4
10 -4 6 -11 25 -15 43 -9 29 -8 30 5 13 16 -21 17 -21 33 9 10 19 11 19 21 -8
6 -16 11 -37 11 -48 0 -24 6 -24 33 2 l22 20 17 -20 c21 -27 28 -26 28 2 1 22
1 22 16 -3 13 -22 15 -22 11 -4 -3 16 0 20 12 17 13 -3 16 -16 15 -66 -1 -34
0 -44 3 -22 6 63 10 68 33 45 11 -11 20 -32 20 -47 0 -16 5 -35 10 -43 7 -12
10 -8 11 15 0 17 3 24 6 18 3 -9 10 -10 24 -2 15 8 21 6 26 -6 4 -12 8 -13 13
-5 11 17 30 3 30 -22 0 -17 2 -18 15 -8 12 10 15 9 15 -6 1 -17 2 -16 13 4 15
26 27 19 28 -17 0 -22 3 -19 14 14 l14 40 -4 -60 -5 -60 18 65 c17 59 19 62
25 37 4 -15 5 -32 2 -37 -4 -6 -1 -10 4 -10 6 0 11 6 12 13 1 6 5 1 9 -13 7
-22 8 -21 9 13 1 20 5 37 9 37 16 0 39 -65 35 -97 -9 -61 5 -34 22 42 17 78
34 98 36 43 1 -18 3 -26 6 -16 2 9 11 19 19 22 16 6 44 -15 44 -32 0 -6 10 -8
21 -5 18 5 20 3 14 -16 -4 -12 -2 -21 4 -21 6 0 11 11 11 24 0 37 17 40 29 6
14 -42 30 -37 26 8 -1 20 0 28 2 17 6 -25 23 -44 23 -26 0 7 6 19 14 27 13 12
14 10 9 -21 -4 -23 -2 -35 6 -35 6 0 11 8 12 18 0 10 3 12 6 5 10 -25 19 -12
15 21 -2 18 1 37 7 40 7 5 11 -2 11 -16 0 -13 4 -28 9 -34 5 -5 11 -20 14 -34
2 -14 5 -5 6 23 1 64 17 60 25 -7 5 -33 13 -57 22 -60 16 -6 17 -5 5 26 -6 17
-3 28 12 43 l20 20 -6 -23 c-7 -28 1 -54 14 -46 5 3 9 -4 9 -15 0 -12 5 -21
11 -21 7 0 8 12 4 32 -6 32 -5 32 10 13 9 -11 18 -30 22 -42 3 -13 10 -23 15
-23 6 0 7 11 4 25 -4 14 -2 25 3 25 5 0 12 -11 15 -25 4 -14 11 -25 17 -25 6
0 6 6 1 18 -12 22 -26 102 -18 102 13 0 46 -41 46 -57 0 -15 2 -15 9 -4 7 11
10 10 14 -5 3 -14 5 -12 6 7 0 15 7 32 15 39 12 9 17 5 25 -27 13 -45 36 -83
27 -43 -3 14 -9 35 -12 48 -4 12 -2 22 4 22 5 0 13 -11 16 -25 4 -14 10 -25
15 -25 5 0 7 10 3 22 -7 29 16 14 29 -19 5 -13 14 -21 19 -18 6 3 13 -1 16 -9
10 -25 32 -18 36 11 4 36 26 41 38 9 13 -34 22 -33 14 0 -5 19 -4 25 5 20 7
-4 11 0 11 11 1 11 9 3 21 -20 19 -36 21 -38 34 -20 8 10 15 32 15 48 1 17 4
24 7 17 2 -6 9 -10 14 -6 5 3 9 1 9 -4 0 -5 9 -12 21 -15 18 -5 20 -2 15 19
-9 36 3 29 20 -12 17 -40 30 -41 15 -1 -8 19 -7 27 4 31 20 7 26 -6 32 -69 4
-37 10 -55 19 -55 8 0 14 10 14 23 0 12 5 29 10 37 9 13 11 13 20 0 7 -12 10
-8 10 15 1 27 2 28 12 11 6 -11 11 -47 11 -80 0 -34 1 -45 4 -26 2 19 7 42 10
50 3 8 5 23 4 33 -1 9 3 17 8 17 6 0 12 -15 12 -32 1 -24 3 -27 6 -10 5 27 23
30 23 3 0 -10 7 -24 15 -31 16 -13 19 -5 16 45 0 13 6 6 18 -17 26 -55 28 -54
25 4 -3 41 -2 46 5 23 4 -17 13 -40 20 -50 11 -17 12 -14 8 22 -3 22 -1 45 3
50 4 4 10 17 13 28 2 11 4 3 4 -18 0 -41 10 -59 22 -38 5 8 12 -3 20 -33 6
-24 16 -48 23 -52 8 -5 9 -2 3 12 -4 10 -8 26 -9 34 -1 8 -8 32 -15 53 -7 20
-11 43 -9 49 5 15 38 -48 38 -72 0 -9 7 -25 15 -36 17 -23 19 -15 5 21 -6 15
-12 51 -14 81 -3 46 -2 53 10 43 8 -6 14 -8 14 -5 0 4 8 2 19 -3 10 -6 22 -26
25 -45 6 -32 9 -35 36 -31 19 2 30 -1 30 -9 0 -7 7 -21 16 -32 14 -18 15 -18
8 6 -4 14 -9 31 -12 39 -3 9 -1 12 6 7 9 -5 12 6 12 36 l1 43 21 -40 22 -40
10 28 c11 29 26 36 26 12 0 -8 9 -15 20 -15 21 0 25 13 21 63 -3 37 5 34 29
-10 17 -31 20 -33 16 -12 -4 19 -1 29 10 33 8 3 14 14 13 23 0 10 -1 21 0 26
2 13 40 -32 61 -74 12 -22 24 -39 26 -36 3 3 -2 19 -11 37 -17 32 -12 57 5 30
7 -11 10 -2 11 30 1 25 3 36 6 25 9 -36 24 -41 17 -6 -5 22 -4 32 3 28 6 -4
13 -29 15 -57 8 -81 28 -87 28 -9 1 64 1 64 15 32 14 -34 33 -47 20 -15 -13
33 -13 48 1 67 11 15 14 16 14 3 0 -8 7 -21 15 -28 10 -9 15 -9 15 -1 0 6 5
11 10 11 6 0 10 -7 10 -15 0 -8 4 -15 10 -15 5 0 7 6 4 13 -3 8 2 19 9 26 12
9 16 7 22 -16 4 -19 9 -23 14 -14 6 10 13 7 25 -10 17 -24 17 -24 11 14 -9 47
-1 47 24 0 26 -49 26 -37 1 38 -12 34 -19 64 -15 67 3 3 5 0 5 -6 0 -7 4 -12
10 -12 5 0 7 15 5 33 l-5 32 11 -30 c7 -16 15 -34 19 -40 4 -5 11 -25 15 -42
9 -45 22 -42 17 3 -4 28 -2 35 8 29 10 -6 12 -3 6 10 -5 15 -4 16 9 5 19 -16
19 -11 0 33 -17 42 -18 47 -7 47 5 0 17 -27 27 -60 10 -33 22 -60 27 -60 5 0
6 10 2 23 -16 52 -16 53 -1 34 13 -16 15 -15 21 14 3 17 10 28 16 24 5 -3 10
0 10 9 0 18 28 15 40 -4 7 -12 10 -11 16 3 9 25 29 21 41 -10 11 -26 11 -25 8
14 -4 57 4 86 22 78 11 -3 13 -1 10 10 -4 8 -2 17 3 20 5 3 12 -10 16 -30 8
-42 24 -57 21 -19 -3 37 17 40 34 7 13 -27 14 -25 17 45 4 91 22 86 23 -6 0
-71 17 -137 18 -74 1 17 5 32 10 32 6 0 6 12 -1 31 -7 20 -7 34 0 41 6 6 12
-2 16 -26 4 -20 11 -36 17 -36 6 0 6 7 1 18 -5 9 -12 33 -15 52 l-7 35 19 -23
c13 -15 21 -18 24 -10 3 7 6 0 6 -17 1 -16 6 -37 11 -45 7 -10 8 6 4 50 -4 47
-3 61 5 50 6 -8 11 -13 12 -10 0 3 3 19 5 35 6 32 24 59 24 35 0 -7 6 -21 13
-29 7 -9 19 -35 27 -58 7 -24 16 -43 20 -43 4 0 2 17 -6 37 -7 21 -13 45 -13
53 0 23 29 -19 30 -44 1 -14 4 -12 8 9 4 17 6 46 4 65 -4 29 -2 32 7 17 14
-22 30 -13 29 16 0 21 -1 21 -9 2 -7 -16 -9 -17 -9 -3 -1 9 6 23 14 32 8 8 15
20 15 26 0 7 6 5 16 -4 23 -23 26 -20 19 21 -5 34 -4 36 6 13 11 -24 11 -24
19 -5 8 18 9 18 10 -5 1 -14 6 -34 11 -45 6 -14 8 -5 5 34 -2 47 -1 51 11 35
7 -10 19 -36 25 -56 14 -49 25 -49 20 0 -2 28 -1 33 7 22 6 -8 11 -27 11 -42
0 -15 4 -30 10 -33 9 -5 5 68 -5 102 -2 7 0 15 5 18 6 4 10 0 10 -7 0 -10 2
-10 9 1 7 11 10 9 16 -8 3 -11 10 -21 15 -21 5 0 2 20 -6 45 -14 40 -14 46 0
67 16 22 16 22 16 -19 0 -23 5 -45 11 -49 8 -5 9 6 4 36 -6 33 -4 41 5 35 8
-5 18 -1 26 10 8 10 17 15 21 12 6 -6 -12 -121 -25 -154 -2 -7 0 -13 6 -13 5
0 12 20 15 44 6 41 38 137 55 163 15 24 60 -8 78 -55 24 -63 26 -46 4 27 -25
79 -25 101 -2 99 39 -3 52 3 52 23 0 11 5 17 10 14 6 -3 10 -14 10 -24 0 -9 7
-26 16 -37 14 -18 15 -18 8 6 -6 24 -6 24 10 5 9 -11 21 -37 26 -59 16 -54 22
-39 10 24 -5 29 -10 66 -10 83 0 29 1 30 15 11 14 -18 14 -17 4 11 -12 33 -19
105 -10 105 4 0 12 -13 19 -30 23 -52 56 -35 54 27 -2 40 13 43 26 6 9 -23 11
-24 12 -8 1 11 1 36 1 55 l-1 35 15 -25 16 -25 -5 27 c-4 15 -2 29 3 32 4 3
11 -18 14 -46 6 -48 12 -66 21 -57 2 2 -1 33 -6 68 -8 50 -7 65 3 72 9 5 17
-2 26 -23 7 -17 16 -29 18 -26 3 3 -1 20 -9 39 -8 21 -10 42 -5 54 7 19 8 19
8 1 1 -30 23 -96 32 -96 5 0 4 12 -1 26 -15 39 -11 53 5 19 8 -16 14 -23 14
-15 -3 46 4 49 15 7 17 -63 38 -86 29 -31 -8 43 -8 56 -4 129 2 42 4 46 11 25
5 -14 11 -41 14 -61 6 -32 10 -37 31 -35 21 1 25 5 21 26 -13 72 -16 124 -7
110 6 -8 11 -28 11 -45 1 -16 7 -43 16 -60 12 -26 13 -26 8 -5 -3 14 -8 67
-11 119 -4 69 -3 92 6 87 6 -4 11 -13 11 -21 0 -8 4 -17 10 -20 6 -4 7 6 4 25
-4 19 -2 30 5 30 6 0 11 -17 12 -37 0 -21 5 -47 10 -58 6 -14 7 -5 4 30 -4 37
-3 44 4 29 15 -35 33 -40 25 -8 -5 19 -4 25 5 20 13 -8 13 -3 2 47 -8 34 -7
36 6 25 14 -11 15 -10 10 12 -4 14 -4 19 -1 12 3 -6 9 -10 14 -7 5 3 11 -8 15
-25 4 -16 11 -32 16 -35 5 -4 5 3 0 17 -12 33 -8 101 7 105 6 3 12 -1 12 -9 1
-20 40 -102 46 -95 3 3 1 14 -5 26 -6 11 -13 44 -15 73 -2 29 -7 71 -11 92 -6
28 -5 37 4 32 6 -4 11 -19 11 -34 0 -37 17 -94 34 -117 10 -14 9 -2 -5 40 -11
33 -18 67 -16 75 2 8 12 -12 21 -45 23 -75 45 -125 57 -125 5 0 0 18 -11 40
-27 52 -50 152 -50 217 0 42 4 54 20 63 11 6 18 15 15 20 -3 4 12 22 32 39 21
17 35 31 31 31 -3 0 -30 -20 -59 -45 -52 -45 -79 -55 -40 -16 12 12 21 28 21
36 0 9 12 28 26 42 14 14 19 23 11 20 -32 -12 -12 35 28 66 59 45 64 51 25 32
-38 -20 -80 -28 -80 -15 0 4 12 19 26 34 15 14 23 26 19 26 -5 0 0 10 11 22
l19 22 -27 -17 c-37 -23 -49 -21 -18 3 l25 20 -24 0 c-20 0 -21 2 -11 15 17
20 1 19 -22 -2 -10 -9 -18 -12 -18 -7 0 16 14 31 50 53 42 25 36 27 -16 5 -39
-16 -39 -16 -21 3 10 11 36 28 57 38 22 10 38 20 36 22 -2 3 -23 -5 -47 -16
-23 -12 -43 -21 -44 -21 0 0 -1 9 -2 19 -2 23 15 39 54 51 27 8 26 9 -7 6 -19
-2 -43 -7 -53 -11 -25 -10 -36 4 -15 19 9 7 19 24 22 39 4 25 3 26 -17 15 -12
-6 -38 -13 -57 -15 l-34 -4 24 25 c13 15 19 26 14 26 -5 0 0 7 10 15 23 17 14
20 -15 5 -25 -14 -24 1 2 34 l21 27 -33 -20 c-52 -32 -58 -24 -14 16 27 24 31
30 13 19 -15 -9 -36 -16 -47 -16 -11 0 -23 -5 -27 -12 -5 -8 -2 -9 11 -4 18 7
18 6 0 -14 -21 -23 -44 -28 -25 -5 7 8 9 15 4 15 -5 1 7 15 26 32 l35 31 -37
-21 c-24 -14 -35 -16 -32 -7 3 7 19 19 36 26 26 11 28 13 12 22 -12 7 -23 6
-36 -2 -28 -18 -21 -3 15 30 l32 31 -35 -21 c-51 -31 -58 -26 -21 13 l34 35
-33 -6 c-18 -2 -44 -9 -57 -14 -13 -5 -27 -9 -30 -9 -11 0 22 32 42 41 16 8
15 8 -8 4 -25 -5 -27 -4 -18 14 6 11 20 23 32 26 11 4 19 9 16 11 -4 4 -69
-19 -99 -36 -29 -16 -21 -2 30 53 l47 51 -42 -32 c-43 -34 -48 -28 -21 25 9
18 16 33 15 33 -1 0 -20 -7 -42 -15 -59 -21 -72 -19 -49 7 17 19 17 21 2 15
-25 -9 -22 8 5 27 21 15 21 16 -20 12 -23 -2 -48 -8 -55 -12 -7 -4 -4 3 7 16
l20 23 -30 -7 -30 -7 25 21 c28 22 24 25 -14 10 -19 -7 -26 -6 -26 3 0 8 -4 7
-10 -3 -5 -8 -12 -11 -16 -8 -7 8 33 68 46 68 5 0 15 10 21 22 12 22 11 22 -8
5 -21 -18 -69 -24 -58 -7 3 6 1 10 -6 10 -7 0 -2 11 11 25 32 34 14 32 -24 -2
-17 -16 -25 -21 -18 -13 18 21 15 32 -9 25 -15 -5 -19 -4 -15 4 10 16 -1 14
-32 -6 -26 -17 -26 -16 7 27 l35 45 -38 -35 -37 -35 5 27 c2 15 7 31 10 36 7
12 -26 11 -41 -1 -9 -6 -13 -6 -13 2 0 7 -4 9 -10 6 -5 -3 -10 -2 -10 4 0 6
10 15 21 22 12 6 18 14 13 18 -13 9 -11 36 6 57 12 15 9 14 -16 -3 -17 -12
-37 -29 -44 -38 -19 -23 -29 -18 -24 10 4 26 4 26 -21 9 -14 -9 -28 -14 -31
-11 -3 3 13 17 35 31 23 15 41 29 41 32 0 4 -6 2 -13 -4 -17 -15 -60 -3 -53
14 3 9 -1 11 -12 8 -9 -3 -4 6 13 21 23 20 24 24 8 16 -18 -9 -23 -9 -23 1 -1
7 -7 1 -15 -14 -8 -15 -24 -30 -36 -33 -29 -10 -37 3 -8 14 13 5 18 10 10 10
-11 1 -10 6 3 26 10 15 12 25 6 25 -6 0 -8 5 -5 10 8 14 1 13 -42 -5 -46 -20
-50 -19 -28 5 18 20 18 21 -1 14 -10 -4 -25 -12 -33 -18 -11 -8 -13 -8 -7 2 4
7 31 28 59 47 54 36 57 48 5 17 -28 -16 -30 -16 -39 0 -8 14 -15 15 -36 7 -23
-8 -24 -8 -13 6 7 8 9 15 4 15 -5 0 0 7 10 15 23 18 17 19 -20 5 -24 -9 -26
-8 -21 10 5 20 5 20 -21 -1 -16 -12 -28 -16 -30 -10 -2 6 -8 9 -13 5 -5 -3 -9
-1 -9 4 0 6 17 17 38 26 l37 17 -32 -4 c-32 -3 -41 2 -26 17 4 3 8 13 9 22 2
11 -1 12 -11 4 -18 -15 -31 6 -14 26 6 8 9 17 6 20 -8 8 -70 9 -92 0 -16 -6
-15 -4 5 14 14 12 18 20 9 17 -9 -3 -22 -1 -30 4 -11 7 -12 12 -2 28 11 17 10
19 -2 15 -8 -4 -15 -2 -15 4 0 6 6 12 13 15 9 3 9 8 1 17 -8 8 -14 8 -18 1 -5
-7 -14 -7 -31 1 -13 6 -22 15 -19 19 6 10 -17 2 -56 -18 -33 -17 -40 -6 -11
18 19 16 20 19 6 19 -17 0 -17 1 -2 18 20 22 22 36 4 29 -21 -8 -14 33 8 49
23 17 12 18 -18 2 -12 -6 -31 -13 -42 -14 -11 -1 -31 -5 -44 -9 -21 -7 -22 -6
-12 12 6 12 18 24 28 27 14 6 15 9 3 16 -8 5 -21 5 -32 -1 -31 -17 -20 0 15
21 35 22 29 25 -22 10 l-34 -10 29 32 29 32 -35 -26 c-40 -28 -87 -47 -76 -29
4 6 13 11 20 11 8 0 19 7 26 15 11 13 6 14 -35 10 -43 -4 -46 -3 -34 12 12 14
11 15 -11 9 -14 -4 -34 -10 -45 -12 -20 -5 -20 -5 -1 10 12 10 15 16 7 16 -11
0 -11 3 0 17 10 12 4 10 -18 -5 -17 -12 -41 -22 -53 -22 -19 0 -17 4 16 35 35
34 36 35 10 25 -15 -5 -34 -17 -42 -25 -9 -8 -21 -15 -27 -15 -7 0 -6 4 3 10
11 7 11 10 2 10 -8 0 -10 5 -6 12 5 7 2 9 -9 5 -12 -5 -14 0 -11 20 4 22 3 24
-10 14 -8 -7 -23 -11 -33 -8 -16 4 -15 6 4 12 13 4 20 11 18 16 -3 4 3 12 12
18 27 16 13 13 -45 -9 -67 -26 -85 -25 -47 1 25 18 27 20 8 16 -13 -3 -23 -2
-23 2 0 5 10 13 23 20 19 10 17 11 -16 6 -24 -4 -37 -3 -33 3 8 13 -20 23 -41
15 -11 -4 -14 -3 -9 5 4 7 16 12 27 12 10 0 19 5 19 10 0 6 -9 10 -21 10 -13
0 -18 4 -14 13 4 6 -1 3 -9 -7 -19 -23 -21 -14 -5 17 12 22 12 22 -10 3 -11
-11 -21 -25 -21 -33 0 -7 -4 -13 -10 -13 -5 0 -7 6 -4 14 4 11 0 13 -17 9 -15
-4 -20 -3 -15 5 4 7 3 12 -3 12 -5 0 -13 -4 -16 -10 -3 -5 -11 -10 -17 -10
-18 0 13 30 51 50 20 11 30 19 22 20 -11 0 -11 3 0 17 8 9 -2 5 -21 -9 -19
-15 -48 -32 -64 -38 -27 -10 -28 -9 -23 12 5 21 4 21 -16 -5 -13 -15 -28 -27
-35 -27 -19 0 -14 32 11 58 l22 25 -30 -8 c-35 -8 -85 -13 -85 -7 0 2 5 13 12
25 10 20 10 21 -5 8 -10 -7 -17 -19 -17 -26 0 -7 -11 -12 -24 -11 -18 1 -22 4
-14 14 8 9 7 11 -6 6 -27 -10 -19 23 14 58 38 39 38 45 1 19 -16 -12 -34 -21
-41 -21 -6 0 -9 -4 -5 -9 3 -5 0 -13 -6 -17 -8 -4 -9 -3 -5 4 10 17 2 15 -41
-9 -27 -15 -33 -17 -24 -5 9 10 9 16 3 16 -6 0 -10 6 -8 13 1 6 1 9 -1 5 -3
-5 -11 -8 -19 -8 -8 0 -14 -6 -14 -12 0 -10 -2 -10 -8 0 -6 9 -12 6 -20 -13
-6 -14 -16 -25 -22 -25 -14 0 -13 5 11 51 11 23 17 39 12 36 -5 -3 -19 -26
-32 -51 -12 -25 -27 -46 -33 -46 -5 0 1 19 14 43 l25 43 -34 -11 c-19 -6 -39
-17 -45 -23 -17 -17 -33 -15 -18 3 22 26 2 16 -25 -12 -14 -15 -25 -23 -25
-17 0 5 6 16 13 23 10 10 6 10 -17 1 -25 -9 -28 -8 -22 7 4 12 -1 9 -14 -7
l-21 -25 5 25 c5 20 3 19 -9 -6 -8 -17 -21 -34 -30 -37 -20 -8 -19 2 2 20 17
14 17 14 -2 8 -11 -4 -26 -8 -33 -9 -7 -1 -18 -8 -24 -14 -18 -18 -38 -15 -39
6 0 11 -5 6 -14 -13 -7 -16 -11 -33 -9 -36 2 -4 -3 -12 -11 -19 -10 -9 -15 -9
-15 -1 0 6 6 11 13 11 6 0 4 5 -5 11 -10 5 -18 15 -18 22 0 8 3 7 9 -2 7 -10
10 -8 16 10 4 13 19 36 33 51 14 15 23 30 20 33 -3 3 -24 -16 -46 -42 -90
-107 -84 -101 -79 -75 3 12 1 20 -4 16 -5 -3 -9 -10 -9 -15 0 -14 -42 -69 -53
-69 -5 0 -2 11 7 25 19 28 20 35 6 35 -5 0 -17 -15 -26 -33 -11 -21 -19 -27
-22 -18 -3 10 -9 7 -18 -10 -9 -17 -13 -19 -14 -8 0 9 7 22 15 29 8 7 15 10
15 8 0 -3 18 12 39 33 22 20 60 47 85 60 25 12 44 24 42 26 -3 4 -27 -6 -91
-36 -5 -2 -3 4 5 15 8 10 -11 -4 -42 -31 -32 -28 -58 -53 -58 -57 0 -16 -19
-8 -23 10 -3 10 -5 4 -6 -13 -2 -40 -40 -81 -79 -87 -29 -4 -32 -2 -26 16 3
12 -5 6 -20 -15 -28 -41 -56 -57 -56 -33 0 8 -5 12 -10 9 -6 -4 -8 -10 -5 -15
7 -11 -30 -50 -46 -50 -6 0 -13 9 -16 21 -5 17 -8 14 -24 -20 -10 -23 -23 -41
-29 -41 -6 0 -8 6 -5 13 4 6 -1 3 -10 -8 -9 -11 -20 -19 -25 -18 -5 2 -23 -17
-40 -42 -17 -25 -39 -49 -50 -55 -11 -6 -17 -16 -14 -24 3 -7 -2 -19 -11 -26
-17 -14 -21 0 -4 17 7 7 6 12 -5 16 -10 4 -16 1 -16 -6 0 -7 -13 -25 -28 -40
-30 -28 -48 -36 -37 -14 4 6 -5 -3 -20 -21 -14 -17 -32 -32 -40 -32 -7 0 -16
-6 -19 -12 -3 -7 -4 -1 -2 14 1 15 -1 25 -5 22 -16 -10 -9 7 21 52 17 24 28
44 25 44 -12 0 -86 -126 -106 -180 -19 -52 -53 -92 -84 -99 -5 -1 -18 -10 -27
-18 -17 -15 -18 -14 -19 13 -1 25 -2 23 -9 -11 -4 -22 -6 -45 -3 -51 2 -7 -1
-15 -8 -20 -9 -5 -10 -2 -5 11 5 15 4 16 -9 5 -9 -7 -14 -19 -11 -26 3 -8 2
-13 -3 -11 -4 1 -29 -20 -55 -48 l-47 -50 5 35 c5 31 4 30 -9 -10 -8 -24 -22
-48 -30 -53 -8 -4 -15 -14 -15 -22 0 -8 -4 -17 -10 -20 -6 -4 -7 1 -4 12 4 11
-4 6 -18 -11 -14 -16 -32 -30 -41 -32 -14 -2 -12 6 9 43 31 57 26 67 -7 13
-13 -23 -30 -48 -37 -58 -12 -15 -12 -14 -7 8 5 19 4 22 -4 10 -10 -13 -11
-13 -11 0 -1 8 -12 -9 -25 -39 -17 -37 -29 -52 -39 -48 -8 3 -17 1 -20 -6 -3
-8 -5 -7 -5 2 -1 8 7 20 17 27 16 13 16 14 -3 7 -16 -5 -14 0 10 27 l30 33
-30 -20 c-16 -12 -56 -44 -88 -72 -32 -28 -61 -51 -64 -51 -3 0 -3 10 0 22 6
20 3 19 -17 -6 l-22 -29 6 59 c8 64 4 86 -6 36 -5 -27 -9 -30 -25 -22 -14 8
-19 6 -24 -10 -5 -16 -9 -18 -25 -8 -14 9 -16 16 -8 25 7 9 7 13 0 13 -6 0
-16 -9 -22 -21 -7 -11 -18 -18 -25 -15 -8 3 -17 1 -20 -4 -3 -6 -16 -15 -28
-21 -18 -9 -20 -9 -9 2 19 21 14 34 -7 15 -18 -16 -18 -15 -15 20 2 34 2 35
-12 16 -17 -25 -84 -65 -84 -51 0 6 -7 8 -16 5 -14 -5 -15 -4 -4 9 15 18 34
20 24 3 -5 -7 6 1 23 17 17 17 29 31 28 33 -2 2 -26 -8 -54 -22 -28 -14 -53
-26 -56 -26 -3 0 2 16 10 36 20 49 19 50 -9 17 -27 -32 -86 -69 -86 -54 0 5 6
12 13 14 6 3 -6 3 -28 0 -39 -6 -39 -5 -23 13 13 15 14 21 3 31 -9 8 -15 9
-24 0 -8 -8 -11 -6 -11 7 0 14 -3 16 -12 8 -13 -10 -40 -15 -68 -13 -22 2 9
29 38 34 12 2 27 8 33 14 7 7 -1 8 -30 3 -34 -6 -39 -5 -30 6 6 8 8 14 5 14
-4 0 -2 10 4 23 7 13 1 9 -15 -10 -15 -18 -31 -33 -36 -33 -15 0 -10 22 9 44
l17 20 -30 -18 c-16 -10 -40 -28 -52 -39 -13 -11 -26 -17 -30 -14 -3 4 3 15
14 24 26 23 20 47 -8 32 -11 -6 -30 -9 -42 -6 -22 3 -22 4 3 15 14 6 21 11 15
12 -5 0 -3 5 5 10 12 8 9 10 -12 10 -29 0 -38 14 -15 24 6 3 1 3 -12 0 -16 -4
-21 -3 -17 5 9 15 -7 14 -22 -1 -21 -21 -23 -2 -1 25 11 15 16 27 10 27 -5 0
-12 -4 -15 -9 -3 -5 -21 -14 -38 -20 -27 -9 -30 -8 -18 2 8 6 22 21 30 32 15
19 15 19 -12 2 -23 -14 -28 -15 -28 -3 0 7 7 17 16 20 9 4 14 9 11 13 -8 7
-66 -15 -87 -33 -14 -11 -15 -8 -12 28 l4 40 -22 -22 c-25 -25 -40 -20 -19 7
12 14 12 15 0 9 -9 -6 -12 -4 -9 5 3 8 10 14 16 14 5 0 14 4 19 9 5 5 3 6 -4
2 -7 -4 -13 -3 -13 2 0 11 29 37 50 45 13 5 13 6 -1 6 -9 1 -33 -16 -55 -37
-21 -20 -32 -29 -25 -19 15 19 1 23 -18 5 -10 -11 -11 -10 -6 5 4 9 13 17 20
17 8 0 17 5 20 10 8 14 -48 4 -84 -14 -14 -7 -32 -11 -39 -9 -16 6 16 54 67
102 20 19 27 28 16 20 -11 -7 -37 -29 -58 -48 -21 -20 -37 -29 -35 -21 2 9 -3
14 -13 12 -23 -3 -20 29 5 57 11 13 15 21 7 16 -11 -6 -13 -4 -7 10 6 18 6 18
-12 2 -32 -29 -43 -21 -25 20 l15 38 -21 -19 c-18 -17 -21 -17 -21 -3 0 9 12
23 28 32 l27 16 -30 -6 c-16 -4 -43 -13 -59 -21 -39 -19 -40 -18 -19 10 10 13
22 21 27 18 5 -3 6 0 2 7 -5 7 -15 9 -25 6 -27 -12 -72 -15 -66 -6 13 21 -18
21 -41 0 -26 -24 -31 -20 -14 12 6 10 18 19 26 19 9 0 14 6 12 12 -5 14 27 43
64 57 17 7 19 10 5 10 -10 1 -34 -6 -54 -14 -45 -19 -62 -19 -37 0 16 13 16
14 2 9 -20 -7 -24 11 -5 23 6 4 19 17 27 28 10 13 4 11 -21 -8 -20 -15 -41
-27 -48 -27 -6 0 -24 -8 -39 -17 l-27 -17 25 29 25 28 -32 -23 c-39 -28 -47
-23 -33 16 10 29 9 29 -6 7 -21 -29 -38 -30 -23 -2 11 21 10 21 -12 5 -13 -9
-27 -16 -30 -16 -15 0 -1 34 22 53 23 20 21 20 -28 0 -15 -6 -16 -4 -6 9 19
22 3 31 -21 11 -21 -18 -21 -18 -2 4 10 13 22 20 27 18 4 -3 10 -1 13 4 11 17
-8 19 -49 6 l-40 -14 28 24 c33 29 34 39 4 32 -12 -4 -28 -2 -36 2 -11 7 -6
13 20 27 28 14 31 18 16 23 -17 6 -17 9 5 36 12 17 32 38 43 47 17 15 15 15
-18 -1 -21 -11 -45 -25 -54 -33 -14 -11 -16 -11 -11 4 6 14 4 15 -20 2 -35
-18 -59 -18 -59 1 0 8 4 12 8 10 15 -10 27 20 14 32 -8 8 -16 9 -20 4 -3 -6
-14 -9 -25 -8 -10 1 -16 5 -13 10 3 4 7 6 10 3 6 -6 63 21 63 29 0 5 -16 2
-75 -12 -12 -3 -8 4 13 18 18 12 31 24 28 26 -3 3 -22 -8 -43 -24 -55 -43 -71
-51 -48 -23 l20 24 -27 -17 c-31 -19 -38 -21 -38 -8 0 5 16 15 35 22 l35 13
-33 11 c-20 7 -37 8 -44 2 -19 -14 -16 8 2 23 12 10 15 10 15 -1 0 -7 10 1 23
18 13 18 34 41 48 53 l24 22 -35 -21 c-19 -11 -34 -26 -32 -32 1 -6 -2 -8 -8
-4 -6 4 -22 0 -35 -9 -13 -9 -29 -16 -35 -16 -18 0 -11 18 11 25 12 4 18 12
15 21 -3 8 0 14 6 14 6 0 9 3 6 6 -4 3 -16 1 -27 -6 -26 -13 -27 -3 -3 23 10
13 11 17 3 12 -11 -6 -13 -4 -7 10 5 15 4 16 -9 5 -8 -7 -15 -9 -15 -5 0 5 -9
0 -20 -10 -11 -10 -23 -16 -26 -13 -3 3 12 20 33 37 l38 32 -42 -15 c-48 -17
-58 -7 -17 15 l26 14 -23 5 c-23 6 -22 7 16 33 22 15 35 27 29 27 -6 0 -26
-10 -45 -23 -61 -41 -66 -44 -49 -22 14 17 14 18 -8 6 -31 -17 -40 -6 -17 19
10 11 14 20 10 20 -5 0 0 7 11 15 18 14 17 14 -9 5 -38 -13 -38 -14 -27 15 11
28 -3 35 -18 9 -7 -13 -62 -29 -62 -18 0 2 17 15 37 29 21 14 33 25 27 25 -5
0 -19 -7 -30 -15 -30 -22 -36 -18 -17 13 17 25 17 26 0 13 -21 -17 -22 -8 -1
13 14 15 14 16 -1 16 -9 0 -14 4 -10 9 3 5 1 12 -4 16 -5 3 -14 -3 -20 -12 -9
-16 -10 -16 -11 -1 0 9 5 20 10 23 6 3 10 11 10 16 0 6 -12 1 -27 -10 -28 -23
-43 -21 -23 4 10 12 10 15 -5 15 -14 0 -13 3 6 21 l24 20 -23 -11 c-51 -25
-42 -1 13 33 83 52 56 46 -39 -8 -43 -25 -80 -45 -81 -45 -2 0 -1 9 2 20 3 11
9 20 13 20 4 0 11 7 14 16 5 13 1 15 -20 10 -19 -5 -24 -4 -19 6 4 7 -3 2 -14
-11 -27 -30 -35 -24 -17 11 17 32 9 44 -13 20 -9 -10 -12 -12 -7 -5 5 7 5 13
0 13 -4 0 3 11 16 25 23 25 23 25 2 25 -11 0 -24 -4 -27 -10 -8 -12 -25 -13
-25 -1 0 5 16 16 35 25 38 18 47 31 15 21 -12 -4 -20 -2 -20 4 0 7 -13 6 -36
-4 -49 -20 -51 -19 -24 10 12 13 26 22 30 20 5 -3 11 2 14 11 9 24 7 28 -9 14
-8 -6 -20 -10 -27 -8 -7 3 5 14 27 26 22 12 37 21 34 22 -14 1 -75 -25 -87
-37 -25 -25 -35 -13 -11 13 l24 26 -25 -6 -25 -7 25 20 c30 25 20 27 -21 5
-45 -23 -46 -10 -2 21 34 23 35 25 11 19 -32 -7 -35 1 -12 36 11 18 8 16 -10
-5 -14 -16 -26 -33 -26 -36 0 -11 -54 -18 -70 -9 -12 7 -7 12 20 25 20 9 25
14 12 11 -20 -4 -21 -2 -10 11 7 8 21 19 33 23 19 8 19 9 -3 9 -16 1 -21 5
-16 14 5 6 -7 -1 -26 -17 -37 -30 -55 -20 -24 15 13 15 14 19 3 19 -10 1 -8 5
5 15 28 21 12 30 -18 10 -14 -9 -31 -15 -38 -12 -9 4 -8 6 3 6 9 1 23 8 30 18
13 15 12 15 -9 4 -22 -12 -23 -11 -12 9 11 21 11 21 -22 5 l-33 -16 33 30 c36
34 35 40 -3 15 -35 -23 -31 -4 5 26 41 34 40 51 -2 39 -17 -5 -36 -13 -42 -19
-19 -19 -29 -10 -11 10 18 20 18 21 -1 14 -17 -7 -17 -6 -5 9 12 15 11 17 -5
18 -16 0 -16 2 4 9 12 5 22 12 22 15 0 4 -4 3 -10 0 -5 -3 -10 -1 -10 5 0 6
14 17 31 24 20 9 27 15 18 18 -8 3 -29 -1 -48 -8 -57 -24 -84 -26 -78 -6 2 9
6 24 8 32 2 8 9 18 14 22 6 4 -3 8 -19 8 -29 0 -29 0 -10 21 19 22 19 22 -5 9
l-24 -12 24 38 24 39 -29 -19 c-29 -18 -29 -18 -23 3 4 18 3 19 -16 10 -16 -7
-13 -2 8 16 18 16 22 23 10 17 -11 -5 -33 -12 -50 -16 l-30 -7 25 21 c14 11
34 20 45 20 20 1 20 1 0 9 -12 5 -33 2 -53 -6 -37 -15 -37 -8 1 34 l20 22 -32
-9 c-38 -11 -40 -5 -3 14 26 14 26 14 -25 12 -29 -2 -53 -1 -53 0 0 2 16 12
36 22 l37 19 -33 7 c-32 6 -33 7 -14 22 17 14 17 15 1 10 -15 -5 -17 -2 -12
14 9 29 -14 25 -25 -5 -5 -14 -17 -25 -27 -25 -15 0 -15 1 1 13 18 13 18 14 2
20 -13 5 -15 13 -10 29 6 21 6 22 -12 8 -18 -14 -18 -14 -5 3 7 9 21 17 30 18
10 0 12 2 3 6 -6 2 -10 9 -6 14 3 5 -2 9 -10 9 -9 0 -16 -4 -16 -10 0 -5 -6
-10 -12 -10 -7 1 -2 10 12 20 14 11 30 24 37 30 7 5 18 10 24 10 7 0 10 3 7 6
-4 3 -22 1 -42 -4 -26 -8 -36 -7 -36 1 0 8 -4 7 -12 -1 -22 -22 -29 -12 -11
16 l17 27 -23 -22 c-12 -13 -23 -23 -24 -23 -2 0 -2 12 -2 28 1 23 8 29 48 43
26 8 49 18 53 21 6 7 -72 -9 -90 -18 -6 -3 0 4 14 17 l25 22 -26 -5 c-21 -4
-26 -1 -24 11 2 9 4 17 5 19 2 1 3 5 4 10 1 4 5 13 10 21 9 14 -30 -8 -69 -38
-19 -15 -19 -15 -5 4 8 11 20 24 25 28 6 5 0 7 -13 4 -19 -5 -21 -3 -11 9 14
17 -2 19 -21 2 -8 -7 0 4 19 24 19 21 32 40 29 43 -3 3 -11 -1 -18 -10 -14
-17 -30 -20 -30 -6 0 5 17 20 37 32 43 27 30 36 -21 15 -20 -8 -34 -11 -31 -6
3 6 1 10 -5 10 -6 0 -9 4 -6 9 4 5 -2 7 -13 4 -37 -10 -30 16 11 41 46 28 41
33 -11 15 -25 -9 -35 -9 -44 1 -9 10 -9 11 0 6 6 -3 14 -3 17 2 3 5 -1 9 -9
10 -8 1 -22 3 -30 4 -23 2 7 32 59 58 l41 21 -35 -6 c-19 -4 -39 -11 -44 -16
-13 -11 -26 -12 -26 0 0 4 19 33 42 62 32 41 35 47 12 27 -29 -27 -84 -53 -84
-41 0 4 7 14 16 24 9 10 11 19 5 23 -5 4 -19 -3 -30 -15 l-20 -22 4 23 c2 12
12 31 21 41 14 15 14 19 3 19 -8 1 4 17 26 36 40 35 21 37 -24 2 -13 -10 -28
-18 -34 -18 -6 0 -2 7 9 15 12 9 14 14 5 15 -10 0 -9 6 5 28 15 23 15 25 1 13
-9 -7 -17 -10 -17 -5 0 4 -5 3 -12 -4 -15 -15 -28 -15 -28 -1 0 5 28 24 63 40
34 16 51 27 37 23 -14 -4 -37 -13 -52 -20 -38 -20 -44 -17 -22 8 l19 21 -28
-18 c-32 -20 -52 -11 -23 11 19 14 19 14 -3 14 -16 0 -21 4 -17 15 3 8 1 15
-4 15 -17 0 -11 20 15 45 13 14 21 25 17 25 -4 1 13 12 38 25 55 30 51 31 -17
5 -29 -11 -53 -16 -53 -11 0 16 50 70 70 76 11 4 20 11 20 17 0 6 8 17 18 24
12 10 13 13 2 10 -8 -2 -31 -7 -50 -10 -33 -5 -34 -5 -15 10 20 16 19 16 -4 9
l-23 -7 18 31 c21 36 12 52 -16 26 -11 -10 -20 -14 -20 -9 0 16 23 34 44 35
12 0 15 3 8 6 -8 3 -5 11 10 25 13 11 17 17 11 13 -7 -3 -13 -2 -13 4 0 5 -3
16 -6 24 -4 11 7 19 38 30 31 11 36 16 20 16 -13 1 -32 -4 -44 -10 -28 -15
-35 -3 -12 23 13 16 14 19 2 10 -14 -11 -16 -9 -16 22 0 26 4 33 15 29 12 -5
13 2 9 33 -3 22 -3 30 0 20 6 -20 28 -46 39 -46 3 0 1 9 -5 20 -13 23 7 28 29
8 12 -11 13 -9 6 7 -15 41 -17 55 -6 55 6 0 11 8 12 18 0 13 3 12 11 -5 6 -13
15 -23 20 -23 5 0 4 8 -1 19 -34 63 -47 142 -21 126 5 -3 13 14 18 37 6 24 10
34 11 23 1 -14 8 -20 24 -20 23 0 23 1 10 33 -7 17 -9 32 -5 32 5 0 14 10 20
23 6 12 11 16 11 10 1 -7 6 -13 11 -13 14 0 12 38 -2 42 -10 4 -10 10 -1 29
10 20 12 21 12 5 1 -20 52 -135 61 -135 3 -1 3 20 1 46 -3 45 -2 47 15 33 16
-14 17 -13 9 5 -13 31 -19 88 -8 82 5 -3 15 -28 23 -56 13 -48 36 -64 24 -16
-3 13 -2 31 3 40 7 12 14 4 32 -40 13 -30 27 -55 32 -55 4 0 0 19 -10 43 -11
25 -18 65 -18 95 1 51 1 52 14 25 l13 -28 -5 33 c-2 17 0 32 5 32 6 0 10 7 10
15 0 10 7 15 18 13 13 -2 16 3 14 25 -2 15 1 27 7 27 6 0 11 -8 11 -17 0 -10
6 -30 14 -45 8 -14 17 -44 21 -65 3 -21 13 -49 21 -63 l15 -25 -6 25 c-41 171
-37 228 5 72 18 -67 22 -43 5 29 -18 79 -18 79 -1 79 8 0 17 -12 20 -26 4 -15
9 -24 12 -21 3 3 0 23 -7 46 -9 29 -9 47 -2 63 l11 23 12 -27 c17 -36 29 -35
37 3 8 40 16 29 42 -57 11 -39 28 -77 36 -84 19 -16 19 -11 -1 29 -15 31 -20
79 -15 161 l2 35 19 -40 c11 -22 18 -30 16 -17 -2 12 0 22 5 22 4 0 6 7 3 15
-4 8 -2 15 4 15 6 0 12 -6 15 -12 2 -7 7 6 11 29 9 50 26 67 26 26 0 -15 5
-35 10 -43 8 -12 10 -11 10 8 0 32 17 27 25 -8 12 -56 23 -40 19 30 -2 39 -6
75 -9 80 -4 6 -1 10 4 10 6 0 11 -4 11 -8 0 -5 7 -17 15 -28 14 -18 14 -17 5
9 -11 30 1 70 14 48 4 -6 2 -11 -4 -11 -6 0 -8 -4 -5 -10 7 -12 26 -14 23 -2
0 4 2 15 5 25 4 9 9 24 12 33 4 13 8 14 20 4 10 -9 15 -9 15 -1 0 6 5 11 10
11 6 0 10 -11 10 -24 0 -14 4 -27 9 -31 6 -3 8 9 7 27 -2 18 -1 25 1 16 2 -10
8 -18 13 -18 5 0 7 7 4 15 -5 11 -2 13 11 9 15 -6 16 -1 10 40 -9 58 10 63 25
6 6 -21 15 -42 19 -45 10 -6 4 46 -10 82 -15 39 -10 47 11 22 10 -13 20 -19
20 -14 13 117 12 114 35 95 13 -11 15 -9 15 14 0 34 18 33 26 -1 17 -76 25
-103 34 -108 12 -8 13 -9 -5 49 -14 46 -20 98 -8 69 2 -7 9 -13 13 -13 5 0 3
14 -4 31 -13 30 -11 69 3 69 3 0 14 -17 23 -38 17 -35 18 -28 3 11 -5 13 -3
16 8 11 11 -4 18 -26 22 -69 4 -36 14 -72 22 -82 14 -17 14 -17 7 2 -9 26 -12
149 -4 195 l6 35 12 -45 c11 -43 32 -85 32 -67 0 5 -7 33 -16 63 -14 50 -14
59 0 92 8 20 15 31 15 25 1 -7 6 -13 12 -13 5 0 8 3 5 8 -2 4 -1 23 3 42 l8
35 7 -27 c4 -15 14 -29 21 -32 11 -4 12 0 5 20 -13 33 -12 44 1 22 5 -10 15
-18 20 -18 6 0 7 5 4 10 -4 6 -8 25 -10 43 -1 18 -5 38 -6 46 -3 9 8 19 24 25
25 9 31 7 64 -29 20 -22 33 -32 30 -22 -16 43 -36 126 -42 168 -5 41 -3 47 17
57 l23 12 -24 -6 c-23 -6 -23 -5 -17 39 l7 46 -28 -5 -28 -5 25 24 c17 16 27
20 32 13 5 -6 8 -3 8 10 0 11 6 26 13 34 6 7 -6 3 -27 -10 -25 -15 -37 -18
-32 -9 3 8 9 21 12 30 3 9 17 22 30 28 13 6 24 16 24 22 0 6 -14 2 -32 -9
l-33 -21 0 25 c0 17 9 28 30 39 24 12 26 15 10 16 -16 0 -14 3 10 14 17 8 24
14 17 15 -7 0 -22 -5 -34 -11 -34 -18 -29 -5 17 44 39 39 41 45 20 37 -33 -12
-48 -13 -41 -1 9 13 -19 7 -38 -8 -11 -9 -16 -10 -16 -2 0 6 5 11 10 11 6 0
10 7 10 16 0 8 14 20 31 26 19 7 26 13 19 18 -7 4 0 12 20 20 17 7 29 15 27
17 -3 2 -28 -5 -56 -17 -61 -24 -67 -24 -52 -7 6 8 8 17 5 20 -11 10 48 78 85
98 35 18 35 19 6 12 -16 -3 -32 -9 -35 -13 -3 -4 -14 -4 -25 1 -11 4 -14 8 -6
8 8 1 12 4 9 7 -4 3 -16 1 -27 -6 -20 -10 -29 -1 -14 14 4 3 8 16 10 28 2 12
9 28 16 36 10 12 6 12 -20 -1 -37 -20 -43 -21 -43 -7 0 6 11 15 25 20 28 11
34 22 8 14 -11 -3 -6 5 12 21 l30 26 -39 -15 c-46 -19 -54 -20 -39 -5 6 6 9
18 6 25 -3 8 5 18 18 23 13 5 18 10 12 10 -24 2 -13 25 34 68 39 37 42 42 19
33 -15 -5 -36 -15 -46 -20 -16 -9 -18 -8 -13 6 5 15 4 15 -20 -1 -16 -10 -27
-13 -27 -6 0 6 3 11 8 11 4 0 7 13 7 29 0 16 -3 27 -7 24 -5 -2 -8 -11 -8 -19
0 -8 -5 -14 -11 -14 -5 0 -7 5 -3 12 5 8 2 9 -10 5 -20 -8 -14 6 18 41 20 22
20 23 1 16 -20 -7 -20 -7 0 17 11 13 13 18 5 12 -8 -7 -23 -13 -34 -12 -20 0
-20 1 2 11 12 6 22 15 22 20 0 13 -27 9 -40 -7 -7 -8 -16 -15 -20 -15 -13 0 3
55 19 67 27 20 8 20 -29 1 -19 -11 -26 -16 -16 -13 19 6 19 5 1 -15 -10 -11
-23 -20 -29 -20 -6 0 -6 4 1 11 6 6 9 18 6 27 -4 9 5 24 23 39 20 16 23 21 9
16 -18 -6 -19 -5 -5 12 15 19 14 19 -12 2 -16 -10 -28 -14 -28 -10 0 5 9 14
20 21 12 7 18 17 15 22 -3 5 12 21 35 36 22 15 40 29 40 31 0 5 -27 -11 -75
-44 -24 -16 -39 -17 -28 0 4 6 8 18 8 25 0 7 15 28 33 46 l33 34 -38 -14 c-59
-21 -72 -17 -40 11 31 28 24 34 -11 9 -28 -20 -43 -10 -16 11 23 18 11 19 -33
3 -18 -6 -35 -9 -39 -5 -4 3 9 28 29 55 l35 49 -36 -19 c-41 -20 -62 -23 -62
-7 0 5 4 8 9 5 5 -4 7 3 4 14 -3 11 3 32 12 47 16 25 14 24 -20 -7 l-38 -35 7
35 c5 27 4 32 -6 22 -17 -17 -33 -15 -18 3 7 8 18 15 26 15 7 0 16 4 19 10 4
7 -3 7 -20 0 -50 -19 -63 14 -17 43 23 15 24 17 5 12 -19 -5 -22 -3 -16 12 5
14 4 16 -8 7 -17 -13 -49 -25 -49 -19 0 3 18 14 40 25 22 11 40 23 40 26 0 9
-43 -7 -72 -27 -39 -28 -44 -23 -10 11 44 44 34 87 -13 56 -25 -17 -26 -17
-13 5 7 12 31 30 53 40 l40 19 -35 -4 c-19 -2 -44 -8 -55 -11 -11 -4 3 13 30
39 l50 47 -58 -42 c-32 -23 -60 -40 -62 -37 -6 6 44 58 57 58 6 0 9 3 6 6 -4
3 -20 -2 -37 -10 -38 -20 -52 -20 -27 -1 19 14 18 15 -10 15 -17 0 -34 -3 -40
-7 -5 -5 0 1 11 11 14 13 16 20 7 23 -6 3 -10 9 -7 13 3 5 -9 5 -27 -1 -18 -5
-36 -9 -40 -9 -16 0 -7 32 16 54 22 23 23 25 5 40 -11 9 -19 11 -19 6 0 -11
-50 -33 -58 -26 -2 3 11 19 29 35 18 17 30 31 25 31 -5 0 -3 7 4 15 8 9 9 15
2 15 -6 0 -13 -4 -16 -9 -3 -5 -18 -11 -33 -14 -24 -4 -25 -4 -10 8 9 7 17 17
17 23 0 6 15 23 33 37 20 17 24 24 12 20 -41 -15 -73 -12 -78 7 -3 10 2 23 11
29 15 10 15 10 0 5 -10 -3 -26 -9 -35 -13 -14 -5 -12 0 6 20 27 30 21 49 -7
24 -10 -10 -22 -14 -25 -11 -4 4 -13 1 -21 -5 -12 -10 -13 -8 -9 10 4 12 23
29 47 40 50 23 34 25 -19 3 -29 -12 -40 -13 -49 -3 -8 9 -8 10 3 4 10 -6 12
-4 7 4 -6 9 -13 8 -28 -6 -21 -18 -21 -18 -9 5 7 13 28 33 47 44 19 11 34 22
34 23 0 9 -66 -19 -77 -33 -7 -9 -13 -12 -13 -6 0 14 13 30 35 42 18 10 18 11
2 12 -17 0 -17 2 3 35 12 19 19 35 17 35 -3 0 -15 -16 -27 -35 -21 -35 -48
-49 -36 -20 3 8 2 14 -2 14 -30 -5 -35 3 -13 21 21 18 21 20 5 20 -16 0 -17 2
-4 11 12 8 9 9 -12 5 -35 -8 -37 11 -3 20 14 3 25 10 25 15 0 5 -16 3 -35 -5
-38 -16 -45 -11 -17 11 14 11 11 11 -14 -1 -19 -9 -35 -11 -45 -5 -11 7 -11 9
4 9 9 0 17 5 17 11 0 5 -6 7 -12 4 -7 -4 3 8 22 26 l34 32 -33 -6 c-31 -7 -33
-6 -27 18 9 34 0 32 -19 -5 -9 -16 -21 -30 -28 -30 -7 0 -8 3 -2 8 6 4 11 18
12 32 2 21 1 23 -8 8 -5 -10 -15 -18 -21 -18 -9 0 -9 3 0 12 20 20 13 28 -14
17 -38 -14 -40 -5 -5 24 34 28 31 40 -5 27 -13 -5 -24 -6 -24 -1 0 5 8 12 17
15 12 5 13 10 5 18 -9 9 -17 7 -33 -8 l-22 -19 18 28 18 28 -28 -7 c-25 -6
-26 -5 -16 15 11 19 9 21 -21 22 -18 0 -27 3 -20 6 6 2 12 12 12 20 0 15 -12
15 -54 -3 -15 -6 -18 -4 -13 9 3 8 1 18 -6 21 -7 2 -5 5 4 5 9 1 24 10 34 21
18 19 17 20 -3 20 -11 0 -33 -5 -49 -10 l-28 -10 30 27 30 26 -28 -5 c-30 -6
-46 7 -28 25 6 6 11 16 11 21 0 6 -5 5 -12 -2 -17 -17 -33 -15 -18 3 19 23 3
18 -20 -7 -11 -12 -23 -18 -27 -15 -3 4 -1 7 5 7 7 0 12 7 12 15 0 7 8 19 18
24 16 10 16 12 0 24 -12 10 -14 17 -6 32 6 12 0 9 -15 -7 -30 -34 -36 -35 -29
-3 3 20 1 24 -11 19 -9 -3 -13 -12 -10 -20 3 -9 -1 -14 -13 -14 -13 0 -15 3
-7 8 7 4 9 13 4 21 -6 9 -11 10 -15 3 -4 -6 -14 -8 -23 -5 -12 5 -14 3 -8 -8
6 -11 5 -12 -5 -2 -11 10 -9 16 11 33 l24 21 -35 -17 c-34 -17 -35 -16 -20 1
14 17 13 18 -5 11 -57 -23 -60 -19 -17 27 45 50 50 60 27 51 -8 -3 -13 -11
-12 -16 1 -6 -4 -13 -12 -16 -8 -3 -11 0 -7 7 5 7 1 9 -8 5 -10 -4 -16 -1 -16
7 0 9 -4 8 -12 -3 -15 -17 -49 -32 -45 -19 2 9 -2 11 -29 11 -8 0 -13 -4 -10
-9 4 -5 -3 -7 -13 -4 -19 5 -19 5 0 39 22 41 24 51 6 35 -8 -6 -16 -8 -20 -5
-3 3 -25 -5 -49 -18 -23 -14 -52 -28 -62 -31 -17 -7 -17 -5 -5 10 7 10 20 24
29 32 13 11 9 13 -27 8 -28 -3 -43 -1 -43 6 0 6 -6 3 -12 -6 -14 -17 -68 -41
-76 -33 -5 6 42 26 59 26 5 0 9 8 9 18 0 10 -3 13 -8 6 -4 -6 -29 -21 -57 -33
l-50 -21 35 31 35 30 -45 -22 c-35 -17 -42 -18 -31 -5 12 15 12 16 -5 9 -17
-6 -17 -5 -5 10 19 24 -2 21 -24 -3 -24 -26 -54 -28 -34 -2 13 16 12 16 -6 1
-11 -9 -27 -20 -35 -24 -12 -6 -13 -5 -2 6 6 7 12 20 12 29 -1 8 -12 -4 -26
-27 -25 -41 -50 -59 -38 -28 4 8 2 15 -3 15 -5 0 -13 -13 -19 -28 -6 -16 -21
-31 -32 -34 -18 -5 -20 -3 -12 12 5 10 22 29 37 42 25 21 59 68 50 68 -2 0
-14 -11 -27 -25z m465 -35 c-3 -5 -16 -15 -28 -21 -21 -10 -21 -9 2 10 25 23
36 27 26 11z m-375 -4 c0 -3 -4 -8 -10 -11 -5 -3 -10 -1 -10 4 0 6 5 11 10 11
6 0 10 -2 10 -4z m350 -46 c0 -5 -5 -10 -11 -10 -5 0 -7 5 -4 10 3 6 8 10 11
10 2 0 4 -4 4 -10z m150 -25 c-13 -14 -26 -23 -28 -20 -7 7 29 45 41 45 6 0 0
-11 -13 -25z m-810 -59 c0 -3 -4 -8 -10 -11 -5 -3 -10 -1 -10 4 0 6 5 11 10
11 6 0 10 -2 10 -4z m-80 -46 c-6 -11 -15 -20 -21 -20 -6 0 -8 -4 -5 -9 3 -4
-4 -17 -17 -27 -18 -16 -19 -16 -8 -1 21 26 1 20 -33 -10 -29 -26 -29 -26 -11
-3 52 67 120 117 95 70z m960 5 c0 -2 -10 -9 -22 -15 -22 -11 -22 -10 -4 4 21
17 26 19 26 11z m-1144 -103 c-18 -16 -18 -16 -6 6 6 13 14 21 18 18 3 -4 -2
-14 -12 -24z m-145 -163 c-13 -11 -26 -17 -29 -15 -3 3 6 14 19 25 13 11 26
17 29 14 3 -2 -6 -13 -19 -24z m-91 -44 c-18 -19 -36 -32 -39 -29 -6 5 57 64
68 64 3 0 -10 -16 -29 -35z m-100 -109 c0 -3 -4 -8 -10 -11 -5 -3 -10 -1 -10
4 0 6 5 11 10 11 6 0 10 -2 10 -4z m1910 -11 c0 -2 -10 -9 -22 -15 -22 -11
-22 -10 -4 4 21 17 26 19 26 11z m99 -98 c-2 -1 -14 -11 -26 -21 -13 -11 -23
-16 -23 -13 0 10 31 37 42 37 6 0 9 -1 7 -3z m-2510 -371 c-7 -14 -16 -26 -21
-26 -5 0 -1 14 7 31 20 37 31 33 14 -5z m-145 -133 c-42 -51 -47 -54 -40 -28
6 28 73 101 83 91 3 -2 -17 -31 -43 -63z m2956 -3 c-8 -5 -22 -10 -30 -10 -13
0 -13 1 0 10 8 5 22 10 30 10 13 0 13 -1 0 -10z m30 -54 c0 -2 -7 -7 -16 -10
-8 -3 -12 -2 -9 4 6 10 25 14 25 6z m117 -99 c0 -7 -8 -13 -18 -13 -13 0 -15
3 -7 13 6 7 14 13 18 13 3 0 7 -6 7 -13z m-3271 -37 c-5 -45 -16 -49 -16 -7 0
21 4 37 10 37 5 0 8 -14 6 -30z m-29 -30 c-6 -67 -17 -76 -17 -13 0 44 5 63
17 63 2 0 2 -23 0 -50z m56 15 c-3 -9 -8 -14 -10 -11 -3 3 -2 9 2 15 9 16 15
13 8 -4z m3257 -50 c-7 -8 -17 -15 -22 -15 -6 0 -5 7 2 15 7 8 17 15 22 15 6
0 5 -7 -2 -15z m-3409 -190 c-11 -20 -29 -44 -40 -51 -20 -14 -20 -14 -7 18
14 33 55 82 63 74 2 -2 -5 -21 -16 -41z m3497 -5 c-7 -10 -14 -17 -17 -15 -4
4 18 35 25 35 2 0 -1 -9 -8 -20z m-3534 -84 c-9 -15 -19 -24 -22 -22 -2 3 3
17 12 32 10 14 20 23 23 21 2 -3 -3 -17 -13 -31z m3671 -6 c-10 -11 -21 -17
-24 -14 -3 3 3 12 13 20 28 20 32 17 11 -6z m-45 -25 c-7 -9 -15 -13 -18 -10
-3 2 1 11 8 20 7 9 15 13 18 10 3 -2 -1 -11 -8 -20z m-3767 -207 c-31 -52 -84
-128 -92 -132 -5 -4 -5 9 -1 32 6 25 23 49 51 75 43 39 56 46 42 25z m3914
-132 c0 -8 -6 -12 -14 -9 -7 3 -10 9 -7 14 8 14 21 11 21 -5z m-3976 -39 c-10
-9 -11 -8 -5 6 3 10 9 15 12 12 3 -3 0 -11 -7 -18z m-30 -24 c-10 -17 -10 -16
-11 3 0 23 13 41 18 25 2 -6 -1 -18 -7 -28z m20 -36 c-8 -8 -11 -7 -11 4 0 20
13 34 18 19 3 -7 -1 -17 -7 -23z m-69 -77 c-18 -16 -36 -30 -39 -30 -4 0 6 14
22 30 16 17 33 30 39 30 6 0 -4 -13 -22 -30z m4121 -60 c-3 -11 -7 -20 -9 -20
-2 0 -4 9 -4 20 0 11 4 20 9 20 5 0 7 -9 4 -20z m-41 -22 c-7 -7 -12 -8 -12
-2 0 14 12 26 19 19 2 -3 -1 -11 -7 -17z m-4123 -30 c-18 -24 -34 -45 -36 -47
-2 -2 -3 0 -3 5 0 10 58 84 67 84 2 0 -10 -19 -28 -42z m4151 8 c0 -3 -4 -8
-10 -11 -5 -3 -10 -1 -10 4 0 6 5 11 10 11 6 0 10 -2 10 -4z m2 -108 c-7 -7
-12 -8 -12 -2 0 14 12 26 19 19 2 -3 -1 -11 -7 -17z m-4193 -149 c-11 -36 -14
-40 -17 -20 -4 22 17 76 25 67 3 -2 -1 -24 -8 -47z m-41 -5 c-7 -15 -14 -21
-16 -15 -2 7 2 18 8 26 18 22 21 18 8 -11z m-9 -90 c-12 -27 -23 -60 -25 -73
-1 -13 -6 -26 -10 -30 -15 -13 5 81 27 126 29 61 36 41 8 -23z m11 -74 c-6
-11 -13 -20 -16 -20 -2 0 0 9 6 20 6 11 13 20 16 20 2 0 0 -9 -6 -20z m-29
-87 c-10 -17 -10 -16 -11 3 0 23 13 41 18 25 2 -6 -1 -18 -7 -28z m-32 -40
c-2 -16 -7 -33 -12 -40 -5 -7 -10 -24 -12 -39 -1 -14 -14 -38 -29 -52 -33 -34
-34 -13 -1 43 13 23 22 45 19 48 -6 6 23 67 32 67 3 0 4 -12 3 -27z m4321 -64
c0 -5 -4 -9 -8 -9 -5 0 -9 7 -9 15 0 8 4 12 9 9 4 -3 8 -9 8 -15z m28 -54 c0
-29 0 -29 -8 -5 -4 14 -8 36 -8 50 -1 23 0 23 8 5 5 -11 8 -33 8 -50z m-24 4
c10 -51 8 -56 -24 -61 -16 -3 -30 -1 -30 4 0 4 8 8 18 8 11 0 18 7 18 20 0 15
-5 18 -18 14 -24 -7 -24 21 0 35 26 16 29 14 36 -20z m-4323 -42 c-13 -13 -15
1 -4 30 7 17 8 17 11 -1 2 -10 -1 -23 -7 -29z m-33 -60 c-14 -26 -1 -34 17
-11 8 10 15 14 15 8 0 -6 -8 -19 -19 -28 -17 -15 -19 -16 -25 -1 -3 9 -2 24 3
32 4 9 7 25 4 37 -3 20 -3 20 6 1 5 -12 5 -27 -1 -38z m-14 -118 c-21 -21 -39
-37 -42 -35 -7 7 43 76 56 76 6 0 12 6 13 13 0 9 2 8 6 -1 3 -8 -12 -31 -33
-53z m40 -104 c-4 -8 -8 -15 -10 -15 -2 0 -4 7 -4 15 0 8 4 15 10 15 5 0 7 -7
4 -15z m-33 -158 c-10 -9 -11 -8 -5 6 3 10 9 15 12 12 3 -3 0 -11 -7 -18z
m-40 -50 c-10 -9 -11 -8 -5 6 3 10 9 15 12 12 3 -3 0 -11 -7 -18z m-14 -219
c-3 -8 -6 -5 -6 6 -1 11 2 17 5 13 3 -3 4 -12 1 -19z m3713 -74 c0 -8 -5 -12
-10 -9 -6 4 -8 11 -5 16 9 14 15 11 15 -7z m-79 -49 c-8 -46 -9 -47 -10 -13
-1 34 8 73 15 66 2 -2 -1 -26 -5 -53z m-41 9 c0 -8 -4 -12 -10 -9 -5 3 -10 10
-10 16 0 5 5 9 10 9 6 0 10 -7 10 -16z m-10 -55 c0 -5 -4 -9 -10 -9 -5 0 -10
7 -10 16 0 8 5 12 10 9 6 -3 10 -10 10 -16z m-207 -94 c-3 -9 -8 -14 -10 -11
-3 3 -2 9 2 15 9 16 15 13 8 -4z m-3296 -42 c-3 -10 -5 -2 -5 17 0 19 2 27 5
18 2 -10 2 -26 0 -35z m3213 -22 c0 -6 -4 -13 -10 -16 -5 -3 -10 1 -10 9 0 9
5 16 10 16 6 0 10 -4 10 -9z m-3180 -41 c-6 -11 -13 -20 -16 -20 -2 0 0 9 6
20 6 11 13 20 16 20 2 0 0 -9 -6 -20z m3190 -27 c0 -20 -3 -24 -11 -16 -7 7
-9 19 -6 27 10 24 17 19 17 -11z m-3194 -180 c-11 -11 -17 4 -9 23 7 18 8 18
11 1 2 -10 1 -21 -2 -24z m2964 -13 c0 -5 -5 -10 -11 -10 -5 0 -7 5 -4 10 3 6
8 10 11 10 2 0 4 -4 4 -10z m-33 -82 c-3 -7 -5 -2 -5 12 0 14 2 19 5 13 2 -7
2 -19 0 -25z m-2867 13 c0 -6 -4 -13 -10 -16 -5 -3 -10 1 -10 9 0 9 5 16 10
16 6 0 10 -4 10 -9z m-30 -24 c0 -2 -10 -12 -22 -23 l-23 -19 19 23 c18 21 26
27 26 19z m2877 -39 c-3 -8 -6 -5 -6 6 -1 11 2 17 5 13 3 -3 4 -12 1 -19z
m-2860 -100 c-3 -8 -6 -5 -6 6 -1 11 2 17 5 13 3 -3 4 -12 1 -19z m2779 -65
c-10 -10 -19 5 -10 18 6 11 8 11 12 0 2 -7 1 -15 -2 -18z m50 -268 c-11 -8
-25 -15 -30 -15 -6 0 -2 7 8 15 11 8 25 15 30 15 6 0 2 -7 -8 -15z m-40 -40
c-11 -8 -22 -12 -25 -9 -6 6 19 24 34 24 6 -1 1 -7 -9 -15z m-2647 -231 c-17
-33 -29 -30 -28 9 0 27 2 29 9 12 8 -20 9 -20 9 1 1 27 15 41 19 19 2 -10 -2
-28 -9 -41z m2676 -44 c-18 -20 -35 -26 -35 -12 0 4 10 12 23 18 32 16 32 16
12 -6z m-2669 -16 c-5 -14 -9 -15 -19 -5 -9 9 -9 14 3 21 18 11 24 6 16 -16z
m34 -94 c-16 -31 -23 -18 -8 15 7 15 14 23 16 17 2 -6 -2 -21 -8 -32z m61
-117 c-9 -16 -10 -16 -11 -1 0 9 3 25 7 35 7 16 8 17 11 1 2 -10 -1 -25 -7
-35z m-24 -55 c-2 -13 -4 -3 -4 22 0 25 2 35 4 23 2 -13 2 -33 0 -45z m14 -51
c-12 -12 -21 -16 -21 -10 0 6 7 16 15 23 8 7 16 20 16 29 1 12 2 12 6 -3 3
-11 -4 -27 -16 -39z m2744 -117 c-10 -11 -20 -18 -23 -15 -7 6 18 35 31 35 5
0 2 -9 -8 -20z m-2649 -117 l-15 -28 -1 36 c0 41 10 57 22 34 6 -9 3 -25 -6
-42z m127 -100 c4 -20 2 -43 -3 -52 -8 -13 -9 -13 -10 5 0 12 -3 36 -6 53 -4
18 -2 31 3 31 6 0 13 -16 16 -37z m2706 -96 c-2 -1 -12 -9 -22 -16 -15 -12
-17 -12 -11 3 3 9 13 16 22 16 8 0 13 -1 11 -3z m-2584 -145 c-3 -3 -5 1 -5 9
-1 8 -7 1 -14 -16 l-13 -30 -7 44 c-4 29 -3 48 6 58 10 13 14 9 25 -23 7 -20
11 -40 8 -42z m50 -141 c-8 -40 -25 -50 -25 -16 0 15 4 24 10 20 6 -3 10 4 10
16 0 12 3 20 6 16 3 -3 3 -19 -1 -36z m66 -34 c-10 -9 -11 -8 -5 6 3 10 9 15
12 12 3 -3 0 -11 -7 -18z m26 -89 c-3 -8 -6 -5 -6 6 -1 11 2 17 5 13 3 -3 4
-12 1 -19z m23 -37 c0 -11 -4 -23 -10 -26 -6 -4 -10 5 -10 19 0 14 5 26 10 26
6 0 10 -9 10 -19z m57 -93 c-3 -8 -6 -5 -6 6 -1 11 2 17 5 13 3 -3 4 -12 1
-19z m74 -281 c-8 -8 -11 4 -11 39 0 66 14 80 18 19 2 -26 -2 -53 -7 -58z m40
26 c-9 -15 -10 -12 -11 18 0 20 3 39 8 43 11 12 14 -42 3 -61z m220 -316 c-8
-8 -11 -7 -11 4 0 20 13 34 18 19 3 -7 -1 -17 -7 -23z m2919 -121 c0 -2 -8
-10 -17 -17 -16 -13 -17 -12 -4 4 13 16 21 21 21 13z m63 -31 c-3 -9 -8 -14
-10 -11 -3 3 -2 9 2 15 9 16 15 13 8 -4z m-2932 -108 c-8 -8 -11 -5 -11 9 0
27 14 41 18 19 2 -9 -1 -22 -7 -28z m108 -5 c1 29 21 50 21 23 0 -21 -25 -68
-44 -84 -14 -12 -16 -10 -16 10 0 13 6 42 12 64 l12 40 7 -40 c4 -29 7 -33 8
-13z m25 -67 c-4 -8 -8 -15 -10 -15 -2 0 -4 7 -4 15 0 8 4 15 10 15 5 0 7 -7
4 -15z m33 -57 c-2 -13 -4 -5 -4 17 -1 22 1 32 4 23 2 -10 2 -28 0 -40z m2923
28 c0 -3 -4 -8 -10 -11 -5 -3 -10 -1 -10 4 0 6 5 11 10 11 6 0 10 -2 10 -4z
m3854 -38 c-23 -28 -37 -38 -43 -33 -8 9 30 55 46 55 14 0 14 -3 -3 -22z m126
8 c0 -2 -7 -9 -15 -16 -13 -11 -14 -10 -9 4 5 14 24 23 24 12z m-260 -41 c-7
-9 -15 -13 -18 -10 -3 2 1 11 8 20 7 9 15 13 18 10 3 -2 -1 -11 -8 -20z m-90
1 c0 -3 -4 -8 -10 -11 -5 -3 -10 -1 -10 4 0 6 5 11 10 11 6 0 10 -2 10 -4z
m382 -18 c-7 -7 -12 -8 -12 -2 0 14 12 26 19 19 2 -3 -1 -11 -7 -17z m-6852
-55 c-11 -17 -11 -17 -6 0 3 10 7 26 7 35 1 15 2 15 6 0 2 -10 -1 -25 -7 -35z
m6420 27 c-6 -11 -15 -20 -21 -20 -6 0 -6 7 1 20 6 11 15 20 21 20 6 0 6 -7
-1 -20z m538 -2 c-2 -6 -15 -18 -28 -27 -21 -14 -23 -14 -16 -1 16 27 28 40
38 40 5 0 8 -5 6 -12z m82 -3 c-7 -9 -15 -13 -17 -11 -7 7 7 26 19 26 6 0 6
-6 -2 -15z m-3922 -34 c-13 -17 -27 -30 -32 -30 -6 -1 3 13 19 29 37 38 43 39
13 1z m-82 -46 c-11 -8 -25 -15 -30 -15 -6 0 -2 7 8 15 11 8 25 15 30 15 6 0
2 -7 -8 -15z m-2999 -27 c-3 -7 -5 -2 -5 12 0 14 2 19 5 13 2 -7 2 -19 0 -25z
m6053 -13 c0 -2 -13 -11 -30 -20 -16 -9 -30 -12 -30 -7 0 4 12 13 28 19 15 6
28 11 30 12 1 1 2 -1 2 -4z m-5939 -28 c-10 -9 -11 -8 -5 6 3 10 9 15 12 12 3
-3 0 -11 -7 -18z m5789 -51 c0 -3 -4 -8 -10 -11 -5 -3 -10 -1 -10 4 0 6 5 11
10 11 6 0 10 -2 10 -4z m-5749 -49 c-8 -8 -11 -7 -11 4 0 20 13 34 18 19 3 -7
-1 -17 -7 -23z m5699 9 c0 -2 -8 -10 -17 -17 -16 -13 -17 -12 -4 4 13 16 21
21 21 13z m-70 -31 c-7 -9 -15 -13 -18 -10 -3 2 1 11 8 20 7 9 15 13 18 10 3
-2 -1 -11 -8 -20z m-58 -67 c-7 -7 -12 -8 -12 -2 0 14 12 26 19 19 2 -3 -1
-11 -7 -17z m-117 -100 c-3 -8 -20 -26 -38 -39 l-32 -23 19 29 c29 47 65 70
51 33z m-2130 -28 c-3 -5 -12 -10 -18 -10 -7 0 -6 4 3 10 19 12 23 12 15 0z
m1960 -46 c-8 -20 -18 -35 -21 -32 -2 3 3 25 12 49 10 23 19 38 21 32 2 -6 -3
-28 -12 -49z m85 31 c0 -2 -10 -10 -22 -16 -21 -11 -22 -11 -9 4 13 16 31 23
31 12z m-20 -55 c0 -5 -5 -10 -11 -10 -5 0 -7 5 -4 10 3 6 8 10 11 10 2 0 4
-4 4 -10z m-80 -48 c0 -5 -7 -17 -16 -28 -8 -10 -14 -14 -11 -9 2 6 7 18 10
28 7 17 17 23 17 9z m-67 -62 c-5 -17 -73 -79 -73 -66 0 6 70 86 75 86 2 0 1
-9 -2 -20z m-1693 -70 c-6 -11 -13 -20 -16 -20 -2 0 0 9 6 20 6 11 13 20 16
20 2 0 0 -9 -6 -20z m54 -27 c-5 -20 -32 -39 -41 -30 -2 2 6 16 18 31 24 30
31 30 23 -1z m4356 13 c0 -2 -7 -7 -16 -10 -8 -3 -12 -2 -9 4 6 10 25 14 25 6z
m-4280 -9 c0 -2 -10 -12 -22 -23 l-23 -19 19 23 c18 21 26 27 26 19z m1420
-34 c0 -5 -10 -19 -21 -33 l-21 -25 18 33 c18 32 24 38 24 25z m-4533 -65 c-3
-8 -6 -5 -6 6 -1 11 2 17 5 13 3 -3 4 -12 1 -19z m-77 5 c0 -5 -5 -15 -10 -23
-8 -12 -10 -11 -10 8 0 12 5 22 10 22 6 0 10 -3 10 -7z m62 -60 c-2 -7 -8 -13
-13 -13 -11 0 -12 54 -2 64 9 9 22 -34 15 -51z m4478 38 c-5 -11 -15 -23 -22
-27 -7 -5 -8 -2 -3 7 21 37 44 55 25 20z m-4441 -68 c-12 -33 -14 -35 -17 -14
-2 13 1 27 7 31 7 4 9 15 5 26 -5 15 -4 16 6 7 10 -9 10 -19 -1 -50z m7596 17
c-3 -5 -11 -10 -16 -10 -6 0 -7 5 -4 10 3 6 11 10 16 10 6 0 7 -4 4 -10z
m-3359 -76 c-4 -14 -9 -24 -12 -21 -3 2 -2 17 2 31 3 15 9 25 11 22 3 -3 2
-17 -1 -32z m-4280 -11 c-8 -15 -15 -22 -16 -15 0 14 22 53 28 47 2 -2 -3 -16
-12 -32z m184 -30 c0 -21 -3 -24 -9 -14 -5 8 -7 20 -4 28 8 21 13 15 13 -14z
m-63 -20 c-3 -10 -5 -4 -5 12 0 17 2 24 5 18 2 -7 2 -21 0 -30z m7793 -169
c-8 -8 -23 -20 -34 -25 -15 -7 -13 -3 7 15 31 29 47 35 27 10z m-7592 -86
l-13 -23 -3 23 c-4 28 21 66 26 39 2 -9 -3 -26 -10 -39z m7667 32 c-10 -11
-25 -20 -34 -20 -12 0 -9 6 9 20 33 26 48 26 25 0z m-7534 -143 c-10 -9 -11
-8 -5 6 3 10 9 15 12 12 3 -3 0 -11 -7 -18z m7719 -22 c-7 -8 -18 -15 -24 -15
-6 0 -2 7 8 15 25 19 32 19 16 0z m-25 -35 c-3 -5 -12 -10 -18 -10 -7 0 -6 4
3 10 19 12 23 12 15 0z m-7579 -46 c-4 -9 -9 -15 -11 -12 -3 3 -3 13 1 22 4 9
9 15 11 12 3 -3 3 -13 -1 -22z m7594 22 c0 -3 -4 -8 -10 -11 -5 -3 -10 -1 -10
4 0 6 5 11 10 11 6 0 10 -2 10 -4z m120 -101 c-14 -7 -27 -11 -30 -9 -6 7 22
24 40 23 9 0 5 -6 -10 -14z m-7663 -17 c-3 -8 -6 -5 -6 6 -1 11 2 17 5 13 3
-3 4 -12 1 -19z m7637 -17 c-8 -8 -43 -8 -38 0 2 4 13 7 24 6 10 -1 17 -3 14
-6z m-7537 -83 c-3 -8 -6 -5 -6 6 -1 11 2 17 5 13 3 -3 4 -12 1 -19z m7647
-63 c-7 -16 -24 -21 -24 -6 0 8 7 13 27 20 1 1 0 -6 -3 -14z m-7553 -86 c-9
-22 -10 -22 -10 -3 -1 11 2 24 6 27 12 12 14 0 4 -24z m7659 27 c0 -2 -8 -10
-17 -17 -16 -13 -17 -12 -4 4 13 16 21 21 21 13z m-49 -30 c-6 -8 -22 -16 -34
-19 -22 -6 -22 -6 2 14 27 22 49 26 32 5z m39 -75 c0 -5 -7 -12 -16 -15 -14
-5 -15 -4 -4 9 14 17 20 19 20 6z m-7393 -123 c-3 -7 -5 -2 -5 12 0 14 2 19 5
13 2 -7 2 -19 0 -25z m127 -149 c-6 -11 -24 -2 -24 11 0 5 7 7 15 4 8 -4 12
-10 9 -15z m6 -29 c-6 -11 -13 -20 -16 -20 -2 0 0 9 6 20 6 11 13 20 16 20 2
0 0 -9 -6 -20z m78 -40 c10 0 14 -80 6 -110 l-7 -25 -7 30 c-8 32 -11 152 -3
123 2 -10 8 -18 11 -18z m87 -130 c3 -5 1 -10 -4 -10 -6 0 -11 5 -11 10 0 6 2
10 4 10 3 0 8 -4 11 -10z m7072 -47 c-3 -10 -5 -4 -5 12 0 17 2 24 5 18 2 -7
2 -21 0 -30z m-57 -123 c0 -5 -4 -10 -10 -10 -5 0 -10 5 -10 10 0 6 5 10 10
10 6 0 10 -4 10 -10z m-205 -350 l5 -35 -14 30 c-18 35 -21 64 -6 49 5 -5 12
-25 15 -44z m-95 14 c0 -14 -4 -23 -10 -19 -5 3 -10 15 -10 26 0 10 5 19 10
19 6 0 10 -12 10 -26z m-6045 -54 c-4 -12 -9 -19 -12 -17 -3 3 -2 15 2 27 4
12 9 19 12 17 3 -3 2 -15 -2 -27z m212 -122 c-3 -7 -5 -2 -5 12 0 14 2 19 5
13 2 -7 2 -19 0 -25z m5623 -11 c0 -18 -2 -19 -10 -7 -13 20 -13 43 0 35 6 -3
10 -16 10 -28z m-5558 -9 c-7 -7 -12 -8 -12 -2 0 14 12 26 19 19 2 -3 -1 -11
-7 -17z m5488 -136 c0 -33 -16 -18 -26 23 -7 27 -6 29 9 16 10 -7 17 -25 17
-39z m-5330 31 c0 -5 -5 -15 -10 -23 -8 -12 -10 -11 -10 8 0 12 5 22 10 22 6
0 10 -3 10 -7z m5237 -35 c-3 -7 -5 -2 -5 12 0 14 2 19 5 13 2 -7 2 -19 0 -25z
m-118 -90 c-7 -13 -14 -18 -16 -11 -3 7 2 19 9 27 18 20 22 12 7 -16z m-82
-50 c-3 -7 -5 -2 -5 12 0 14 2 19 5 13 2 -7 2 -19 0 -25z m-4790 -20 c-3 -7
-5 -2 -5 12 0 14 2 19 5 13 2 -7 2 -19 0 -25z m4680 -80 c-3 -8 -6 -5 -6 6 -1
11 2 17 5 13 3 -3 4 -12 1 -19z m-4357 -93 c0 -8 -2 -15 -4 -15 -2 0 -6 7 -10
15 -3 8 -1 15 4 15 6 0 10 -7 10 -15z m167 -27 c-3 -8 -6 -5 -6 6 -1 11 2 17
5 13 3 -3 4 -12 1 -19z m3973 -19 c0 -11 -4 -17 -10 -14 -5 3 -10 13 -10 21 0
8 5 14 10 14 6 0 10 -9 10 -21z m-3983 -31 c-3 -7 -5 -2 -5 12 0 14 2 19 5 13
2 -7 2 -19 0 -25z m-37 -4 c0 -28 -15 -25 -23 6 -3 13 0 20 9 20 8 0 14 -10
14 -26z m3900 -11 c0 -10 -20 -40 -20 -31 0 3 -3 13 -6 22 -4 11 -1 16 10 16
9 0 16 -3 16 -7z m-3710 -53 c0 -11 -4 -20 -10 -20 -5 0 -10 9 -10 20 0 11 5
20 10 20 6 0 10 -9 10 -20z m3380 -92 c0 -23 -3 -29 -11 -21 -6 6 -8 20 -4 32
9 30 15 26 15 -11z m-3140 -58 c0 -16 -4 -30 -10 -30 -11 0 -14 43 -3 53 11
12 13 8 13 -23z m163 -40 c-3 -12 -8 -19 -11 -16 -5 6 5 36 12 36 2 0 2 -9 -1
-20z m298 -127 c-8 -15 -9 -12 -7 12 5 39 7 44 13 23 2 -10 0 -25 -6 -35z
m204 0 c-10 -41 -25 -52 -25 -19 0 15 4 25 10 21 6 -3 10 1 10 9 0 9 3 16 6
16 3 0 3 -12 -1 -27z m1832 -15 c-3 -8 -6 -5 -6 6 -1 11 2 17 5 13 3 -3 4 -12
1 -19z m-130 -65 c-3 -10 -5 -4 -5 12 0 17 2 24 5 18 2 -7 2 -21 0 -30z
m-1437 8 c0 -6 -4 -13 -10 -16 -5 -3 -10 1 -10 9 0 9 5 16 10 16 6 0 10 -4 10
-9z m-160 -16 c0 -8 -4 -15 -10 -15 -5 0 -10 7 -10 15 0 8 5 15 10 15 6 0 10
-7 10 -15z m792 -7 c-7 -7 -12 -8 -12 -2 0 14 12 26 19 19 2 -3 -1 -11 -7 -17z
m-345 -35 c-3 -10 -5 -4 -5 12 0 17 2 24 5 18 2 -7 2 -21 0 -30z m343 -24 c0
-11 -4 -17 -10 -14 -5 3 -10 15 -10 26 0 11 5 17 10 14 6 -3 10 -15 10 -26z
m140 -4 c0 -8 -2 -15 -4 -15 -2 0 -6 7 -10 15 -3 8 -1 15 4 15 6 0 10 -7 10
-15z"/>
<path d="M3019 12213 c-13 -16 -12 -17 4 -4 9 7 17 15 17 17 0 8 -8 3 -21 -13z"/>
<path d="M2246 11554 c-4 -9 -4 -19 -1 -22 2 -3 7 3 11 12 4 9 4 19 1 22 -2 3
-7 -3 -11 -12z"/>
<path d="M4836 11263 c-6 -14 -5 -15 5 -6 7 7 10 15 7 18 -3 3 -9 -2 -12 -12z"/>
<path d="M1721 11004 c0 -11 3 -14 6 -6 3 7 2 16 -1 19 -3 4 -6 -2 -5 -13z"/>
<path d="M5068 10854 c-16 -8 -28 -16 -28 -18 0 -9 40 7 51 20 14 17 11 17
-23 -2z"/>
<path d="M5450 10049 c0 -5 5 -7 10 -4 6 3 10 8 10 11 0 2 -4 4 -10 4 -5 0
-10 -5 -10 -11z"/>
<path d="M5362 9020 c0 -14 2 -19 5 -12 2 6 2 18 0 25 -3 6 -5 1 -5 -13z"/>
<path d="M5371 8980 c0 -8 4 -22 9 -30 12 -18 12 -2 0 25 -6 13 -9 15 -9 5z"/>
<path d="M1020 8921 c-24 -35 -52 -99 -48 -110 2 -5 19 25 39 66 20 40 35 73
33 73 -1 0 -12 -13 -24 -29z"/>
<path d="M4912 8580 c0 -14 4 -38 8 -55 l8 -30 0 30 c0 17 -4 41 -8 55 l-8 25
0 -25z"/>
<path d="M4412 8190 c0 -19 2 -27 5 -17 2 9 2 25 0 35 -3 9 -5 1 -5 -18z"/>
<path d="M1217 7493 c-4 -3 -7 -11 -7 -17 0 -6 5 -5 12 2 6 6 9 14 7 17 -3 3
-9 2 -12 -2z"/>
<path d="M4952 5550 c-18 -29 -15 -38 4 -12 9 13 14 25 12 27 -2 2 -9 -5 -16
-15z"/>
<path d="M5259 5203 c-13 -16 -12 -17 4 -4 9 7 17 15 17 17 0 8 -8 3 -21 -13z"/>
<path d="M5310 5139 c0 -5 5 -7 10 -4 6 3 10 8 10 11 0 2 -4 4 -10 4 -5 0 -10
-5 -10 -11z"/>
<path d="M9460 4805 c-7 -9 -8 -15 -2 -15 5 0 12 7 16 15 3 8 4 15 2 15 -2 0
-9 -7 -16 -15z"/>
<path d="M8514 4528 l-19 -23 23 19 c21 18 27 26 19 26 -2 0 -12 -10 -23 -22z"/>
<path d="M5940 4450 c-9 -6 -10 -10 -3 -10 6 0 15 5 18 10 8 12 4 12 -15 0z"/>
<path d="M6051 4331 c-18 -14 -20 -20 -10 -23 14 -5 69 17 69 28 0 3 -5 2 -11
-2 -6 -3 -14 -2 -18 4 -4 7 -15 4 -30 -7z"/>
<path d="M6210 4150 c-9 -6 -10 -10 -3 -10 6 0 15 5 18 10 8 12 4 12 -15 0z"/>
<path d="M10805 3970 c-3 -6 1 -7 9 -4 18 7 21 14 7 14 -6 0 -13 -4 -16 -10z"/>
<path d="M6855 3779 c-4 -6 -5 -12 -2 -15 2 -3 7 2 10 11 7 17 1 20 -8 4z"/>
<path d="M11819 2553 c-13 -16 -12 -17 4 -4 16 13 21 21 13 21 -2 0 -10 -8
-17 -17z"/>
</g>
</svg>
