<?xml version="1.0" encoding="utf-8"?>
<!-- Generator: Adobe Illustrator 24.0.2, SVG Export Plug-In . SVG Version: 6.00 Build 0)  -->
<svg version="1.1" id="Layer_1" xmlns="http://www.w3.org/2000/svg" xmlns:xlink="http://www.w3.org/1999/xlink" x="0px" y="0px"
	 viewBox="0 0 1792 1792" style="enable-background:new 0 0 1792 1792;" xml:space="preserve">
<style type="text/css">
	.st0{fill:#9069A7;}
</style>
<path class="st0" d="M256,674.7c0-72,12.5-139.8,37.5-203.5S353,352,397,304.7s94.7-88.3,152-123s119-60.7,185-78s133.3-26,202-26
	c105.3,0,203.3,22.2,294,66.5s164.3,108.8,221,193.5s85,180.3,85,287c0,64-6.3,126.7-19,188s-32.7,120.3-60,177
	s-60.7,106.5-100,149.5s-87.7,77.3-145,103s-120.3,38.5-189,38.5c-45.3,0-90.3-10.7-135-32s-76.7-50.7-96-88
	c-6.7,26-16,63.5-28,112.5s-19.8,80.7-23.5,95s-10.5,38-20.5,71s-18.7,56.7-26,71s-18,35.2-32,62.5s-29.3,53.2-46,77.5
	s-37.3,53.2-62,86.5l-14,5l-9-10c-10-104.7-15-167.3-15-188c0-61.3,7.2-130.2,21.5-206.5S574,1165,604,1049.7
	c30-115.3,47.3-183,52-203c-21.3-43.3-32-99.7-32-169c0-55.3,17.3-107.3,52-156c34.7-48.7,78.7-73,132-73c40.7,0,72.3,13.5,95,40.5
	c22.7,27,34,61.2,34,102.5c0,44-14.7,107.7-44,191s-44,145.7-44,187c0,42,15,76.8,45,104.5s66.3,41.5,109,41.5
	c36.7,0,70.7-8.3,102-25s57.5-39.3,78.5-68s39.7-60.3,56-95s29-71.5,38-110.5s15.7-76,20-111s6.5-68.2,6.5-99.5
	c0-115.3-36.5-205.2-109.5-269.5s-168.2-96.5-285.5-96.5c-133.3,0-244.7,43.2-334,129.5S441,566,441,698.7c0,29.3,4.2,57.7,12.5,85
	s17.3,49,27,65s18.7,31.2,27,45.5c8.3,14.3,12.5,24.5,12.5,30.5c0,18.7-5,43-15,73c-10,30-22.3,45-37,45c-1.3,0-7-1-17-3
	c-34-10-64.2-28.7-90.5-56s-46.7-58.8-61-94.5s-25.2-71.7-32.5-108S256,709.3,256,674.7z"/>
</svg>
